hkgrotesk_regular.sfdir
StartChar: exclam
Encoding: 33 33 2
Width: 268
GlyphClass: 2
Flags: MW
HStem: 0 99<84 184 84 184> 681 20G<90 178 178 178>
VStem: 84 100<0 99 0 99> 104 60<189 189>
LayerCount: 2
Back
Fore
SplineSet
178 701 m 1xd0
 164 189 l 1
 104 189 l 1
 90 701 l 1
 178 701 l 1xd0
184 99 m 1xe0
 184 0 l 1
 84 0 l 1
 84 99 l 1
 184 99 l 1xe0
EndSplineSet
EndChar
StartChar: quotedbl
Encoding: 34 34 3
Width: 346
GlyphClass: 2
Flags: MW
HStem: 473 217<63 133 63 133 213 283 63 213>
VStem: 63 70<473 690 473 690> 213 70<473 690 473 690>
LayerCount: 2
Back
Fore
SplineSet
283 690 m 1
 283 473 l 1
 213 473 l 1
 213 690 l 1
 283 690 l 1
133 690 m 1
 133 473 l 1
 63 473 l 1
 63 690 l 1
 133 690 l 1
EndSplineSet
EndChar
StartChar: numbersign
Encoding: 35 35 4
Width: 722
GlyphClass: 2
Flags: MW
HStem: 0 21G<150 213 150 150 364 427 364 364> 213 58<77 194 77 206 269 409 77 257 484 605> 429 58<117 238 117 250 117 301 313 453 528 645> 680 20G<296 359 359 359 510 573 573 573>
LayerCount: 2
Back
Fore
SplineSet
238 429 m 1
 117 429 l 1
 117 487 l 1
 250 487 l 1
 296 700 l 1
 359 700 l 1
 313 487 l 1
 465 487 l 1
 510 700 l 1
 573 700 l 1
 528 487 l 1
 645 487 l 1
 645 429 l 1
 516 429 l 1
 484 271 l 1
 605 271 l 1
 605 213 l 1
 472 213 l 1
 427 0 l 1
 364 0 l 1
 409 213 l 1
 257 213 l 1
 213 0 l 1
 150 0 l 1
 194 213 l 1
 77 213 l 1
 77 271 l 1
 206 271 l 1
 238 429 l 1
453 429 m 1
 301 429 l 1
 269 271 l 1
 421 271 l 1
 453 429 l 1
EndSplineSet
EndChar
StartChar: dollar
Encoding: 36 36 5
Width: 536
GlyphClass: 2
Flags: MW
HStem: -6 75<240 240> 627 71<240 298>
VStem: 35 80<180 202> 81 83<450 559.5 450 571.5> 240 58<-80 -7 -80 -6 -80 -6 699 770> 413 83<147.5 272>
LayerCount: 2
Back
Fore
SplineSet
298 -7 m 1xdc
 298 -80 l 1
 240 -80 l 1
 240 -6 l 1
 140 6 52 69 35 180 c 1
 115 202 l 1xec
 125 112 196 69 278 69 c 0
 358 69 413 107 413 188 c 0
 413 356 81 313 81 523 c 0
 81 620 151 685 240 698 c 1
 240 770 l 1
 298 770 l 1
 298 699 l 1
 369 692 428 659 466 590 c 1
 401 548 l 1
 373 601 324 627 272 627 c 0
 215 627 164 589 164 530 c 0
 164 370 496 415 496 193 c 0
 496 76 411 -1 298 -7 c 1xdc
EndSplineSet
EndChar
StartChar: percent
Encoding: 37 37 6
Width: 746
GlyphClass: 2
Flags: MW
HStem: 0 54<553 599 553 619> 256 55<552 598> 390 54<148.5 194.5 148.5 215> 646 55<148 193.5> 670 20G<521 590 590 590>
VStem: 50 56<521.5 569 521.5 577> 236 58<522.5 570> 454 56<131.5 179 131.5 187> 640 58<132.5 180>
LayerCount: 2
Back
Fore
SplineSet
510 155 m 0xe780
 510 108 529 54 577 54 c 0
 621 54 640 109 640 156 c 0
 640 204 621 256 575 256 c 0
 529 256 510 203 510 155 c 0xe780
698 155 m 0
 698 80 660 0 578 0 c 0
 483 0 454 92 454 155 c 0
 454 219 482 311 575 311 c 0
 659 311 698 230 698 155 c 0
151 0 m 1
 521 690 l 1
 590 690 l 1xef80
 220 0 l 1
 151 0 l 1
106 545 m 0
 106 498 125 444 172 444 c 0
 217 444 236 499 236 546 c 0
 236 594 216 646 171 646 c 0xf780
 125 646 106 593 106 545 c 0
294 545 m 0
 294 470 256 390 174 390 c 0
 79 390 50 482 50 545 c 0
 50 609 78 701 171 701 c 0
 255 701 294 620 294 545 c 0
EndSplineSet
EndChar
StartChar: ampersand
Encoding: 38 38 7
Width: 601
GlyphClass: 2
Flags: MW
HStem: -10 70<216 284.5 216 290> 630 68<273 322>
VStem: 48 70<121 198.5 121 218.5> 126 70<514 573 514 594> 390 65
LayerCount: 2
Back
Fore
SplineSet
421 136 m 1
 262 321 l 1
 262 321 118 238 118 159 c 0
 118 83 182 60 250 60 c 0
 319 60 377 85 421 136 c 1
390 546 m 0
 390 595 345 630 299 630 c 0
 247 630 196 602 196 544 c 0
 196 484 276 408 276 408 c 1
 276 408 390 474 390 546 c 0
562 330 m 1
 562 330 549 213 506 144 c 1
 617 17 l 1
 564 -28 l 1
 467 84 l 1
 402 14 332 -10 248 -10 c 0
 140 -10 48 40 48 158 c 0
 48 279 221 372 221 372 c 1
 221 372 126 455 126 546 c 0
 126 642 207 698 297 698 c 0
 384 698 456 633 456 546 c 0
 456 446 319 362 319 362 c 1
 456 201 l 1
 480 244 491 338 491 338 c 1
 562 330 l 1
EndSplineSet
EndChar
StartChar: quotesingle
Encoding: 39 39 8
Width: 170
GlyphClass: 2
Flags: MW
HStem: 487 217<50 120 50 120>
VStem: 50 70<487 704 487 704>
LayerCount: 2
Back
Fore
SplineSet
120 704 m 1
 120 487 l 1
 50 487 l 1
 50 704 l 1
 120 704 l 1
EndSplineSet
EndChar
StartChar: parenleft
Encoding: 40 40 9
Width: 302
GlyphClass: 2
Flags: MW
VStem: 57 70<150 378 150 391.5>
LayerCount: 2
Back
Fore
SplineSet
185 -197 m 1
 165 -170 57 10 57 264 c 0
 57 519 166 699 185 726 c 1
 241 684 l 1
 223 658 127 492 127 264 c 0
 127 36 223 -129 241 -154 c 1
 185 -197 l 1
EndSplineSet
EndChar
StartChar: parenright
Encoding: 41 41 10
Width: 302
GlyphClass: 2
Flags: MW
VStem: 175 70<150 378.5>
LayerCount: 2
Back
Fore
SplineSet
61 -154 m 1
 80 -128 175 36 175 264 c 0
 175 493 79 659 61 684 c 1
 117 726 l 1
 137 699 245 518 245 264 c 0
 245 9 136 -171 117 -197 c 1
 61 -154 l 1
EndSplineSet
EndChar
StartChar: asterisk
Encoding: 42 42 11
Width: 380
GlyphClass: 2
Flags: MW
HStem: 414 276<126 216 155 245>
VStem: 40 290<562 562>
LayerCount: 2
Back
Fore
SplineSet
185 526 m 1
 126 414 l 1
 77 449 l 1
 161 544 l 1
 40 562 l 1
 59 620 l 1
 170 573 l 1
 155 690 l 1
 216 690 l 1
 200 573 l 1
 312 620 l 1
 330 562 l 1
 210 544 l 1
 294 449 l 1
 245 414 l 1
 185 526 l 1
EndSplineSet
EndChar
StartChar: plus
Encoding: 43 43 12
Width: 616
GlyphClass: 2
Flags: MW
HStem: 275 60<55 278 55 278 338 561>
VStem: 278 60<52 275 52 275 335 558>
LayerCount: 2
Back
Fore
SplineSet
561 335 m 1
 561 275 l 1
 338 275 l 1
 338 52 l 1
 278 52 l 1
 278 275 l 1
 55 275 l 1
 55 335 l 1
 278 335 l 1
 278 558 l 1
 338 558 l 1
 338 335 l 1
 561 335 l 1
EndSplineSet
EndChar
StartChar: comma
Encoding: 44 44 13
Width: 225
GlyphClass: 2
Flags: MW
HStem: -60 189<30 190 30 190>
VStem: 30 160
LayerCount: 2
Back
Fore
SplineSet
190 129 m 1
 80 -60 l 1
 30 -60 l 1
 90 129 l 1
 190 129 l 1
EndSplineSet
EndChar
StartChar: hyphen
Encoding: 45 45 14
Width: 435
GlyphClass: 2
Flags: MW
HStem: 298 60<90 345 90 345>
VStem: 90 255<298 358 298 358>
LayerCount: 2
Back
Fore
SplineSet
345 358 m 1
 345 298 l 1
 90 298 l 1
 90 358 l 1
 345 358 l 1
EndSplineSet
EndChar
StartChar: period
Encoding: 46 46 15
Width: 202
GlyphClass: 2
Flags: MW
HStem: 0 99<51 151 51 151>
VStem: 51 100<0 99 0 99>
LayerCount: 2
Back
Fore
SplineSet
151 99 m 1
 151 0 l 1
 51 0 l 1
 51 99 l 1
 151 99 l 1
EndSplineSet
EndChar
StartChar: slash
Encoding: 47 47 16
Width: 460
GlyphClass: 2
Flags: W
LayerCount: 2
Back
Fore
SplineSet
5 -210 m 1
 375 740 l 1
 455 740 l 1
 85 -210 l 1
 5 -210 l 1
EndSplineSet
EndChar
StartChar: zero
Encoding: 48 48 17
Width: 586
GlyphClass: 2
Flags: MW
HStem: -10 77<230.5 360 230.5 383.5> 622 79<228.5 357.5>
VStem: 40 82<285.5 405 285.5 422> 464 88<288 406>
LayerCount: 2
Back
Fore
SplineSet
297 67 m 0
 423 67 464 230 464 346 c 0
 464 466 422 622 293 622 c 0
 164 622 122 465 122 345 c 0
 122 226 164 67 297 67 c 0
300 -10 m 0
 104 -10 40 192 40 345 c 0
 40 499 103 701 293 701 c 0
 466 701 552 522 552 343 c 0
 552 166 467 -10 300 -10 c 0
EndSplineSet
EndChar
StartChar: one
Encoding: 49 49 18
Width: 382
GlyphClass: 2
Flags: MW
HStem: 0 21G<198 282 198 198> 532 60<27 121 121 150 27 198 27 121> 670 20G<205 282 282 282>
VStem: 198 84<0 532 532 532> 205 77<660 690>
LayerCount: 2
Back
Fore
SplineSet
205 690 m 1xe8
 282 690 l 1xe8
 282 0 l 1
 198 0 l 1
 198 532 l 1xf0
 27 532 l 1
 27 592 l 1
 121 592 l 2
 179 592 205 630 205 690 c 1xe8
EndSplineSet
EndChar
StartChar: two
Encoding: 50 50 19
Width: 558
GlyphClass: 2
Flags: MW
HStem: 0 72<155 518 155 518> 628 71<230 322>
VStem: 62 81<460 526.5> 400 84<397.5 532>
LayerCount: 2
Back
Fore
SplineSet
518 0 m 1
 35 0 l 1
 35 73 l 1
 35 73 400 301 400 494 c 0
 400 570 364 628 280 628 c 0
 180 628 146 537 143 460 c 1
 62 467 l 1
 62 586 145 699 279 699 c 0
 399 699 484 619 484 497 c 0
 484 288 155 72 155 72 c 1
 518 72 l 1
 518 0 l 1
EndSplineSet
EndChar
StartChar: three
Encoding: 51 51 20
Width: 556
GlyphClass: 2
Flags: MW
HStem: -10 74<224 306 224 330.5> 329 74<225 275 225 275> 625 75<229.5 297>
VStem: 30 78<159.5 198> 63 77<507 573.5> 386 79<490 547.5> 424 78<154.5 198 128.5 243.5>
LayerCount: 2
Back
Fore
SplineSet
502 198 m 0xe2
 502 59 395 -10 266 -10 c 0
 137 -10 30 59 30 198 c 1
 108 205 l 1
 108 114 182 64 266 64 c 0
 346 64 424 110 424 199 c 0xf2
 424 288 355 329 275 329 c 2
 225 329 l 1
 225 403 l 1
 275 403 l 2
 341 403 386 442 386 512 c 0
 386 583 330 625 264 625 c 0
 195 625 141 580 140 507 c 1
 63 515 l 1
 63 632 153 700 264 700 c 0
 372 700 465 634 465 520 c 0
 465 460 437 404 386 372 c 1xec
 465 343 500 276 502 198 c 0xe2
EndSplineSet
EndChar
StartChar: four
Encoding: 52 52 21
Width: 566
GlyphClass: 2
Flags: MW
HStem: 0 21G<344 426 344 344> 182 73<125 344 125 344 426 536> 670 20G<352 426 426 426>
VStem: 344 82<0 182 0 182 255 563 563 563>
LayerCount: 2
Back
Fore
SplineSet
344 255 m 1
 344 563 l 1
 125 255 l 1
 344 255 l 1
536 182 m 1
 426 182 l 1
 426 0 l 1
 344 0 l 1
 344 182 l 1
 25 182 l 1
 25 230 l 1
 352 690 l 1
 426 690 l 1
 426 255 l 1
 536 255 l 1
 536 182 l 1
EndSplineSet
EndChar
StartChar: five
Encoding: 53 53 22
Width: 561
GlyphClass: 2
Flags: MW
HStem: -10 72<239 332.5 239 351.5> 383 71<284.5 335> 616 74<207 490 207 207>
VStem: 59 75<184 208> 435 86<186 267>
LayerCount: 2
Back
Fore
SplineSet
288 -10 m 0
 175 -10 82 76 59 184 c 1
 134 208 l 1
 148 142 190 62 288 62 c 0
 377 62 435 146 435 226 c 0
 435 308 382 383 288 383 c 0
 236 383 183 356 154 310 c 1
 82 340 l 1
 143 690 l 1
 490 690 l 1
 490 616 l 1
 207 616 l 1
 172 406 l 1
 216 440 263 454 306 454 c 0
 422 454 521 351 521 225 c 0
 521 100 415 -10 288 -10 c 0
EndSplineSet
EndChar
StartChar: six
Encoding: 54 54 23
Width: 572
GlyphClass: 2
Flags: MW
HStem: -10 76<259 342.5 259 367.5> 376 67<291.5 342.5> 670 20G<304 408 408 408>
VStem: 69 81<178 243.5> 451 81<178.5 264>
LayerCount: 2
Back
Fore
SplineSet
532 222 m 0
 532 99 435 -10 300 -10 c 0
 172 -10 69 93 69 221 c 0
 69 266 81 306 103 340 c 2
 304 690 l 1
 408 690 l 1
 245 437 l 1
 263 441 282 443 301 443 c 0
 429 443 532 350 532 222 c 0
451 221 m 0
 451 307 384 376 301 376 c 0
 217 376 150 307 150 221 c 0
 150 135 217 66 301 66 c 0
 384 66 451 136 451 221 c 0
EndSplineSet
EndChar
StartChar: seven
Encoding: 55 55 24
Width: 518
GlyphClass: 2
Flags: MW
HStem: 0 21G<97 189 97 97> 616 74<30 390 30 488>
LayerCount: 2
Back
Fore
SplineSet
488 648 m 1
 189 0 l 1
 97 0 l 1
 390 616 l 1
 30 616 l 1
 30 690 l 1
 488 690 l 1
 488 648 l 1
EndSplineSet
EndChar
StartChar: eight
Encoding: 56 56 25
Width: 580
GlyphClass: 2
Flags: MW
HStem: -10 71<249.5 329 249.5 352> 334 65<256.5 325 256.5 330.5> 627 73<261 324>
VStem: 55 81<152.5 233> 90 82<490 553.5 483 578> 412 78<490 548.5> 442 83<152.5 233 123.5 242.5>
LayerCount: 2
Back
Fore
SplineSet
289 334 m 0xf2
 205 334 136 287 136 198 c 0
 136 107 210 61 289 61 c 0
 369 61 442 107 442 198 c 0
 442 287 372 334 289 334 c 0xf2
172 519 m 0xec
 172 447 221 399 292 399 c 0
 358 399 412 442 412 512 c 0
 412 585 357 627 291 627 c 0
 231 627 172 588 172 519 c 0xec
289 -10 m 0
 164 -10 55 56 55 192 c 0xf2
 55 274 98 339 173 372 c 1
 120 404 90 459 90 521 c 0
 90 635 183 700 290 700 c 0
 397 700 490 635 490 521 c 0xec
 490 459 460 404 407 372 c 1
 482 339 525 274 525 192 c 0xe2
 525 55 415 -10 289 -10 c 0
EndSplineSet
EndChar
StartChar: nine
Encoding: 57 57 26
Width: 566
GlyphClass: 2
Flags: MW
HStem: 0 21G<169 273 169 169> 247 67<234.5 285.5> 624 76<234.5 318>
VStem: 45 81<426 511.5 426 529.5> 427 81<446.5 512>
LayerCount: 2
Back
Fore
SplineSet
45 468 m 0
 45 591 142 700 277 700 c 0
 405 700 508 597 508 469 c 0
 508 424 496 384 474 350 c 2
 273 0 l 1
 169 0 l 1
 332 253 l 1
 314 249 295 247 276 247 c 0
 148 247 45 340 45 468 c 0
126 469 m 0
 126 383 193 314 276 314 c 0
 360 314 427 383 427 469 c 0
 427 555 360 624 276 624 c 0
 193 624 126 554 126 469 c 0
EndSplineSet
EndChar
StartChar: colon
Encoding: 58 58 27
Width: 200
GlyphClass: 2
Flags: MW
HStem: 0 99<50 150 50 150> 367 99<50 150 50 150>
VStem: 50 100<0 99 0 99 367 466>
LayerCount: 2
Back
Fore
SplineSet
150 99 m 1
 150 0 l 1
 50 0 l 1
 50 99 l 1
 150 99 l 1
150 466 m 1
 150 367 l 1
 50 367 l 1
 50 466 l 1
 150 466 l 1
EndSplineSet
EndChar
StartChar: semicolon
Encoding: 59 59 28
Width: 240
GlyphClass: 2
Flags: MW
HStem: 367 99<90 190 90 190>
VStem: 90 100<129 129 367 466>
LayerCount: 2
Back
Fore
SplineSet
190 129 m 1
 80 -60 l 1
 30 -60 l 1
 90 129 l 1
 190 129 l 1
190 466 m 1
 190 367 l 1
 90 367 l 1
 90 466 l 1
 190 466 l 1
EndSplineSet
EndChar
StartChar: less
Encoding: 60 60 29
Width: 603
GlyphClass: 2
Flags: W
LayerCount: 2
Back
Fore
SplineSet
538 516 m 1
 189 329 l 1
 538 142 l 1
 503 82 l 1
 59 329 l 1
 503 576 l 1
 538 516 l 1
EndSplineSet
EndChar
StartChar: equal
Encoding: 61 61 30
Width: 535
GlyphClass: 2
Flags: MW
HStem: 208 71<80 455 80 455> 377 71<80 455 80 455>
LayerCount: 2
Back
Fore
SplineSet
80 448 m 1
 455 448 l 1
 455 377 l 1
 80 377 l 1
 80 448 l 1
80 279 m 1
 455 279 l 1
 455 208 l 1
 80 208 l 1
 80 279 l 1
EndSplineSet
EndChar
StartChar: greater
Encoding: 62 62 31
Width: 603
GlyphClass: 2
Flags: W
LayerCount: 2
Back
Fore
SplineSet
65 516 m 1
 100 576 l 1
 544 329 l 1
 100 82 l 1
 65 142 l 1
 414 329 l 1
 65 516 l 1
EndSplineSet
EndChar
StartChar: question
Encoding: 63 63 32
Width: 504
GlyphClass: 2
Flags: MW
HStem: 0 99<204 304 204 304> 631 69<248 288>
VStem: 50 75<514 514> 204 100<0 99 0 99> 217 71<187 292 187 293 187 365.5> 380 74<454.5 559.5>
LayerCount: 2
Back
Fore
SplineSet
50 514 m 1xec
 51 630 139 699 248 700 c 0
 361 700 454 638 454 520 c 0
 454 353 288 383 288 292 c 2
 288 187 l 1
 217 187 l 1
 217 293 l 2
 217 438 380 387 380 522 c 0
 380 597 324 631 252 631 c 0
 182 631 126 590 125 514 c 1
 50 514 l 1xec
304 99 m 1xf4
 304 0 l 1
 204 0 l 1
 204 99 l 1
 304 99 l 1xf4
EndSplineSet
EndChar
StartChar: at
Encoding: 64 64 33
Width: 978
GlyphClass: 2
Flags: MW
HStem: -170 76<394 513 394 517.5> -27 77<690 761.5 690 782.5> 31 75<406 458.5> 433 75<459.5 535 432 548> 628 71<394 592>
VStem: 59 73<168 366 168 384.5> 276 70<180 259 180 279> 583 68<85 90.5> 854 73<221.5 366>
LayerCount: 2
Back
Fore
SplineSet
608 330 m 0xbf80
 608 390 580 433 516 433 c 0
 403 433 346 308 346 210 c 0
 346 150 374 106 438 106 c 0
 551 106 608 232 608 330 c 0xbf80
927 264 m 0
 927 127 862 -27 703 -27 c 0xdf80
 631 -27 583 20 583 88 c 0
 583 93 583 99 584 104 c 1
 546 58 488 31 429 31 c 0xbf80
 326 31 276 119 276 213 c 0
 276 345 357 508 507 508 c 0
 563 508 619 475 634 419 c 1
 647 484 l 1
 723 484 l 1
 699 360 651 228 651 102 c 0
 651 68 674 50 706 50 c 0xdf80
 817 50 854 176 854 267 c 0
 854 465 691 628 493 628 c 0
 295 628 132 465 132 267 c 0
 132 69 295 -94 493 -94 c 0
 533 -94 572 -87 610 -75 c 1
 637 -145 l 1
 591 -161 542 -170 493 -170 c 0
 253 -170 59 26 59 265 c 0
 59 504 254 699 493 699 c 0
 733 699 927 504 927 264 c 0
EndSplineSet
EndChar
StartChar: A
Encoding: 65 65 34
Width: 636
GlyphClass: 2
Flags: MW
HStem: 0 21G<25 117 25 25 520 520 520 611> 150 76<170 439 198 439 198 467> 670 20G<286 351 351 351>
LayerCount: 2
Back
Fore
SplineSet
170 150 m 1
 117 0 l 1
 25 0 l 1
 286 690 l 1
 351 690 l 1
 611 0 l 1
 520 0 l 1
 467 150 l 1
 170 150 l 1
198 226 m 1
 439 226 l 1
 319 566 l 1
 198 226 l 1
EndSplineSet
EndChar
StartChar: B
Encoding: 66 66 35
Width: 595
GlyphClass: 2
Flags: MW
HStem: 0 78<180 330> 315 76<180 297 297 332 180 297> 614 76<180 295 295 297 180 180>
VStem: 97 83<78 315 78 391 391 614> 431 85<475.5 534> 466 84<161 229.5 131 235.5>
LayerCount: 2
Back
Fore
SplineSet
332 315 m 2xf4
 180 315 l 1
 180 78 l 1
 332 78 l 2
 404 78 466 124 466 198 c 0
 466 273 404 315 332 315 c 2xf4
297 614 m 2
 180 614 l 1
 180 391 l 1
 297 391 l 2
 369 391 431 422 431 497 c 0xf8
 431 571 369 614 297 614 c 2
330 0 m 2
 97 0 l 1
 97 690 l 1
 295 690 l 2
 404 690 516 626 516 506 c 0xf8
 516 445 480 396 429 364 c 1
 499 336 550 268 550 191 c 0xf4
 550 71 440 0 330 0 c 2
EndSplineSet
EndChar
StartChar: D
Encoding: 68 68 37
Width: 681
GlyphClass: 2
Flags: MW
HStem: 0 77<174 257 257 269> 614 76<174 268 174 174>
VStem: 90 84<77 77 77 614> 534 85<340 433>
LayerCount: 2
Back
Fore
SplineSet
174 77 m 1
 257 77 l 2
 416 77 534 157 534 345 c 0
 534 521 448 614 268 614 c 2
 174 614 l 1
 174 77 l 1
619 340 m 0
 618 122 492 0 269 0 c 2
 90 0 l 1
 90 690 l 1
 270 690 l 2
 495 690 619 567 619 340 c 0
EndSplineSet
EndChar
StartChar: E
Encoding: 69 69 38
Width: 609
GlyphClass: 2
Flags: MW
HStem: 0 77<179 544 179 544> 308 74<179 501 179 501> 616 74<179 544 179 179>
VStem: 95 84<77 308 382 616>
LayerCount: 2
Back
Fore
SplineSet
544 0 m 1
 95 0 l 1
 95 690 l 1
 544 690 l 1
 544 616 l 1
 179 616 l 1
 179 382 l 1
 501 382 l 1
 501 308 l 1
 179 308 l 1
 179 77 l 1
 544 77 l 1
 544 0 l 1
EndSplineSet
EndChar
StartChar: F
Encoding: 70 70 39
Width: 562
GlyphClass: 2
Flags: MW
HStem: 0 21G<95 179 95 95> 308 74<179 501 179 501> 616 74<179 544 179 179>
VStem: 95 84<0 308 382 616>
LayerCount: 2
Back
Fore
SplineSet
544 616 m 1
 179 616 l 1
 179 382 l 1
 501 382 l 1
 501 308 l 1
 179 308 l 1
 179 0 l 1
 95 0 l 1
 95 690 l 1
 544 690 l 1
 544 616 l 1
EndSplineSet
EndChar
StartChar: G
Encoding: 71 71 40
Width: 750
GlyphClass: 2
Flags: MW
HStem: -10 78<294.5 432.5 294.5 432.5> 0 21G<600 669 600 600> 286 67<432 590 432 669> 623 78<293.5 421.5>
VStem: 62 83<273.5 422.5 273.5 441.5> 590 79<286 286> 600 69<0 0>
LayerCount: 2
Back
Fore
SplineSet
669 0 m 1x7a
 600 0 l 1x7a
 597 122 l 1
 559 46 489 -10 376 -10 c 0
 162 -10 62 152 62 345 c 0
 62 538 161 701 375 701 c 0
 504 701 605 637 658 515 c 1
 580 483 l 1
 541 574 469 623 374 623 c 0
 213 623 145 495 145 350 c 0
 145 197 213 68 376 68 c 0
 489 68 585 147 590 286 c 1xbc
 432 286 l 1
 432 353 l 1
 669 353 l 1
 669 0 l 1x7a
EndSplineSet
EndChar
StartChar: H
Encoding: 72 72 41
Width: 700
GlyphClass: 2
Flags: MW
HStem: 0 21G<95 179 95 95 521 605 521 521> 308 74<179 521 179 521> 670 20G<95 179 179 179 521 605 605 605>
VStem: 95 84<0 308 0 382 382 690> 521 84<0 308 308 308 382 690>
LayerCount: 2
Back
Fore
SplineSet
605 0 m 1
 521 0 l 1
 521 308 l 1
 179 308 l 1
 179 0 l 1
 95 0 l 1
 95 690 l 1
 179 690 l 1
 179 382 l 1
 521 382 l 1
 521 690 l 1
 605 690 l 1
 605 0 l 1
EndSplineSet
EndChar
StartChar: I
Encoding: 73 73 42
Width: 264
GlyphClass: 2
Flags: MW
HStem: 0 21G<90 174 90 90> 670 20G<90 174 174 174>
VStem: 90 84<0 690>
LayerCount: 2
Back
Fore
SplineSet
174 0 m 1
 90 0 l 1
 90 690 l 1
 174 690 l 1
 174 0 l 1
EndSplineSet
EndChar
StartChar: K
Encoding: 75 75 44
Width: 679
GlyphClass: 2
Flags: MW
HStem: 0 21G<96 179 96 96 559 660 559 559> 670 20G<96 179 179 179 554 664 664 664>
VStem: 96 83<0 188 292 690>
LayerCount: 2
Back
Fore
SplineSet
664 690 m 1
 401 416 l 1
 660 0 l 1
 559 0 l 1
 343 358 l 1
 179 188 l 1
 179 0 l 1
 96 0 l 1
 96 690 l 1
 179 690 l 1
 179 292 l 1
 554 690 l 1
 664 690 l 1
EndSplineSet
EndChar
StartChar: L
Encoding: 76 76 45
Width: 509
GlyphClass: 2
Flags: MW
HStem: 0 77<179 474 179 474> 670 20G<95 179 179 179>
VStem: 95 84<77 690 77 690 77 690>
LayerCount: 2
Back
Fore
SplineSet
474 0 m 1
 95 0 l 1
 95 690 l 1
 179 690 l 1
 179 77 l 1
 474 77 l 1
 474 0 l 1
EndSplineSet
EndChar
StartChar: M
Encoding: 77 77 46
Width: 849
GlyphClass: 2
Flags: MW
HStem: 0 21G<94 178 94 94 670 754 670 670> 670 20G<94 227 227 227 621 754 754 754>
VStem: 94 84<0 607 0 690 0 690> 670 84<0 607 607 607>
LayerCount: 2
Back
Fore
SplineSet
754 0 m 1
 670 0 l 1
 670 607 l 1
 470 60 l 1
 378 60 l 1
 178 607 l 1
 178 0 l 1
 94 0 l 1
 94 690 l 1
 227 690 l 1
 424 145 l 1
 621 690 l 1
 754 690 l 1
 754 0 l 1
EndSplineSet
EndChar
StartChar: N
Encoding: 78 78 47
Width: 680
GlyphClass: 2
Flags: MW
HStem: 0 21G<94 178 94 94 474 585 474 474> 670 20G<94 205 205 205 502 585 585 585>
VStem: 94 84<0 583 0 690> 502 83<107 690>
LayerCount: 2
Back
Fore
SplineSet
585 0 m 1
 474 0 l 1
 178 583 l 1
 178 0 l 1
 94 0 l 1
 94 690 l 1
 205 690 l 1
 502 107 l 1
 502 690 l 1
 585 690 l 1
 585 0 l 1
EndSplineSet
EndChar
StartChar: O
Encoding: 79 79 48
Width: 746
GlyphClass: 2
Flags: MW
HStem: -10 77<291.5 454.5 291.5 480> 623 77<291.5 454.5>
VStem: 60 84<272 418 272 441> 602 84<272 418>
LayerCount: 2
Back
Fore
SplineSet
373 623 m 0
 210 623 144 491 144 345 c 0
 144 199 210 67 373 67 c 0
 536 67 602 199 602 345 c 0
 602 491 536 623 373 623 c 0
373 -10 m 0
 159 -10 60 153 60 345 c 0
 60 537 159 700 373 700 c 0
 587 700 686 537 686 345 c 0
 686 153 587 -10 373 -10 c 0
EndSplineSet
EndChar
StartChar: P
Encoding: 80 80 49
Width: 545
GlyphClass: 2
Flags: MW
HStem: 0 21G<95 178 95 95> 307 76<178 291 178 291> 614 76<178 291 178 178>
VStem: 95 83<0 307 383 614> 432 83<459.5 534>
LayerCount: 2
Back
Fore
SplineSet
291 614 m 2
 178 614 l 1
 178 383 l 1
 291 383 l 2
 382 383 432 422 432 497 c 0
 432 571 382 614 291 614 c 2
291 307 m 2
 178 307 l 1
 178 0 l 1
 95 0 l 1
 95 690 l 1
 291 690 l 2
 425 690 515 619 515 497 c 0
 515 375 425 307 291 307 c 2
EndSplineSet
EndChar
StartChar: Q
Encoding: 81 81 50
Width: 746
GlyphClass: 2
Flags: MW
HStem: -10 77<291.5 399.5 291.5 411.5> 623 77<291.5 454.5>
VStem: 60 84<272 418 272 441> 602 84<310 418>
LayerCount: 2
Back
Fore
SplineSet
373 -10 m 0
 159 -10 60 153 60 345 c 0
 60 537 159 700 373 700 c 0
 587 700 686 537 686 345 c 0
 686 250 662 162 611 98 c 1
 708 1 l 1
 657 -50 l 1
 560 47 l 1
 512 11 450 -10 373 -10 c 0
373 623 m 0
 210 623 144 491 144 345 c 0
 144 199 210 67 373 67 c 0
 426 67 469 81 502 105 c 1
 405 202 l 1
 456 253 l 1
 552 157 l 1
 587 207 602 275 602 345 c 0
 602 491 536 623 373 623 c 0
EndSplineSet
EndChar
StartChar: S
Encoding: 83 83 52
Width: 546
GlyphClass: 2
Flags: MW
HStem: -8 77<242 323 242 344.5> 627 73<248.5 303>
VStem: 40 80<178 202> 86 83<450 559.5 450 577> 418 83<147.5 272>
LayerCount: 2
Back
Fore
SplineSet
283 -8 m 0xd8
 168 -8 59 53 40 178 c 1
 120 202 l 1xe8
 130 112 201 69 283 69 c 0
 363 69 418 107 418 188 c 0
 418 356 86 313 86 523 c 0
 86 631 173 700 277 700 c 0
 359 700 428 667 471 590 c 1
 406 548 l 1
 378 601 329 627 277 627 c 0
 220 627 169 589 169 530 c 0
 169 370 501 415 501 193 c 0
 501 69 406 -8 283 -8 c 0xd8
EndSplineSet
EndChar
StartChar: T
Encoding: 84 84 53
Width: 566
GlyphClass: 2
Flags: MW
HStem: 0 21G<241 325 241 241> 619 71<10 241 10 556 325 556 325 325>
VStem: 241 84<0 619 0 619>
LayerCount: 2
Back
Fore
SplineSet
556 619 m 1
 325 619 l 1
 325 0 l 1
 241 0 l 1
 241 619 l 1
 10 619 l 1
 10 690 l 1
 556 690 l 1
 556 619 l 1
EndSplineSet
EndChar
StartChar: U
Encoding: 85 85 54
Width: 648
GlyphClass: 2
Flags: MW
HStem: -10 80<262 386 262 410.5> 670 20G<80 164 164 164 484 568 568 568>
VStem: 80 84<283 690> 484 84<283 288 288 690>
LayerCount: 2
Back
Fore
SplineSet
568 690 m 1
 568 288 l 2
 568 112 497 -10 324 -10 c 0
 151 -10 80 112 80 283 c 2
 80 690 l 1
 164 690 l 1
 164 283 l 2
 164 158 200 70 324 70 c 0
 448 70 484 158 484 283 c 2
 484 690 l 1
 568 690 l 1
EndSplineSet
EndChar
StartChar: V
Encoding: 86 86 55
Width: 624
GlyphClass: 2
Flags: MW
HStem: 0 21G<277 348 277 277> 670 20G<15 104 104 104 520 609 609 609>
LayerCount: 2
Back
Fore
SplineSet
609 690 m 1
 348 0 l 1
 277 0 l 1
 15 690 l 1
 104 690 l 1
 312 117 l 1
 520 690 l 1
 609 690 l 1
EndSplineSet
EndChar
StartChar: W
Encoding: 87 87 56
Width: 931
GlyphClass: 2
Flags: MW
HStem: 0 21G<211 301 211 211 630 720 630 630> 670 20G<15 102 102 102 829 916 916 916>
LayerCount: 2
Back
Fore
SplineSet
916 690 m 1
 720 0 l 1
 630 0 l 1
 466 494 l 1
 301 0 l 1
 211 0 l 1
 15 690 l 1
 102 690 l 1
 263 108 l 1
 432 630 l 1
 499 630 l 1
 668 108 l 1
 829 690 l 1
 916 690 l 1
EndSplineSet
EndChar
StartChar: X
Encoding: 88 88 57
Width: 608
GlyphClass: 2
Flags: MW
HStem: 0 21G<25 125 25 25 483 583 483 483> 670 20G<26 126 126 126 482 582 582 582>
LayerCount: 2
Back
Fore
SplineSet
583 0 m 1
 483 0 l 1
 303 279 l 1
 125 0 l 1
 25 0 l 1
 253 345 l 1
 26 690 l 1
 126 690 l 1
 304 406 l 1
 482 690 l 1
 582 690 l 1
 355 345 l 1
 583 0 l 1
EndSplineSet
EndChar
StartChar: Y
Encoding: 89 89 58
Width: 632
GlyphClass: 2
Flags: MW
HStem: 0 21G<275 357 275 275> 670 20G<10 108 108 108 524 622 622 622>
VStem: 275 82<0 270 0 270>
LayerCount: 2
Back
Fore
SplineSet
622 690 m 1
 357 270 l 1
 357 0 l 1
 275 0 l 1
 275 270 l 1
 10 690 l 1
 108 690 l 1
 316 354 l 1
 524 690 l 1
 622 690 l 1
EndSplineSet
EndChar
StartChar: Z
Encoding: 90 90 59
Width: 631
GlyphClass: 2
Flags: MW
HStem: 0 77<153 581 153 581> 616 74<67 474 67 581>
LayerCount: 2
Back
Fore
SplineSet
581 0 m 1
 45 0 l 1
 45 65 l 1
 474 616 l 1
 67 616 l 1
 67 690 l 1
 581 690 l 1
 581 622 l 1
 153 77 l 1
 581 77 l 1
 581 0 l 1
EndSplineSet
EndChar
StartChar: bracketleft
Encoding: 91 91 60
Width: 333
GlyphClass: 2
Flags: MW
HStem: -220 70<144 260 144 260> 670 70<144 260 144 144>
VStem: 74 70<-150 -150 -150 670> 74 186<-220 -150 670 740>
LayerCount: 2
Back
Fore
SplineSet
144 -150 m 1xe0
 260 -150 l 1
 260 -220 l 1
 74 -220 l 1
 74 740 l 1
 260 740 l 1
 260 670 l 1xd0
 144 670 l 1
 144 -150 l 1xe0
EndSplineSet
EndChar
StartChar: backslash
Encoding: 92 92 61
Width: 254
GlyphClass: 2
Flags: MW
HStem: 670 20G<-72 7 7 7>
LayerCount: 2
Back
Fore
SplineSet
7 690 m 1
 326 -210 l 1
 247 -210 l 1
 -72 690 l 1
 7 690 l 1
EndSplineSet
EndChar
StartChar: bracketright
Encoding: 93 93 62
Width: 333
GlyphClass: 2
Flags: MW
HStem: -220 70<74 190 74 190 74 260> 670 70<74 190 74 260>
VStem: 74 186<-220 -150 -150 -150 670 740 -220 740> 190 70<-150 670 670 670>
LayerCount: 2
Back
Fore
SplineSet
74 -220 m 1xe0
 74 -150 l 1xe0
 190 -150 l 1
 190 670 l 1xd0
 74 670 l 1
 74 740 l 1
 260 740 l 1
 260 -220 l 1
 74 -220 l 1xe0
EndSplineSet
EndChar
StartChar: asciicircum
Encoding: 94 94 63
Width: 578
GlyphClass: 2
Flags: MW
HStem: 408 294<108 289 108 289 289 471 289 389>
LayerCount: 2
Back
Fore
SplineSet
389 408 m 1
 289 569 l 1
 190 408 l 1
 108 408 l 1
 289 702 l 1
 471 408 l 1
 389 408 l 1
EndSplineSet
EndChar
StartChar: underscore
Encoding: 95 95 64
Width: 485
GlyphClass: 2
Flags: MW
HStem: -60 60<50 435 50 435>
LayerCount: 2
Back
Fore
SplineSet
435 0 m 1
 435 -60 l 1
 50 -60 l 1
 50 0 l 1
 435 0 l 1
EndSplineSet
EndChar
StartChar: grave
Encoding: 96 96 65
Width: 200
GlyphClass: 2
Flags: MW
HStem: 549 141<0 205 0 123>
VStem: 0 205<549 690>
LayerCount: 2
Back
Fore
SplineSet
0 690 m 1
 100 690 l 1
 205 549 l 1
 123 549 l 1
 0 690 l 1
EndSplineSet
EndChar
StartChar: b
Encoding: 98 98 67
Width: 582
GlyphClass: 2
Flags: MW
HStem: -10 73<294 355.5 260.5 392> 0 21G<98 98 98 178> 424 74<294 355.5> 670 20G<98 178 178 178>
VStem: 98 80<0 65 423 690> 446 81
LayerCount: 2
Back
Fore
SplineSet
98 0 m 1x7c
 98 690 l 1
 178 690 l 1
 178 423 l 1
 210 469 260 498 328 498 c 0
 456 498 526 384 526 244 c 0
 526 104 456 -10 328 -10 c 0xbc
 260 -10 210 19 178 65 c 1
 178 0 l 1
 98 0 l 1x7c
446 244 m 0
 446 341 403 424 308 424 c 0
 213 424 172 341 172 244 c 0
 172 146 213 63 308 63 c 0
 403 63 446 146 446 244 c 0
EndSplineSet
EndChar
StartChar: d
Encoding: 100 100 69
Width: 580
GlyphClass: 2
Flags: MW
HStem: -10 73<224.5 286> 0 21G<402 482 402 402> 424 74<224.5 286 188 319.5> 670 20G<402 482 482 482>
VStem: 54 81 402 80<0 65 65 65 423 690>
LayerCount: 2
Back
Fore
SplineSet
482 0 m 1x7c
 402 0 l 1x7c
 402 65 l 1
 370 19 320 -10 252 -10 c 0xbc
 124 -10 54 104 54 244 c 0
 54 384 124 498 252 498 c 0
 320 498 370 469 402 423 c 1
 402 690 l 1
 482 690 l 1
 482 0 l 1x7c
134 244 m 0
 134 146 177 63 272 63 c 0xbc
 367 63 407 146 407 244 c 0
 407 341 367 424 272 424 c 0
 177 424 134 341 134 244 c 0
EndSplineSet
EndChar
StartChar: f
Encoding: 102 102 71
Width: 347
GlyphClass: 2
Flags: MW
HStem: 0 21G<120 200 120 120> 420 68<200 337 200 337> 632 68<249.5 271.5 220 282.5>
VStem: 120 80<0 420 0 420 488 571>
LayerCount: 2
Back
Fore
SplineSet
268 632 m 0
 231 632 200 608 200 571 c 2
 200 488 l 1
 337 488 l 1
 337 420 l 1
 200 420 l 1
 200 0 l 1
 120 0 l 1
 120 420 l 1
 31 420 l 1
 31 487 l 1
 120 487 l 1
 120 573 l 2
 120 655 182 700 258 700 c 0
 285 700 313 693 337 682 c 1
 317 619 l 1
 317 619 297 632 268 632 c 0
EndSplineSet
EndChar
StartChar: h
Encoding: 104 104 73
Width: 572
GlyphClass: 2
Flags: MW
HStem: 0 21G<94 174 94 94 411 491 411 411> 422 77<293 352.5> 670 20G<94 174 174 174>
VStem: 94 80<0 306 421 690> 411 80<0 289>
LayerCount: 2
Back
Fore
SplineSet
491 0 m 1
 411 0 l 1
 411 289 l 2
 411 356 392 422 313 422 c 0
 244 422 187 371 174 306 c 1
 174 0 l 1
 94 0 l 1
 94 690 l 1
 174 690 l 1
 174 421 l 1
 207 468 264 499 322 499 c 0
 446 499 491 399 491 289 c 2
 491 0 l 1
EndSplineSet
EndChar
StartChar: i
Encoding: 105 105 74
Width: 265
GlyphClass: 2
Flags: MW
HStem: 0 21G<93 173 93 93> 468 20G<93 173 173 173> 594 99<88 178 88 178>
VStem: 93 80<0 488>
LayerCount: 2
Back
Fore
SplineSet
178 693 m 1
 178 594 l 1
 88 594 l 1
 88 693 l 1
 178 693 l 1
173 0 m 1
 93 0 l 1
 93 488 l 1
 173 488 l 1
 173 0 l 1
EndSplineSet
EndChar
StartChar: j
Encoding: 106 106 75
Width: 261
GlyphClass: 2
Flags: MW
HStem: -214 70<29 61.5 29 89.5> 468 20G<92 172 172 172> 594 99<88 178 88 178>
VStem: 92 80<-82 -71 -71 488>
LayerCount: 2
Back
Fore
SplineSet
178 693 m 1
 178 594 l 1
 88 594 l 1
 88 693 l 1
 178 693 l 1
45 -214 m 0
 9 -214 -31 -199 -31 -199 c 1
 -13 -136 l 1
 -13 -136 16 -144 42 -144 c 0
 81 -144 92 -115 92 -82 c 2
 92 488 l 1
 172 488 l 1
 172 -71 l 2
 172 -154 134 -214 45 -214 c 0
EndSplineSet
EndChar
StartChar: k
Encoding: 107 107 76
Width: 531
GlyphClass: 2
Flags: MW
HStem: 0 21G<94 174 94 94 424 517 424 424> 468 20G<387 488 488 488> 670 20G<94 174 174 174>
VStem: 94 80<0 143 231 690>
LayerCount: 2
Back
Fore
SplineSet
517 0 m 1
 424 0 l 1
 272 252 l 1
 174 143 l 1
 174 0 l 1
 94 0 l 1
 94 690 l 1
 174 690 l 1
 174 231 l 1
 387 488 l 1
 488 488 l 1
 325 306 l 1
 517 0 l 1
EndSplineSet
EndChar
StartChar: l
Encoding: 108 108 77
Width: 279
GlyphClass: 2
Flags: MW
HStem: -10 74<187 194.5> 670 20G<93 173 173 173>
VStem: 93 80<99 690 93 690>
LayerCount: 2
Back
Fore
SplineSet
177 -10 m 0
 105 -10 93 36 93 99 c 2
 93 690 l 1
 173 690 l 1
 173 93 l 1
 173 93 174 64 200 64 c 0
 221 64 244 69 244 69 c 1
 244 0 l 1
 244 0 212 -10 177 -10 c 0
EndSplineSet
EndChar
StartChar: m
Encoding: 109 109 78
Width: 847
GlyphClass: 2
Flags: MW
HStem: 0 21G<696 776 696 696> 421 76<275 334.5> 468 20G<93 173 173 173>
VStem: 93 80<2 276 409 488> 394 80<2 276 2 289 2 322.5> 696 80<0 287 287 297>
LayerCount: 2
Back
Fore
SplineSet
776 0 m 1xdc
 696 0 l 1
 696 287 l 2
 696 354 675 421 596 421 c 0
 518 421 474 354 474 276 c 2
 474 2 l 1
 394 2 l 1
 394 289 l 2
 394 356 374 421 295 421 c 0xdc
 217 421 173 354 173 276 c 2
 173 2 l 1
 93 2 l 1
 93 488 l 1
 173 488 l 1xbc
 173 409 l 1
 196 462 246 497 304 497 c 0
 372 497 426 465 453 402 c 1
 484 464 538 496 605 496 c 0
 728 496 776 402 776 297 c 2
 776 0 l 1xdc
EndSplineSet
EndChar
StartChar: n
Encoding: 110 110 79
Width: 564
GlyphClass: 2
Flags: MW
HStem: 1 20G 420 76<293 353.5> 468 20G<92 172 172 172>
VStem: 92 80<1 275 413 488> 413 80<0 287 287 297>
LayerCount: 2
Back
Fore
SplineSet
493 0 m 1xd8
 413 0 l 1
 413 287 l 2
 413 354 393 420 314 420 c 0xd8
 236 420 172 353 172 275 c 2
 172 1 l 1
 92 1 l 1
 92 488 l 1
 172 488 l 1xb8
 172 413 l 1
 204 464 263 496 323 496 c 0
 446 496 493 402 493 297 c 2
 493 0 l 1xd8
EndSplineSet
EndChar
StartChar: p
Encoding: 112 112 81
Width: 572
GlyphClass: 2
Flags: MW
HStem: -10 73<289.5 351.5 256 387.5> 425 73<289.5 351.5> 468 20G<94 174 174 174>
VStem: 94 80<-214 65 423 488> 441 81<195 292.5>
LayerCount: 2
Back
Fore
SplineSet
94 -214 m 1xd8
 94 488 l 1
 174 488 l 1xb8
 174 423 l 1
 206 469 255 498 324 498 c 0
 451 498 522 384 522 244 c 0
 522 104 451 -10 324 -10 c 0
 255 -10 206 19 174 65 c 1
 174 -214 l 1
 94 -214 l 1xd8
441 244 m 0
 441 341 399 425 304 425 c 0xd8
 208 425 168 341 168 244 c 0
 168 146 208 63 304 63 c 0
 399 63 441 146 441 244 c 0
EndSplineSet
EndChar
StartChar: q
Encoding: 113 113 82
Width: 580
GlyphClass: 2
Flags: MW
HStem: -10 73<227.5 289> 424 74<227.5 289 191 322.5> 468 20G<405 485 485 485>
VStem: 57 81 405 80<-214 65 65 65 423 488>
LayerCount: 2
Back
Fore
SplineSet
485 -214 m 1xb8
 405 -214 l 1
 405 65 l 1
 373 19 323 -10 255 -10 c 0
 127 -10 57 104 57 244 c 0
 57 384 127 498 255 498 c 0xd8
 323 498 373 469 405 423 c 1
 405 488 l 1
 485 488 l 1
 485 -214 l 1xb8
137 244 m 0
 137 146 180 63 275 63 c 0
 370 63 410 146 410 244 c 0
 410 341 370 424 275 424 c 0
 180 424 137 341 137 244 c 0
EndSplineSet
EndChar
StartChar: r
Encoding: 114 114 83
Width: 370
GlyphClass: 2
Flags: MW
HStem: 0 21G<83 163 83 83> 422 73<271.5 304.5> 468 20G<83 164 164 164>
VStem: 83 80<0 229 0 488>
LayerCount: 2
Back
Fore
SplineSet
385 470 m 1xd0
 355 404 l 1
 337 419 316 422 293 422 c 0xd0
 208 422 163 329 163 229 c 2
 163 0 l 1
 83 0 l 1
 83 488 l 1
 164 488 l 1xb0
 164 392 l 1
 184 453 245 495 298 495 c 0
 325 495 362 488 385 470 c 1xd0
EndSplineSet
EndChar
StartChar: s
Encoding: 115 115 84
Width: 436
GlyphClass: 2
Flags: MW
HStem: -10 71<195 249 195 268.5> 428 67<191.5 240.5>
VStem: 58 74<309.5 383.5 309.5 400.5> 319 77<109.5 196.5>
LayerCount: 2
Back
Fore
SplineSet
224 -10 m 0
 132 -10 61 47 40 113 c 1
 106 147 l 1
 121 100 166 61 224 61 c 0
 274 61 319 82 319 137 c 0
 319 256 58 177 58 358 c 0
 58 443 133 495 214 495 c 0
 296 495 350 450 379 398 c 1
 318 363 l 1
 298 400 267 428 214 428 c 0
 169 428 132 407 132 360 c 0
 132 259 396 332 396 141 c 0
 396 45 313 -10 224 -10 c 0
EndSplineSet
EndChar
StartChar: u
Encoding: 117 117 86
Width: 573
GlyphClass: 2
Flags: MW
HStem: -11 73<219.5 287> 0 21G<402 482 402 402> 468 20G<81 161 161 161 402 482 482 482>
VStem: 81 80<198 488> 402 80<0 78 78 78 210 488>
LayerCount: 2
Back
Fore
SplineSet
482 0 m 1x78
 402 0 l 1x78
 402 78 l 1
 380 37 323 -11 251 -11 c 0
 128 -11 81 88 81 198 c 2
 81 488 l 1
 161 488 l 1
 161 198 l 2
 161 131 180 62 259 62 c 0xb8
 337 62 402 132 402 210 c 2
 402 488 l 1
 482 488 l 1
 482 0 l 1x78
EndSplineSet
EndChar
StartChar: v
Encoding: 118 118 87
Width: 468
GlyphClass: 2
Flags: MW
HStem: 0 21G<199 269 199 199> 468 20G<15 102 102 102 367 453 453 453>
LayerCount: 2
Back
Fore
SplineSet
453 488 m 1
 269 0 l 1
 199 0 l 1
 15 488 l 1
 102 488 l 1
 234 103 l 1
 367 488 l 1
 453 488 l 1
EndSplineSet
EndChar
StartChar: w
Encoding: 119 119 88
Width: 700
GlyphClass: 2
Flags: MW
HStem: 0 21G<162 238 162 162 462 538 462 462> 468 20G<23 108 108 108 314 386 386 386 592 677 677 677>
LayerCount: 2
Back
Fore
SplineSet
677 488 m 1
 538 0 l 1
 462 0 l 1
 350 384 l 1
 238 0 l 1
 162 0 l 1
 23 488 l 1
 108 488 l 1
 205 109 l 1
 314 488 l 1
 386 488 l 1
 495 110 l 1
 592 488 l 1
 677 488 l 1
EndSplineSet
EndChar
StartChar: x
Encoding: 120 120 89
Width: 460
GlyphClass: 2
Flags: MW
HStem: 0 21G<21 118 21 21 342 439 342 342> 468 20G<21 118 118 118 342 439 439 439>
LayerCount: 2
Back
Fore
SplineSet
439 0 m 1
 342 0 l 1
 230 182 l 1
 118 0 l 1
 21 0 l 1
 185 246 l 1
 21 488 l 1
 118 488 l 1
 230 309 l 1
 342 488 l 1
 439 488 l 1
 275 246 l 1
 439 0 l 1
EndSplineSet
EndChar
StartChar: y
Encoding: 121 121 90
Width: 487
GlyphClass: 2
Flags: MW
HStem: 468 20G<20 108 108 108 384 472 472 472>
LayerCount: 2
Back
Fore
SplineSet
472 488 m 1
 208 -210 l 1
 125 -210 l 1
 207 5 l 1
 20 488 l 1
 108 488 l 1
 247 98 l 1
 384 488 l 1
 472 488 l 1
EndSplineSet
EndChar
StartChar: z
Encoding: 122 122 91
Width: 456
GlyphClass: 2
Flags: MW
HStem: 0 67<134 423 134 423> 420 68<47 326 47 423>
LayerCount: 2
Back
Fore
SplineSet
423 0 m 1
 33 0 l 1
 33 59 l 1
 326 420 l 1
 47 420 l 1
 47 488 l 1
 423 488 l 1
 423 423 l 1
 134 67 l 1
 423 67 l 1
 423 0 l 1
EndSplineSet
EndChar
StartChar: braceleft
Encoding: 123 123 92
Width: 294
GlyphClass: 2
Flags: MW
HStem: -167 66<195 230 195 230> 643 66<195.5 230>
VStem: 64 70<-15.5 69 473 559.5>
LayerCount: 2
Back
Fore
SplineSet
134 513 m 0
 134 386 183 361 183 328 c 0
 183 315 174 299 152 271 c 1
 174 243 183 227 183 214 c 0
 183 182 134 159 134 31 c 0
 134 -62 160 -101 230 -101 c 1
 230 -167 l 1
 150 -167 64 -159 64 31 c 0
 64 107 98 182 118 215 c 1
 74 271 l 1
 118 327 l 1
 96 361 64 435 64 511 c 0
 64 701 151 709 230 709 c 1
 230 643 l 1
 161 643 134 606 134 513 c 0
EndSplineSet
EndChar
StartChar: bar
Encoding: 124 124 93
Width: 254
GlyphClass: 2
Flags: MW
VStem: 98 58<-150 720>
LayerCount: 2
Back
Fore
SplineSet
156 -150 m 1
 98 -150 l 1
 98 720 l 1
 156 720 l 1
 156 -150 l 1
EndSplineSet
EndChar
StartChar: braceright
Encoding: 125 125 94
Width: 294
GlyphClass: 2
Flags: MW
HStem: -167 66<64 99 64 103.5> 643 66<64 98.5>
VStem: 160 70<-15.5 69 -64 95 473 559.5>
LayerCount: 2
Back
Fore
SplineSet
64 643 m 1
 64 709 l 1
 144 709 230 701 230 511 c 0
 230 435 198 361 176 327 c 1
 220 271 l 1
 176 215 l 1
 196 182 230 107 230 31 c 0
 230 -159 143 -167 64 -167 c 1
 64 -101 l 1
 134 -101 160 -62 160 31 c 0
 160 159 111 182 111 214 c 0
 111 227 120 243 142 271 c 1
 120 299 111 315 111 328 c 0
 111 361 160 386 160 513 c 0
 160 606 133 643 64 643 c 1
EndSplineSet
EndChar
StartChar: asciitilde
Encoding: 126 126 95
Width: 466
GlyphClass: 2
Flags: MW
HStem: 185 55<286 331.5 286 344.5> 265 53<130.5 174.5>
VStem: 50 53<198 203 198 233> 360 57<292 315>
LayerCount: 2
Back
Fore
SplineSet
310 185 m 0
 229 185 202 265 147 265 c 0
 114 265 103 238 103 203 c 0
 103 201 103 200 103 198 c 2
 50 198 l 1
 50 268 82 318 146 318 c 0
 242 318 259 240 313 240 c 0
 350 240 360 269 360 315 c 1
 417 315 l 1
 417 232 379 185 310 185 c 0
EndSplineSet
EndChar
StartChar: exclamdown
Encoding: 161 161 97
Width: 268
GlyphClass: 2
Flags: MW
HStem: 0 21G<90 178 90 90> 602 99<84 184 84 184>
VStem: 84 100<602 701 602 701> 104 60<512 512>
LayerCount: 2
Back
Fore
SplineSet
178 0 m 1xd0
 90 0 l 1
 104 512 l 1
 164 512 l 1
 178 0 l 1xd0
184 602 m 1xe0
 84 602 l 1
 84 701 l 1
 184 701 l 1
 184 602 l 1xe0
EndSplineSet
EndChar
StartChar: cent
Encoding: 162 162 98
Width: 492
GlyphClass: 2
Flags: MW
HStem: -8 70<236 236 294 294> 424 70<236 236 236 294 236 294.5>
VStem: 51 81<199.5 286 199.5 304.5> 236 58<-100 -8 494 586>
LayerCount: 2
Back
Fore
SplineSet
294 -100 m 1
 236 -100 l 1
 236 -8 l 1
 112 8 51 120 51 243 c 0
 51 366 111 479 236 494 c 1
 236 586 l 1
 294 586 l 1
 294 494 l 1
 369 485 428 438 459 366 c 1
 383 335 l 1
 368 391 323 424 266 424 c 0
 167 424 132 329 132 243 c 0
 132 156 166 62 266 62 c 0
 323 62 368 96 383 151 c 1
 453 122 l 1
 427 47 370 0 294 -8 c 1
 294 -100 l 1
EndSplineSet
EndChar
StartChar: sterling
Encoding: 163 163 99
Width: 527
GlyphClass: 2
Flags: MW
HStem: 0 65<111 514 111 514> 310 65<13 102 13 118 13 102 185 185 185 399> 635 65<231.5 300.5>
VStem: 79 65<466.5 536.5 466.5 550.5> 131 64<186 244.5>
LayerCount: 2
Back
Fore
SplineSet
12 58 m 1xe8
 12 58 131 146 131 226 c 0xe8
 131 263 118 310 118 310 c 1
 13 310 l 1
 13 375 l 1
 102 375 l 1
 102 375 79 434 79 496 c 0
 79 605 148 700 272 700 c 0
 362 700 426 637 454 560 c 1
 393 538 l 1
 372 595 329 635 272 635 c 0
 191 635 144 577 144 496 c 0xf0
 144 437 169 375 169 375 c 1
 399 375 l 1
 399 310 l 1
 185 310 l 1
 185 310 195 266 195 227 c 0
 195 129 111 65 111 65 c 1
 514 65 l 1
 514 0 l 1
 12 0 l 1
 12 58 l 1xe8
EndSplineSet
EndChar
StartChar: currency
Encoding: 164 164 100
Width: 554
GlyphClass: 2
Flags: MW
HStem: 105 76<255 299> 433 76<255 299 255 312.5>
VStem: 79 80<285.5 328.5> 395 80<285.5 328.5 285.5 344>
LayerCount: 2
Back
Fore
SplineSet
114 422 m 1
 11 500 l 1
 84 573 l 1
 162 471 l 1
 194 495 233 509 277 509 c 0
 321 509 360 495 392 471 c 1
 477 566 l 1
 550 493 l 1
 440 422 l 1
 462 390 475 350 475 307 c 0
 475 264 462 224 440 192 c 1
 550 107 l 1
 477 34 l 1
 392 143 l 1
 360 119 321 105 277 105 c 0
 233 105 194 119 162 143 c 1
 91 34 l 1
 18 107 l 1
 114 192 l 1
 92 224 79 264 79 307 c 0
 79 350 92 390 114 422 c 1
159 307 m 0
 159 233 206 181 277 181 c 0
 348 181 395 233 395 307 c 0
 395 381 348 433 277 433 c 0
 206 433 159 381 159 307 c 0
EndSplineSet
EndChar
StartChar: yen
Encoding: 165 165 101
Width: 622
GlyphClass: 2
Flags: MW
HStem: 0 21G<270 352 270 270> 83 71<124 270 124 270 352 498> 252 71<124 237 124 270 124 237 385 498> 670 20G<5 103 103 103 519 617 617 617>
VStem: 270 82<0 83 0 83 154 252>
LayerCount: 2
Back
Fore
SplineSet
237 323 m 1
 5 690 l 1
 103 690 l 1
 311 354 l 1
 519 690 l 1
 617 690 l 1
 385 323 l 1
 498 323 l 1
 498 252 l 1
 352 252 l 1
 352 154 l 1
 498 154 l 1
 498 83 l 1
 352 83 l 1
 352 0 l 1
 270 0 l 1
 270 83 l 1
 124 83 l 1
 124 154 l 1
 270 154 l 1
 270 252 l 1
 124 252 l 1
 124 323 l 1
 237 323 l 1
EndSplineSet
EndChar
StartChar: brokenbar
Encoding: 166 166 102
Width: 254
GlyphClass: 2
Flags: MW
VStem: 98 58<-150 205 -150 205 357 720>
LayerCount: 2
Back
Fore
SplineSet
98 357 m 1
 98 720 l 1
 156 720 l 1
 156 357 l 1
 98 357 l 1
156 205 m 1
 156 -150 l 1
 98 -150 l 1
 98 205 l 1
 156 205 l 1
EndSplineSet
EndChar
StartChar: section
Encoding: 167 167 103
Width: 428
GlyphClass: 2
Flags: MW
HStem: -9 69<189.5 250 189.5 268.5> 631 69<191 244>
VStem: 21 67<132 153> 45 70<321 374 321 376> 330 68<552 570> 337 70<107 155 84 196 321 377>
LayerCount: 2
Back
Fore
SplineSet
398 570 m 1xd8
 330 552 l 1
 314 607 272 631 216 631 c 0
 166 631 115 607 115 550 c 0xd8
 115 444 407 531 407 335 c 0
 407 296 391 258 361 232 c 1
 392 209 407 174 407 136 c 0
 407 32 314 -9 223 -9 c 0
 126 -9 50 37 21 132 c 1
 88 153 l 1
 108 86 156 60 223 60 c 0
 277 60 337 74 337 140 c 0xe4
 337 252 45 164 45 356 c 0
 45 396 64 434 94 460 c 1
 63 482 46 517 46 555 c 0
 46 649 131 700 217 700 c 0
 303 700 373 654 398 570 c 1xd8
285 262 m 1
 285 264 l 1
 321 277 337 302 337 340 c 0xd4
 337 414 222 422 169 435 c 1
 135 421 115 392 115 356 c 0
 115 286 235 276 285 262 c 1
EndSplineSet
EndChar
StartChar: dieresis
Encoding: 168 168 104
Width: 283
GlyphClass: 2
Flags: MW
HStem: 596 99<0 90 0 90 193 283>
VStem: 0 90<596 695 596 695> 193 90<596 695 596 695>
LayerCount: 2
Back
Fore
SplineSet
283 695 m 1
 283 596 l 1
 193 596 l 1
 193 695 l 1
 283 695 l 1
90 695 m 1
 90 596 l 1
 0 596 l 1
 0 695 l 1
 90 695 l 1
EndSplineSet
EndChar
StartChar: copyright
Encoding: 169 169 105
Width: 839
GlyphClass: 2
Flags: MW
HStem: -24 62<336.5 503 336.5 522> 144 63 481 62 652 62<336.5 503>
VStem: 50 62 253 61<308 380 308 398.5> 727 62<262 428>
LayerCount: 2
Back
Fore
SplineSet
581 448 m 1
 524 423 l 1
 505 462 471 481 428 481 c 0
 348 481 314 416 314 344 c 0
 314 272 347 208 427 208 c 0
 470 208 504 227 523 266 c 1
 581 241 l 1
 552 179 497 144 428 144 c 0
 311 144 253 235 253 344 c 0
 253 453 311 544 428 544 c 0
 497 544 552 509 581 448 c 1
420 652 m 0
 253 652 113 511 113 345 c 0
 113 179 253 38 420 38 c 0
 586 38 727 179 727 345 c 0
 727 511 586 652 420 652 c 0
420 -24 m 0
 216 -24 50 141 50 345 c 0
 50 549 216 714 420 714 c 0
 624 714 789 549 789 345 c 0
 789 141 624 -24 420 -24 c 0
EndSplineSet
EndChar
StartChar: ordfeminine
Encoding: 170 170 106
Width: 391
GlyphClass: 2
Flags: MW
HStem: 346 48 505 45<171 176 176 276> 654 46<170 221.5>
VStem: 45 57 278 48<412 412>
LayerCount: 2
Back
Fore
SplineSet
276 505 m 1
 176 505 l 2
 135 505 103 484 103 448 c 0
 103 415 138 393 169 393 c 0
 230 393 276 450 276 505 c 1
276 550 m 1
 276 612 253 654 190 654 c 0
 150 654 117 631 101 606 c 1
 59 633 l 1
 92 678 132 700 192 700 c 0
 278 700 326 646 326 563 c 2
 326 353 l 1
 280 353 l 1
 278 412 l 1
 248 366 210 346 156 346 c 0
 96 346 45 386 45 448 c 0
 45 521 98 550 171 550 c 2
 276 550 l 1
EndSplineSet
EndChar
StartChar: guillemotleft
Encoding: 171 171 107
Width: 501
GlyphClass: 2
Flags: MW
HStem: 88 323<254 254 254 431>
LayerCount: 2
Back
Fore
SplineSet
254 329 m 1
 160 249 l 1
 254 170 l 1
 254 88 l 1
 70 249 l 1
 254 411 l 1
 254 329 l 1
431 329 m 1
 337 249 l 1
 431 170 l 1
 431 88 l 1
 247 249 l 1
 431 411 l 1
 431 329 l 1
EndSplineSet
EndChar
StartChar: logicalnot
Encoding: 172 172 108
Width: 581
GlyphClass: 2
Flags: MW
HStem: 318 71<69 502 69 428>
VStem: 428 74<142 318 318 318>
LayerCount: 2
Back
Fore
SplineSet
69 318 m 1
 69 389 l 1
 502 389 l 1
 502 142 l 1
 428 142 l 1
 428 318 l 1
 69 318 l 1
EndSplineSet
EndChar
StartChar: uni00AD
Encoding: 173 173 109
Width: 415
GlyphClass: 2
Flags: MW
HStem: 278 60<45 370 45 370>
VStem: 45 325<278 338 278 338>
LayerCount: 2
Back
Fore
SplineSet
370 338 m 1
 370 278 l 1
 45 278 l 1
 45 338 l 1
 370 338 l 1
EndSplineSet
EndChar
StartChar: registered
Encoding: 174 174 110
Width: 839
GlyphClass: 2
Flags: MW
HStem: -23 58<335 504.5 335 522> 309 58<361 434 361 361> 479 58<355 446 355 355> 657 58<335 504.5>
VStem: 50 58<261 431 261 448> 297 63 517 58<404 443> 731 58<261 431>
LayerCount: 2
Back
Fore
SplineSet
446 479 m 2
 355 479 l 1
 355 367 l 1
 446 367 l 2
 494 367 517 385 517 423 c 0
 517 463 495 479 446 479 c 2
594 147 m 1
 521 147 l 1
 434 309 l 1
 361 309 l 1
 361 147 l 1
 297 147 l 1
 297 537 l 1
 446 537 l 2
 533 537 575 495 575 423 c 0
 575 357 538 325 496 316 c 1
 594 147 l 1
420 657 m 0
 250 657 108 516 108 346 c 0
 108 176 250 35 420 35 c 0
 589 35 731 176 731 346 c 0
 731 516 589 657 420 657 c 0
420 -23 m 0
 216 -23 50 142 50 346 c 0
 50 550 216 715 420 715 c 0
 624 715 789 550 789 346 c 0
 789 142 624 -23 420 -23 c 0
EndSplineSet
EndChar
StartChar: macron
Encoding: 175 175 111
Width: 323
GlyphClass: 2
Flags: MW
HStem: 630 60<0 323 0 323>
VStem: 0 323<630 690 630 690>
LayerCount: 2
Back
Fore
SplineSet
323 690 m 1
 323 630 l 1
 0 630 l 1
 0 690 l 1
 323 690 l 1
EndSplineSet
EndChar
StartChar: degree
Encoding: 176 176 112
Width: 406
GlyphClass: 2
Flags: MW
HStem: 414 50<177.5 228.5 177.5 242.5> 650 50<177.5 228.5>
VStem: 60 50<531.5 582.5 531.5 596.5> 296 50<531.5 582.5>
LayerCount: 2
Back
Fore
SplineSet
110 557 m 0
 110 506 152 464 203 464 c 0
 254 464 296 506 296 557 c 0
 296 608 254 650 203 650 c 0
 152 650 110 608 110 557 c 0
60 557 m 0
 60 636 124 700 203 700 c 0
 282 700 346 636 346 557 c 0
 346 478 282 414 203 414 c 0
 124 414 60 478 60 557 c 0
EndSplineSet
EndChar
StartChar: plusminus
Encoding: 177 177 113
Width: 616
GlyphClass: 2
Flags: MW
HStem: -60 60<56 560 56 560> 275 60<55 278 55 278 338 561>
VStem: 278 60<52 275 52 275 335 558>
LayerCount: 2
Back
Fore
SplineSet
561 335 m 1
 561 275 l 1
 338 275 l 1
 338 52 l 1
 278 52 l 1
 278 275 l 1
 55 275 l 1
 55 335 l 1
 278 335 l 1
 278 558 l 1
 338 558 l 1
 338 335 l 1
 561 335 l 1
560 0 m 1
 560 -60 l 1
 56 -60 l 1
 56 0 l 1
 560 0 l 1
EndSplineSet
EndChar
StartChar: acute
Encoding: 180 180 114
Width: 200
GlyphClass: 2
Flags: MW
HStem: 549 141<0 205 0 205>
VStem: 0 205<549 690>
LayerCount: 2
Back
Fore
SplineSet
205 690 m 1
 82 549 l 1
 0 549 l 1
 105 690 l 1
 205 690 l 1
EndSplineSet
EndChar
StartChar: mu
Encoding: 181 181 115
Width: 563
GlyphClass: 2
Flags: MW
HStem: -11 73<228 282> 0 21G<397 478 397 397> 468 20G<75 156 156 156 397 478 478 478>
VStem: 75 71<-130 488> 75 81<13 13 164.5 198 198 488> 397 81<0 78 78 78 210 488>
LayerCount: 2
Back
Fore
SplineSet
478 0 m 1x6c
 397 0 l 1x6c
 397 78 l 1
 375 37 318 -11 246 -11 c 0
 210 -11 180 -2 156 13 c 1xac
 146 -130 l 1
 75 -130 l 1xb4
 75 488 l 1
 156 488 l 1
 156 198 l 2
 156 131 175 62 254 62 c 0xac
 332 62 397 132 397 210 c 2
 397 488 l 1
 478 488 l 1
 478 208 l 1
 478 0 l 1x6c
EndSplineSet
EndChar
StartChar: periodcentered
Encoding: 183 183 117
Width: 265
GlyphClass: 2
Flags: MW
HStem: 338 125<114.5 149.5>
VStem: 70 125<383.5 418.5>
LayerCount: 2
Back
Fore
SplineSet
70 401 m 0
 70 436 97 463 132 463 c 0
 167 463 195 436 195 401 c 0
 195 366 167 338 132 338 c 0
 97 338 70 366 70 401 c 0
EndSplineSet
EndChar
StartChar: cedilla
Encoding: 184 184 118
Width: 189
GlyphClass: 2
Flags: MW
HStem: -244 51<83 104.5 83 118> -20 20G<81 139 139 139>
VStem: 137 53
LayerCount: 2
Back
Fore
SplineSet
6 -183 m 1
 52 -159 l 1
 55 -177 72 -193 94 -193 c 0
 115 -193 137 -175 137 -150 c 0
 137 -128 118 -115 94 -107 c 2
 35 -88 l 1
 81 0 l 1
 139 0 l 1
 97 -63 l 1
 155 -74 189 -106 189 -146 c 0
 189 -202 142 -244 94 -244 c 0
 51 -244 18 -216 6 -183 c 1
EndSplineSet
EndChar
StartChar: ordmasculine
Encoding: 186 186 119
Width: 419
GlyphClass: 2
Flags: MW
HStem: 347 50 650 50<173 246.5>
VStem: 45 62<490.5 557 490.5 572.5> 312 62<490.5 557>
LayerCount: 2
Back
Fore
SplineSet
107 524 m 0
 107 457 136 398 210 398 c 0
 283 398 312 457 312 524 c 0
 312 590 283 650 210 650 c 0
 136 650 107 590 107 524 c 0
45 524 m 0
 45 621 112 700 210 700 c 0
 307 700 374 621 374 524 c 0
 374 426 307 347 210 347 c 0
 112 347 45 426 45 524 c 0
EndSplineSet
EndChar
StartChar: guillemotright
Encoding: 187 187 120
Width: 501
GlyphClass: 2
Flags: MW
HStem: 88 323<70 70 70 247>
LayerCount: 2
Back
Fore
SplineSet
247 329 m 1
 247 411 l 1
 431 249 l 1
 247 88 l 1
 247 170 l 1
 341 249 l 1
 247 329 l 1
70 329 m 1
 70 411 l 1
 254 249 l 1
 70 88 l 1
 70 170 l 1
 164 249 l 1
 70 329 l 1
EndSplineSet
EndChar
StartChar: questiondown
Encoding: 191 191 121
Width: 504
GlyphClass: 2
Flags: MW
HStem: 0 69<215.5 255> 601 99<200 300 200 300>
VStem: 50 74<140.5 245.5 140.5 263.5> 200 100<601 700 601 700> 216 71<408 513> 379 75<186 186>
LayerCount: 2
Back
Fore
SplineSet
454 186 m 1xec
 453 70 365 1 255 0 c 0
 143 0 50 62 50 180 c 0
 50 347 216 317 216 408 c 2
 216 513 l 1
 287 513 l 1
 287 407 l 2
 287 262 124 313 124 178 c 0
 124 103 180 69 251 69 c 0
 322 69 378 110 379 186 c 1
 454 186 l 1xec
200 601 m 1xf4
 200 700 l 1
 300 700 l 1
 300 601 l 1
 200 601 l 1xf4
EndSplineSet
EndChar
StartChar: Agrave
Encoding: 192 192 122
Width: 636
GlyphClass: 2
Flags: MW
HStem: 0 21G<25 117 25 25 520 520 520 611> 150 76<170 439 198 439 198 467> 670 20G<286 351 351 351> 800 141<155 360 155 277>
VStem: 155 205<800 941>
LayerCount: 2
Back
Fore
SplineSet
155 941 m 1
 255 941 l 1
 360 800 l 1
 277 800 l 1
 155 941 l 1
170 150 m 1
 117 0 l 1
 25 0 l 1
 286 690 l 1
 351 690 l 1
 611 0 l 1
 520 0 l 1
 467 150 l 1
 170 150 l 1
198 226 m 1
 439 226 l 1
 319 566 l 1
 198 226 l 1
EndSplineSet
EndChar
StartChar: Aacute
Encoding: 193 193 123
Width: 636
GlyphClass: 2
Flags: MW
HStem: 0 21G<25 117 25 25 520 520 520 611> 150 76<170 439 198 439 198 467> 670 20G<286 351 351 351> 800 141<277 482 277 482>
VStem: 277 205<800 941>
LayerCount: 2
Back
Fore
SplineSet
482 941 m 1
 360 800 l 1
 277 800 l 1
 382 941 l 1
 482 941 l 1
170 150 m 1
 117 0 l 1
 25 0 l 1
 286 690 l 1
 351 690 l 1
 611 0 l 1
 520 0 l 1
 467 150 l 1
 170 150 l 1
198 226 m 1
 439 226 l 1
 319 566 l 1
 198 226 l 1
EndSplineSet
EndChar
StartChar: Acircumflex
Encoding: 194 194 124
Width: 636
GlyphClass: 2
Flags: MW
HStem: 0 21G<25 117 25 25 520 520 520 611> 150 76<170 439 198 439 198 467> 670 20G<286 351 351 351> 788 184<157 318 157 318 318 480 318 398>
VStem: 157 323<788 788>
LayerCount: 2
Back
Fore
SplineSet
398 788 m 1
 318 882 l 1
 239 788 l 1
 157 788 l 1
 318 972 l 1
 480 788 l 1
 398 788 l 1
170 150 m 1
 117 0 l 1
 25 0 l 1
 286 690 l 1
 351 690 l 1
 611 0 l 1
 520 0 l 1
 467 150 l 1
 170 150 l 1
198 226 m 1
 439 226 l 1
 319 566 l 1
 198 226 l 1
EndSplineSet
EndChar
StartChar: Atilde
Encoding: 195 195 125
Width: 636
GlyphClass: 2
Flags: MW
HStem: 0 21G<25 117 25 25 520 520 520 611> 150 76<170 439 198 439 198 467> 670 20G<286 351 351 351> 800 54<371 416.5 371 429.5> 880 53<215.5 259.5>
VStem: 135 53<813 818 813 848> 445 57<907 930>
LayerCount: 2
Back
Fore
SplineSet
395 800 m 0
 314 800 287 880 232 880 c 0
 199 880 188 852 188 818 c 0
 188 816 188 815 188 813 c 2
 135 813 l 1
 135 883 167 933 231 933 c 0
 327 933 344 854 398 854 c 0
 435 854 445 884 445 930 c 1
 502 930 l 1
 502 847 464 800 395 800 c 0
170 150 m 1
 117 0 l 1
 25 0 l 1
 286 690 l 1
 351 690 l 1
 611 0 l 1
 520 0 l 1
 467 150 l 1
 170 150 l 1
198 226 m 1
 439 226 l 1
 319 566 l 1
 198 226 l 1
EndSplineSet
EndChar
StartChar: Adieresis
Encoding: 196 196 126
Width: 636
GlyphClass: 2
Flags: MW
HStem: 0 21G<25 117 25 25 520 520 520 611> 150 76<170 439 198 439 198 467> 670 20G<286 351 351 351> 800 99<177 267 177 267 370 460>
VStem: 177 90<800 899 800 899> 370 90<800 899 800 899>
LayerCount: 2
Back
Fore
SplineSet
460 899 m 1
 460 800 l 1
 370 800 l 1
 370 899 l 1
 460 899 l 1
267 899 m 1
 267 800 l 1
 177 800 l 1
 177 899 l 1
 267 899 l 1
170 150 m 1
 117 0 l 1
 25 0 l 1
 286 690 l 1
 351 690 l 1
 611 0 l 1
 520 0 l 1
 467 150 l 1
 170 150 l 1
198 226 m 1
 439 226 l 1
 319 566 l 1
 198 226 l 1
EndSplineSet
EndChar
StartChar: AE
Encoding: 198 198 128
Width: 882
GlyphClass: 2
Flags: MW
HStem: 0 77<462 827 462 827> 150 76<158 378 186 378 186 378> 308 74<462 784 462 784> 616 74<330 378 330 330 462 827 462 462>
VStem: 378 84<77 150 150 150 226 308 382 616>
LayerCount: 2
Back
Fore
SplineSet
158 150 m 1
 104 0 l 1
 12 0 l 1
 273 690 l 1
 827 690 l 1
 827 616 l 1
 462 616 l 1
 462 382 l 1
 784 382 l 1
 784 308 l 1
 462 308 l 1
 462 77 l 1
 827 77 l 1
 827 0 l 1
 378 0 l 1
 378 150 l 1
 158 150 l 1
378 226 m 1
 378 616 l 1
 330 616 l 1
 186 226 l 1
 378 226 l 1
EndSplineSet
EndChar
StartChar: Ccedilla
Encoding: 199 199 129
Width: 695
GlyphClass: 2
Flags: MW
HStem: -246 51<343 365 343 378.5> 623 78<288.5 416.5>
VStem: 57 83<273.5 422.5 273.5 441.5> 397 53<-164.5 -141>
LayerCount: 2
Back
Fore
SplineSet
266 -185 m 1
 312 -161 l 1
 316 -178 332 -195 354 -195 c 0
 376 -195 397 -177 397 -152 c 0
 397 -130 378 -116 354 -109 c 2
 296 -90 l 1
 339 -9 l 1
 147 7 57 162 57 345 c 0
 57 538 156 701 370 701 c 0
 499 701 600 637 653 515 c 1
 575 483 l 1
 546 584 464 623 369 623 c 0
 208 623 140 495 140 350 c 0
 140 197 208 68 371 68 c 0
 466 68 537 108 576 209 c 1
 654 177 l 1
 605 63 513 -2 395 -9 c 1
 358 -65 l 1
 415 -76 450 -108 450 -148 c 0
 450 -204 403 -246 354 -246 c 0
 312 -246 279 -218 266 -185 c 1
EndSplineSet
EndChar
StartChar: Egrave
Encoding: 200 200 130
Width: 609
GlyphClass: 2
Flags: MW
HStem: 0 77<179 544 179 544> 308 74<179 501 179 501> 616 74<179 544 179 179> 800 141<156 361 156 278>
VStem: 95 84<77 308 382 616> 156 205<800 941>
LayerCount: 2
Back
Fore
SplineSet
156 941 m 1x14
 256 941 l 1
 361 800 l 1
 278 800 l 1
 156 941 l 1x14
544 0 m 1xe8
 95 0 l 1
 95 690 l 1
 544 690 l 1
 544 616 l 1
 179 616 l 1
 179 382 l 1
 501 382 l 1
 501 308 l 1
 179 308 l 1
 179 77 l 1
 544 77 l 1
 544 0 l 1xe8
EndSplineSet
EndChar
StartChar: Eacute
Encoding: 201 201 131
Width: 609
GlyphClass: 2
Flags: MW
HStem: 0 77<179 544 179 544> 308 74<179 501 179 501> 616 74<179 544 179 179> 800 141<278 483 278 483>
VStem: 95 84<77 308 382 616> 278 205<800 941>
LayerCount: 2
Back
Fore
SplineSet
483 941 m 1
 361 800 l 1
 278 800 l 1
 383 941 l 1
 483 941 l 1
544 0 m 1
 95 0 l 1
 95 690 l 1
 544 690 l 1
 544 616 l 1
 179 616 l 1
 179 382 l 1
 501 382 l 1
 501 308 l 1
 179 308 l 1
 179 77 l 1
 544 77 l 1
 544 0 l 1
EndSplineSet
EndChar
StartChar: Ecircumflex
Encoding: 202 202 132
Width: 609
GlyphClass: 2
Flags: MW
HStem: 0 77<179 544 179 544> 308 74<179 501 179 501> 616 74<179 544 179 179> 788 184<158 320 158 320 320 481 320 399>
VStem: 95 84<77 308 382 616> 158 323<788 788>
LayerCount: 2
Back
Fore
SplineSet
399 788 m 1x14
 320 882 l 1
 240 788 l 1
 158 788 l 1
 320 972 l 1
 481 788 l 1
 399 788 l 1x14
544 0 m 1xe8
 95 0 l 1
 95 690 l 1
 544 690 l 1
 544 616 l 1
 179 616 l 1
 179 382 l 1
 501 382 l 1
 501 308 l 1
 179 308 l 1
 179 77 l 1
 544 77 l 1
 544 0 l 1xe8
EndSplineSet
EndChar
StartChar: Edieresis
Encoding: 203 203 133
Width: 609
GlyphClass: 2
Flags: MW
HStem: 0 77<179 544 179 544> 308 74<179 501 179 501> 616 74<179 544 179 179> 800 99<178 268 178 268 371 461>
VStem: 95 84<77 308 382 616> 178 90<800 899 800 899> 371 90<800 899 800 899>
LayerCount: 2
Back
Fore
SplineSet
461 899 m 1x16
 461 800 l 1
 371 800 l 1
 371 899 l 1
 461 899 l 1x16
268 899 m 1
 268 800 l 1
 178 800 l 1
 178 899 l 1
 268 899 l 1
544 0 m 1xe8
 95 0 l 1
 95 690 l 1
 544 690 l 1
 544 616 l 1
 179 616 l 1
 179 382 l 1
 501 382 l 1
 501 308 l 1
 179 308 l 1
 179 77 l 1
 544 77 l 1
 544 0 l 1xe8
EndSplineSet
EndChar
StartChar: Igrave
Encoding: 204 204 134
Width: 264
GlyphClass: 2
Flags: MW
HStem: 0 21G<90 174 90 90> 670 20G<90 174 174 174> 800 141<-22 183 -22 101>
VStem: -22 205<800 941> 90 84<0 690>
LayerCount: 2
Back
Fore
SplineSet
-22 941 m 1x30
 78 941 l 1
 183 800 l 1
 101 800 l 1
 -22 941 l 1x30
174 0 m 1xc8
 90 0 l 1
 90 690 l 1
 174 690 l 1
 174 0 l 1xc8
EndSplineSet
EndChar
StartChar: Iacute
Encoding: 205 205 135
Width: 264
GlyphClass: 2
Flags: MW
HStem: 0 21G<90 174 90 90> 670 20G<90 174 174 174> 800 141<101 306 101 306>
VStem: 90 84<0 690> 101 205<800 941>
LayerCount: 2
Back
Fore
SplineSet
306 941 m 1x28
 183 800 l 1
 101 800 l 1
 206 941 l 1
 306 941 l 1x28
174 0 m 1xd0
 90 0 l 1
 90 690 l 1
 174 690 l 1
 174 0 l 1xd0
EndSplineSet
EndChar
StartChar: Icircumflex
Encoding: 206 206 136
Width: 264
GlyphClass: 2
Flags: MW
HStem: 0 21G<90 174 90 90> 670 20G<90 174 174 174> 788 184<-19 142 -19 142 142 303 142 221>
VStem: -19 323 90 84<0 690>
LayerCount: 2
Back
Fore
SplineSet
221 788 m 1x30
 142 882 l 1
 63 788 l 1
 -19 788 l 1
 142 972 l 1
 303 788 l 1
 221 788 l 1x30
174 0 m 1xc8
 90 0 l 1
 90 690 l 1
 174 690 l 1
 174 0 l 1xc8
EndSplineSet
EndChar
StartChar: Idieresis
Encoding: 207 207 137
Width: 264
GlyphClass: 2
Flags: MW
HStem: 0 21G<90 174 90 90> 670 20G<90 174 174 174> 800 99<0 90 0 90 194 284>
VStem: 0 90<800 899> 90 84<0 690> 194 90<800 899 800 899>
LayerCount: 2
Back
Fore
SplineSet
284 899 m 1x34
 284 800 l 1
 194 800 l 1
 194 899 l 1
 284 899 l 1x34
90 899 m 1
 90 800 l 1
 0 800 l 1
 0 899 l 1
 90 899 l 1
174 0 m 1xc8
 90 0 l 1
 90 690 l 1
 174 690 l 1
 174 0 l 1xc8
EndSplineSet
EndChar
StartChar: Ntilde
Encoding: 209 209 139
Width: 680
GlyphClass: 2
Flags: MW
HStem: 0 21G<94 178 94 94 474 585 474 474> 670 20G<94 205 205 205 502 585 585 585> 800 54<392 437.5 392 450.5> 880 53<236.5 280.5>
VStem: 94 84<0 583 0 690> 156 53<813 818 813 848> 466 57<907 930> 502 83<107 690>
LayerCount: 2
Back
Fore
SplineSet
416 800 m 0x36
 335 800 308 880 253 880 c 0
 220 880 209 852 209 818 c 0
 209 816 209 815 209 813 c 2
 156 813 l 1
 156 883 188 933 252 933 c 0
 348 933 365 854 419 854 c 0
 456 854 466 884 466 930 c 1
 523 930 l 1
 523 847 485 800 416 800 c 0x36
585 0 m 1xc9
 474 0 l 1
 178 583 l 1
 178 0 l 1
 94 0 l 1
 94 690 l 1
 205 690 l 1
 502 107 l 1
 502 690 l 1
 585 690 l 1
 585 0 l 1xc9
EndSplineSet
EndChar
StartChar: Oacute
Encoding: 211 211 141
Width: 746
GlyphClass: 2
Flags: MW
HStem: -10 77<291.5 454.5 291.5 480> 623 77<291.5 454.5> 800 141<332 537 332 537>
VStem: 60 84<272 418 272 441> 332 205<800 941> 602 84<272 418>
LayerCount: 2
Back
Fore
SplineSet
537 941 m 1
 414 800 l 1
 332 800 l 1
 437 941 l 1
 537 941 l 1
373 623 m 0
 210 623 144 491 144 345 c 0
 144 199 210 67 373 67 c 0
 536 67 602 199 602 345 c 0
 602 491 536 623 373 623 c 0
373 -10 m 0
 159 -10 60 153 60 345 c 0
 60 537 159 700 373 700 c 0
 587 700 686 537 686 345 c 0
 686 153 587 -10 373 -10 c 0
EndSplineSet
EndChar
StartChar: Otilde
Encoding: 213 213 143
Width: 746
GlyphClass: 2
Flags: MW
HStem: -10 77<291.5 454.5 291.5 480> 623 77<291.5 454.5> 800 54<426 471.5 426 484.5> 880 53<270 314.5>
VStem: 60 84<272 418 272 441> 190 53<813 818 813 848> 500 57<907 930> 602 84<272 418>
LayerCount: 2
Back
Fore
SplineSet
450 800 m 0
 369 800 342 880 287 880 c 0
 253 880 243 852 243 818 c 0
 243 816 243 815 243 813 c 2
 190 813 l 1
 190 883 222 933 286 933 c 0
 382 933 399 854 453 854 c 0
 490 854 500 884 500 930 c 1
 557 930 l 1
 557 847 519 800 450 800 c 0
373 623 m 0
 210 623 144 491 144 345 c 0
 144 199 210 67 373 67 c 0
 536 67 602 199 602 345 c 0
 602 491 536 623 373 623 c 0
373 -10 m 0
 159 -10 60 153 60 345 c 0
 60 537 159 700 373 700 c 0
 587 700 686 537 686 345 c 0
 686 153 587 -10 373 -10 c 0
EndSplineSet
EndChar
StartChar: Odieresis
Encoding: 214 214 144
Width: 746
GlyphClass: 2
Flags: MW
HStem: -10 77<291.5 454.5 291.5 480> 623 77<291.5 454.5> 800 99<232 322 232 322 424 514>
VStem: 60 84<272 418 272 441> 232 90<800 899 800 899> 424 90<800 899 800 899> 602 84<272 418>
LayerCount: 2
Back
Fore
SplineSet
514 899 m 1
 514 800 l 1
 424 800 l 1
 424 899 l 1
 514 899 l 1
322 899 m 1
 322 800 l 1
 232 800 l 1
 232 899 l 1
 322 899 l 1
373 623 m 0
 210 623 144 491 144 345 c 0
 144 199 210 67 373 67 c 0
 536 67 602 199 602 345 c 0
 602 491 536 623 373 623 c 0
373 -10 m 0
 159 -10 60 153 60 345 c 0
 60 537 159 700 373 700 c 0
 587 700 686 537 686 345 c 0
 686 153 587 -10 373 -10 c 0
EndSplineSet
EndChar
StartChar: multiply
Encoding: 215 215 145
Width: 616
GlyphClass: 2
Flags: W
LayerCount: 2
Back
Fore
SplineSet
466 505 m 1
 508 463 l 1
 350 305 l 1
 508 147 l 1
 466 105 l 1
 308 263 l 1
 150 105 l 1
 108 147 l 1
 266 305 l 1
 108 463 l 1
 150 505 l 1
 308 347 l 1
 466 505 l 1
EndSplineSet
EndChar
StartChar: Oslash
Encoding: 216 216 146
Width: 736
GlyphClass: 2
Flags: MW
HStem: -10 77<348 449.5 348 475> 0 21G<137 216 137 137> 623 77<286.5 386> 670 20G<507 586 586 586>
VStem: 55 84<304 418 304 441> 597 84<272 388.5>
LayerCount: 2
Back
Fore
SplineSet
368 623 m 0x2c
 205 623 139 491 139 345 c 0
 139 263 160 184 208 132 c 1
 461 605 l 1
 435 617 404 623 368 623 c 0x2c
264 89 m 1
 293 75 328 67 368 67 c 0x8c
 531 67 597 199 597 345 c 0
 597 432 573 514 520 566 c 1
 264 89 l 1
227 19 m 1
 216 0 l 1
 137 0 l 1
 168 58 l 1
 91 123 55 229 55 345 c 0
 55 537 154 700 368 700 c 0x6c
 418 700 461 691 499 675 c 1
 507 690 l 1
 586 690 l 1x1c
 559 640 l 1
 642 575 681 466 681 345 c 0
 681 153 582 -10 368 -10 c 0
 314 -10 267 1 227 19 c 1
EndSplineSet
EndChar
StartChar: Ugrave
Encoding: 217 217 147
Width: 648
GlyphClass: 2
Flags: MW
HStem: -10 80<262 386 262 410.5> 670 20G<80 164 164 164 484 568 568 568> 800 141<160 365 160 283>
VStem: 80 84<283 690> 160 205<800 941> 484 84<283 288 288 690>
LayerCount: 2
Back
Fore
SplineSet
160 941 m 1x28
 260 941 l 1
 365 800 l 1
 283 800 l 1
 160 941 l 1x28
568 690 m 1xd4
 568 288 l 2
 568 112 497 -10 324 -10 c 0
 151 -10 80 112 80 283 c 2
 80 690 l 1
 164 690 l 1
 164 283 l 2
 164 158 200 70 324 70 c 0
 448 70 484 158 484 283 c 2
 484 690 l 1
 568 690 l 1xd4
EndSplineSet
EndChar
StartChar: Uacute
Encoding: 218 218 148
Width: 648
GlyphClass: 2
Flags: MW
HStem: -10 80<262 386 262 410.5> 670 20G<80 164 164 164 484 568 568 568> 800 141<283 488 283 488>
VStem: 80 84<283 690> 283 205<800 941> 484 84<283 288 288 690>
LayerCount: 2
Back
Fore
SplineSet
488 941 m 1x28
 365 800 l 1
 283 800 l 1
 388 941 l 1
 488 941 l 1x28
568 690 m 1xd4
 568 288 l 2
 568 112 497 -10 324 -10 c 0
 151 -10 80 112 80 283 c 2
 80 690 l 1
 164 690 l 1
 164 283 l 2
 164 158 200 70 324 70 c 0
 448 70 484 158 484 283 c 2
 484 690 l 1
 568 690 l 1xd4
EndSplineSet
EndChar
StartChar: Ucircumflex
Encoding: 219 219 149
Width: 648
GlyphClass: 2
Flags: MW
HStem: -10 80<262 386 262 410.5> 670 20G<80 164 164 164 484 568 568 568> 800 184<163 324 163 324 324 485 324 403>
VStem: 80 84<283 690> 163 323 484 84<283 288 288 690>
LayerCount: 2
Back
Fore
SplineSet
403 800 m 1x28
 324 894 l 1
 245 800 l 1
 163 800 l 1
 324 984 l 1
 485 800 l 1
 403 800 l 1x28
568 690 m 1xd4
 568 288 l 2
 568 112 497 -10 324 -10 c 0
 151 -10 80 112 80 283 c 2
 80 690 l 1
 164 690 l 1
 164 283 l 2
 164 158 200 70 324 70 c 0
 448 70 484 158 484 283 c 2
 484 690 l 1
 568 690 l 1xd4
EndSplineSet
EndChar
StartChar: Yacute
Encoding: 221 221 151
Width: 632
GlyphClass: 2
Flags: MW
HStem: 0 21G<275 357 275 275> 670 20G<10 108 108 108 524 622 622 622> 800 141<275 480 275 480>
VStem: 275 82<0 270 0 270> 275 205<800 941>
LayerCount: 2
Back
Fore
SplineSet
480 941 m 1x28
 357 800 l 1
 275 800 l 1
 380 941 l 1
 480 941 l 1x28
622 690 m 1xd0
 357 270 l 1
 357 0 l 1
 275 0 l 1
 275 270 l 1
 10 690 l 1
 108 690 l 1
 316 354 l 1
 524 690 l 1
 622 690 l 1xd0
EndSplineSet
EndChar
StartChar: Thorn
Encoding: 222 222 152
Width: 545
GlyphClass: 2
Flags: MW
HStem: 0 21G<95 178 95 95> 209 76<178 291 178 291> 516 76<178 291 178 291> 670 20G<95 178 178 178>
VStem: 95 83<0 209 0 285 285 516 592 690> 432 83<361.5 436>
LayerCount: 2
Back
Fore
SplineSet
95 690 m 1
 178 690 l 1
 178 592 l 1
 291 592 l 2
 425 592 515 521 515 399 c 0
 515 277 425 209 291 209 c 2
 178 209 l 1
 178 0 l 1
 95 0 l 1
 95 690 l 1
178 516 m 1
 178 285 l 1
 291 285 l 2
 382 285 432 324 432 399 c 0
 432 473 382 516 291 516 c 2
 178 516 l 1
EndSplineSet
EndChar
StartChar: germandbls
Encoding: 223 223 153
Width: 515
GlyphClass: 2
Flags: MW
HStem: -9 78<321.5 361 321.5 386.5> 0 21G<68 158 68 68> 628 72<234.5 307.5>
VStem: 68 89 274 80<338.5 404.5 338.5 419.5> 378 88<498.5 562.5> 416 91
LayerCount: 2
Back
Fore
SplineSet
233 100 m 1xba
 270 79 304 69 339 69 c 0
 383 69 416 102 416 145 c 0xba
 416 244 274 273 274 377 c 0
 274 462 378 461 378 536 c 0
 378 589 344 628 271 628 c 0
 198 628 158 580 158 512 c 2
 158 0 l 1
 68 0 l 1
 68 514 l 2
 68 632 158 700 270 700 c 0
 364 700 466 637 466 532 c 0x7c
 466 432 354 436 354 373 c 0
 354 304 508 283 508 150 c 0
 508 56 434 -9 339 -9 c 0
 288 -9 245 6 200 27 c 1
 233 100 l 1xba
EndSplineSet
EndChar
StartChar: aacute
Encoding: 225 225 155
Width: 521
GlyphClass: 2
Flags: MW
HStem: -10 71<202 246> 0 21G<386 451 386 386> 217 64<230 237 237 378> 425 71<227.5 301.5> 596 141<219 424 219 424>
VStem: 50 82<108.5 162 108.5 188> 219 205<596 737> 378 73<178 217 281 300 0 326> 386 65<0 300>
LayerCount: 2
Back
Fore
SplineSet
424 737 m 1x0a
 301 596 l 1
 219 596 l 1
 324 737 l 1
 424 737 l 1x0a
378 217 m 1xb5
 237 217 l 2
 178 217 132 188 132 136 c 0
 132 81 177 61 227 61 c 0
 314 61 378 139 378 217 c 1xb5
378 281 m 1
 378 371 347 425 256 425 c 0
 199 425 153 392 129 356 c 1
 69 401 l 1
 116 464 174 496 260 496 c 0
 382 496 451 419 451 300 c 2xb5
 451 0 l 1
 386 0 l 1x7480
 380 84 l 1
 337 19 285 -10 207 -10 c 0
 122 -10 50 47 50 136 c 0
 50 240 125 281 230 281 c 2
 378 281 l 1
EndSplineSet
EndChar
StartChar: acircumflex
Encoding: 226 226 156
Width: 521
GlyphClass: 2
Flags: MW
HStem: -10 71<202 246> 0 21G<386 451 386 386> 217 64<230 237 237 378> 425 71<227.5 301.5> 584 184<94 255 94 255 255 416 255 334>
VStem: 50 82<108.5 162 108.5 188> 94 323 378 73<178 217 281 300 0 326> 386 65<0 300>
LayerCount: 2
Back
Fore
SplineSet
334 584 m 1x0a
 255 678 l 1
 176 584 l 1
 94 584 l 1
 255 768 l 1
 416 584 l 1
 334 584 l 1x0a
378 217 m 1xb5
 237 217 l 2
 178 217 132 188 132 136 c 0
 132 81 177 61 227 61 c 0
 314 61 378 139 378 217 c 1xb5
378 281 m 1
 378 371 347 425 256 425 c 0
 199 425 153 392 129 356 c 1
 69 401 l 1
 116 464 174 496 260 496 c 0
 382 496 451 419 451 300 c 2xb5
 451 0 l 1
 386 0 l 1x7480
 380 84 l 1
 337 19 285 -10 207 -10 c 0
 122 -10 50 47 50 136 c 0
 50 240 125 281 230 281 c 2
 378 281 l 1
EndSplineSet
EndChar
StartChar: atilde
Encoding: 227 227 157
Width: 521
GlyphClass: 2
Flags: MW
HStem: -10 71<202 246> 0 21G<386 451 386 386> 217 64<230 237 237 378> 425 71<227.5 301.5> 596 54<313 358.5 313 371.5> 676 53<157 201.5>
VStem: 50 82<108.5 162 108.5 188> 77 53<609 614 609 644> 378 73<178 217 281 300 0 326> 386 65<0 300> 387 57<703 726>
LayerCount: 2
Back
Fore
SplineSet
337 596 m 0x0d20
 256 596 229 676 174 676 c 0
 140 676 130 648 130 614 c 0
 130 612 130 611 130 609 c 2
 77 609 l 1
 77 679 109 729 173 729 c 0
 269 729 286 650 340 650 c 0
 377 650 387 680 387 726 c 1
 444 726 l 1
 444 643 406 596 337 596 c 0x0d20
378 217 m 1xb280
 237 217 l 2
 178 217 132 188 132 136 c 0
 132 81 177 61 227 61 c 0
 314 61 378 139 378 217 c 1xb280
378 281 m 1
 378 371 347 425 256 425 c 0
 199 425 153 392 129 356 c 1
 69 401 l 1
 116 464 174 496 260 496 c 0
 382 496 451 419 451 300 c 2xb280
 451 0 l 1
 386 0 l 1x7240
 380 84 l 1
 337 19 285 -10 207 -10 c 0
 122 -10 50 47 50 136 c 0
 50 240 125 281 230 281 c 2
 378 281 l 1
EndSplineSet
EndChar
StartChar: aring
Encoding: 229 229 159
Width: 521
GlyphClass: 2
Flags: MW
HStem: -10 71<202 246> 0 21G<386 451 386 386> 217 64<230 237 237 378> 425 71<227.5 301.5> 596 49<245.5 273 245.5 287> 742 49<245 273.5>
VStem: 50 82<108.5 162 108.5 188> 162 49<679.5 708.5 679.5 721> 309 49<680 707.5> 378 73<178 217 281 300 0 326> 386 65<0 300>
LayerCount: 2
Back
Fore
SplineSet
211 694 m 0x0d80
 211 665 232 645 259 645 c 0
 287 645 309 666 309 694 c 0
 309 721 288 742 259 742 c 0
 231 742 211 723 211 694 c 0x0d80
162 694 m 0
 162 748 205 791 260 791 c 0
 313 791 358 749 358 694 c 0
 358 640 314 596 260 596 c 0
 205 596 162 640 162 694 c 0
378 217 m 1xb240
 237 217 l 2
 178 217 132 188 132 136 c 0
 132 81 177 61 227 61 c 0
 314 61 378 139 378 217 c 1xb240
378 281 m 1
 378 371 347 425 256 425 c 0
 199 425 153 392 129 356 c 1
 69 401 l 1
 116 464 174 496 260 496 c 0
 382 496 451 419 451 300 c 2xb240
 451 0 l 1
 386 0 l 1x7220
 380 84 l 1
 337 19 285 -10 207 -10 c 0
 122 -10 50 47 50 136 c 0
 50 240 125 281 230 281 c 2
 378 281 l 1
EndSplineSet
EndChar
StartChar: ccedilla
Encoding: 231 231 161
Width: 492
GlyphClass: 2
Flags: MW
HStem: -246 51<239 261 239 274.5> 424 72<216.5 294.5>
VStem: 51 81<199.5 286 199.5 309> 293 53<-164.5 -141>
LayerCount: 2
Back
Fore
SplineSet
162 -185 m 1
 208 -161 l 1
 212 -178 228 -195 250 -195 c 0
 272 -195 293 -177 293 -152 c 0
 293 -130 274 -116 250 -109 c 2
 192 -90 l 1
 235 -8 l 1
 112 8 51 120 51 243 c 0
 51 375 121 496 266 496 c 0
 355 496 424 447 459 366 c 1
 383 335 l 1
 368 391 323 424 266 424 c 0
 167 424 132 329 132 243 c 0
 132 156 166 62 266 62 c 0
 323 62 368 96 383 151 c 1
 453 122 l 1
 427 46 368 -1 291 -9 c 1
 254 -65 l 1
 311 -76 346 -108 346 -148 c 0
 346 -204 299 -246 250 -246 c 0
 208 -246 175 -218 162 -185 c 1
EndSplineSet
EndChar
StartChar: egrave
Encoding: 232 232 162
Width: 520
GlyphClass: 2
Flags: MW
HStem: -6 71<227.5 301 227.5 312.5> 217 64<134 399 134 473 134 399> 424 70<222 309.5> 594 141<101 306 101 224>
VStem: 50 84<217 217 217 281 217 307> 101 205<594 735> 399 76<281 281>
LayerCount: 2
Back
Fore
SplineSet
101 735 m 1x14
 201 735 l 1
 306 594 l 1
 224 594 l 1
 101 735 l 1x14
265 424 m 0xea
 179 424 138 359 134 281 c 1
 399 281 l 1
 397 365 354 424 265 424 c 0xea
463 72 m 1
 409 15 351 -6 274 -6 c 0
 124 -6 50 108 50 241 c 0
 50 373 120 494 265 494 c 0
 427 494 475 371 475 237 c 0
 475 230 473 217 473 217 c 1
 134 217 l 1
 135 135 182 65 273 65 c 0
 329 65 370 76 409 116 c 1
 463 72 l 1
EndSplineSet
EndChar
StartChar: edieresis
Encoding: 235 235 165
Width: 520
GlyphClass: 2
Flags: MW
HStem: -6 71<227.5 301 227.5 312.5> 217 64<134 399 134 473 134 399> 424 70<222 309.5> 594 99<124 214 124 214 317 407>
VStem: 50 84<217 217 217 281 217 307> 124 90<594 693 594 693> 317 90<594 693 594 693> 399 76<281 281>
LayerCount: 2
Back
Fore
SplineSet
407 693 m 1x16
 407 594 l 1
 317 594 l 1
 317 693 l 1
 407 693 l 1x16
214 693 m 1
 214 594 l 1
 124 594 l 1
 124 693 l 1
 214 693 l 1
265 424 m 0xe9
 179 424 138 359 134 281 c 1
 399 281 l 1
 397 365 354 424 265 424 c 0xe9
463 72 m 1
 409 15 351 -6 274 -6 c 0
 124 -6 50 108 50 241 c 0
 50 373 120 494 265 494 c 0
 427 494 475 371 475 237 c 0
 475 230 473 217 473 217 c 1
 134 217 l 1
 135 135 182 65 273 65 c 0
 329 65 370 76 409 116 c 1
 463 72 l 1
EndSplineSet
EndChar
StartChar: igrave
Encoding: 236 236 166
Width: 255
GlyphClass: 2
Flags: MW
HStem: 0 21G<86 170 86 86> 468 20G<86 170 170 170> 594 141<-36 169 -36 87>
VStem: -36 205<594 735> 86 84<0 488>
LayerCount: 2
Back
Fore
SplineSet
-36 735 m 1x30
 64 735 l 1
 169 594 l 1
 87 594 l 1
 -36 735 l 1x30
170 0 m 1xc8
 86 0 l 1
 86 488 l 1
 170 488 l 1
 170 0 l 1xc8
EndSplineSet
EndChar
StartChar: iacute
Encoding: 237 237 167
Width: 255
GlyphClass: 2
Flags: MW
HStem: 0 21G<86 170 86 86> 468 20G<86 170 170 170> 594 141<87 292 87 292>
VStem: 86 84<0 488> 87 205<594 735>
LayerCount: 2
Back
Fore
SplineSet
292 735 m 1x28
 169 594 l 1
 87 594 l 1
 192 735 l 1
 292 735 l 1x28
170 0 m 1xd0
 86 0 l 1
 86 488 l 1
 170 488 l 1
 170 0 l 1xd0
EndSplineSet
EndChar
StartChar: icircumflex
Encoding: 238 238 168
Width: 255
GlyphClass: 2
Flags: MW
HStem: 0 21G<86 170 86 86> 468 20G<86 170 170 170> 582 184<-33 128 -33 128 128 289 128 207>
VStem: -33 323 86 84<0 488>
LayerCount: 2
Back
Fore
SplineSet
207 582 m 1x30
 128 676 l 1
 49 582 l 1
 -33 582 l 1
 128 766 l 1
 289 582 l 1
 207 582 l 1x30
170 0 m 1xc8
 86 0 l 1
 86 488 l 1
 170 488 l 1
 170 0 l 1xc8
EndSplineSet
EndChar
StartChar: idieresis
Encoding: 239 239 169
Width: 255
GlyphClass: 2
Flags: MW
HStem: 0 21G<86 170 86 86> 468 20G<86 170 170 170> 594 99<-14 76 -14 76 180 270>
VStem: -14 90<594 693 594 693> 86 84<0 488> 180 90<594 693 594 693>
CounterMasks: 1 1c
LayerCount: 2
Back
Fore
SplineSet
270 693 m 1
 270 594 l 1
 180 594 l 1
 180 693 l 1
 270 693 l 1
76 693 m 1
 76 594 l 1
 -14 594 l 1
 -14 693 l 1
 76 693 l 1
170 0 m 1
 86 0 l 1
 86 488 l 1
 170 488 l 1
 170 0 l 1
EndSplineSet
EndChar
StartChar: eth
Encoding: 240 240 170
Width: 580
GlyphClass: 2
Flags: MW
HStem: -8 73<238 342 238 365> 439 73<238 314.5 215 340.5>
VStem: 56 83 442 83
LayerCount: 2
Back
Fore
SplineSet
290 439 m 0
 186 439 138 346 138 252 c 0
 138 158 186 65 290 65 c 0
 394 65 442 158 442 252 c 0
 442 350 391 439 290 439 c 0
335 668 m 1
 436 599 524 484 524 252 c 0
 524 115 440 -8 290 -8 c 0
 140 -8 56 115 56 252 c 0
 56 389 140 512 290 512 c 0
 339 512 384 490 406 464 c 1
 392 529 349 575 297 611 c 1
 254 546 l 1
 197 586 l 1
 237 645 l 1
 204 662 172 674 155 681 c 1
 194 740 l 1
 220 729 248 717 276 703 c 1
 310 754 l 1
 366 714 l 1
 335 668 l 1
EndSplineSet
EndChar
StartChar: ntilde
Encoding: 241 241 171
Width: 564
GlyphClass: 2
Flags: MW
HStem: 1 20G 420 76<293 353.5> 468 20G<92 172 172 172> 596 54<345 390.5 345 403.5> 676 53<189 233.5>
VStem: 92 80<1 275 413 488> 109 53<609 614 609 644> 413 80<0 287 287 297> 419 57<703 726>
LayerCount: 2
Back
Fore
SplineSet
369 596 m 0x1a80
 288 596 261 676 206 676 c 0
 172 676 162 648 162 614 c 0
 162 612 162 611 162 609 c 2
 109 609 l 1
 109 679 141 729 205 729 c 0
 301 729 318 650 372 650 c 0
 409 650 419 680 419 726 c 1
 476 726 l 1
 476 643 438 596 369 596 c 0x1a80
493 0 m 1xc5
 413 0 l 1
 413 287 l 2
 413 354 393 420 314 420 c 0xc5
 236 420 172 353 172 275 c 2
 172 1 l 1
 92 1 l 1
 92 488 l 1
 172 488 l 1xa5
 172 413 l 1
 204 464 263 496 323 496 c 0
 446 496 493 402 493 297 c 2
 493 0 l 1xc5
EndSplineSet
EndChar
StartChar: ograve
Encoding: 242 242 172
Width: 570
GlyphClass: 2
Flags: MW
HStem: -10 72<232.5 337.5 232.5 354.5> 422 72<232.5 337.5> 594 141<121 326 121 244>
VStem: 50 89<194.5 289.5 194.5 311.5> 121 205<594 735> 431 89<194.5 289.5>
LayerCount: 2
Back
Fore
SplineSet
121 735 m 1x28
 221 735 l 1
 326 594 l 1
 244 594 l 1
 121 735 l 1x28
139 242 m 0xd4
 139 147 180 62 285 62 c 0
 390 62 431 147 431 242 c 0
 431 337 390 422 285 422 c 0
 180 422 139 337 139 242 c 0xd4
50 242 m 0
 50 381 146 494 285 494 c 0
 424 494 520 381 520 242 c 0
 520 103 424 -10 285 -10 c 0
 146 -10 50 103 50 242 c 0
EndSplineSet
EndChar
StartChar: oacute
Encoding: 243 243 173
Width: 570
GlyphClass: 2
Flags: MW
HStem: -10 72<232.5 337.5 232.5 354.5> 422 72<232.5 337.5> 594 141<244 449 244 449>
VStem: 50 89<194.5 289.5 194.5 311.5> 244 205<594 735> 431 89<194.5 289.5>
LayerCount: 2
Back
Fore
SplineSet
449 735 m 1x28
 326 594 l 1
 244 594 l 1
 349 735 l 1
 449 735 l 1x28
139 242 m 0xd4
 139 147 180 62 285 62 c 0
 390 62 431 147 431 242 c 0
 431 337 390 422 285 422 c 0
 180 422 139 337 139 242 c 0xd4
50 242 m 0
 50 381 146 494 285 494 c 0
 424 494 520 381 520 242 c 0
 520 103 424 -10 285 -10 c 0
 146 -10 50 103 50 242 c 0
EndSplineSet
EndChar
StartChar: otilde
Encoding: 245 245 175
Width: 570
GlyphClass: 2
Flags: MW
HStem: -10 72<232.5 337.5 232.5 354.5> 422 72<232.5 337.5> 594 54<338 383.5 338 396.5> 674 53<182 226.5>
VStem: 50 89<194.5 289.5 194.5 311.5> 102 53<607 612 607 642> 412 57<701 724> 431 89<194.5 289.5>
LayerCount: 2
Back
Fore
SplineSet
362 594 m 0x36
 281 594 254 674 199 674 c 0
 165 674 155 646 155 612 c 0
 155 610 155 609 155 607 c 2
 102 607 l 1
 102 677 134 727 198 727 c 0
 294 727 311 648 365 648 c 0
 402 648 412 678 412 724 c 1
 469 724 l 1
 469 641 431 594 362 594 c 0x36
139 242 m 0xc9
 139 147 180 62 285 62 c 0
 390 62 431 147 431 242 c 0
 431 337 390 422 285 422 c 0
 180 422 139 337 139 242 c 0xc9
50 242 m 0
 50 381 146 494 285 494 c 0
 424 494 520 381 520 242 c 0
 520 103 424 -10 285 -10 c 0
 146 -10 50 103 50 242 c 0
EndSplineSet
EndChar
StartChar: odieresis
Encoding: 246 246 176
Width: 570
GlyphClass: 2
Flags: MW
HStem: -10 72<232.5 337.5 232.5 354.5> 422 72<232.5 337.5> 594 99<144 234 144 234 336 426>
VStem: 50 89<194.5 289.5 194.5 311.5> 144 90<594 693 594 693> 336 90<594 693 594 693> 431 89<194.5 289.5>
LayerCount: 2
Back
Fore
SplineSet
426 693 m 1
 426 594 l 1
 336 594 l 1
 336 693 l 1
 426 693 l 1
234 693 m 1
 234 594 l 1
 144 594 l 1
 144 693 l 1
 234 693 l 1
139 242 m 0
 139 147 180 62 285 62 c 0
 390 62 431 147 431 242 c 0
 431 337 390 422 285 422 c 0
 180 422 139 337 139 242 c 0
50 242 m 0
 50 381 146 494 285 494 c 0
 424 494 520 381 520 242 c 0
 520 103 424 -10 285 -10 c 0
 146 -10 50 103 50 242 c 0
EndSplineSet
EndChar
StartChar: divide
Encoding: 247 247 177
Width: 506
GlyphClass: 2
Flags: MW
HStem: 0 99<203 303 203 303> 207 60<70 436 70 436> 367 99<203 303 203 303>
VStem: 203 100<0 99 0 99 367 466>
LayerCount: 2
Back
Fore
SplineSet
436 267 m 1
 436 207 l 1
 70 207 l 1
 70 267 l 1
 436 267 l 1
303 99 m 1
 303 0 l 1
 203 0 l 1
 203 99 l 1
 303 99 l 1
303 466 m 1
 303 367 l 1
 203 367 l 1
 203 466 l 1
 303 466 l 1
EndSplineSet
EndChar
StartChar: oslash
Encoding: 248 248 178
Width: 560
GlyphClass: 2
Flags: MW
HStem: -10 72<269.5 332.5 269.5 349.5> 422 72<227.5 289>
VStem: 45 89<217.5 289.5 217.5 311.5> 426 89<194.5 267.5>
LayerCount: 2
Back
Fore
SplineSet
45 242 m 0
 45 381 141 494 280 494 c 0
 310 494 338 489 364 479 c 1
 379 508 l 1
 459 508 l 1
 425 444 l 1
 481 398 515 325 515 242 c 0
 515 103 419 -10 280 -10 c 0
 248 -10 218 -4 191 7 c 1
 176 -20 l 1
 97 -20 l 1
 131 44 l 1
 77 90 45 162 45 242 c 0
387 375 m 1
 225 71 l 1
 241 65 259 62 280 62 c 0
 385 62 426 147 426 242 c 0
 426 293 414 341 387 375 c 1
329 415 m 1
 315 419 298 422 280 422 c 0
 175 422 134 337 134 242 c 0
 134 193 145 148 169 115 c 1
 329 415 l 1
EndSplineSet
EndChar
StartChar: ugrave
Encoding: 249 249 179
Width: 573
GlyphClass: 2
Flags: MW
HStem: -11 73<219.5 287> 0 21G<402 482 402 402> 468 20G<81 161 161 161 402 482 482 482> 594 141<118 323 118 240>
VStem: 81 80<198 488> 118 205<594 735> 402 80<0 78 78 78 210 488>
LayerCount: 2
Back
Fore
SplineSet
118 735 m 1x14
 218 735 l 1
 323 594 l 1
 240 594 l 1
 118 735 l 1x14
482 0 m 1x6a
 402 0 l 1x6a
 402 78 l 1
 380 37 323 -11 251 -11 c 0
 128 -11 81 88 81 198 c 2
 81 488 l 1
 161 488 l 1
 161 198 l 2
 161 131 180 62 259 62 c 0xaa
 337 62 402 132 402 210 c 2
 402 488 l 1
 482 488 l 1
 482 0 l 1x6a
EndSplineSet
EndChar
StartChar: uacute
Encoding: 250 250 180
Width: 573
GlyphClass: 2
Flags: MW
HStem: -11 73<219.5 287> 0 21G<402 482 402 402> 468 20G<81 161 161 161 402 482 482 482> 594 141<240 445 240 445>
VStem: 81 80<198 488> 240 205<594 735> 402 80<0 78 78 78 210 488>
LayerCount: 2
Back
Fore
SplineSet
445 735 m 1x14
 323 594 l 1
 240 594 l 1
 345 735 l 1
 445 735 l 1x14
482 0 m 1x6a
 402 0 l 1x6a
 402 78 l 1
 380 37 323 -11 251 -11 c 0
 128 -11 81 88 81 198 c 2
 81 488 l 1
 161 488 l 1
 161 198 l 2
 161 131 180 62 259 62 c 0xaa
 337 62 402 132 402 210 c 2
 402 488 l 1
 482 488 l 1
 482 0 l 1x6a
EndSplineSet
EndChar
StartChar: ucircumflex
Encoding: 251 251 181
Width: 573
GlyphClass: 2
Flags: MW
HStem: -11 73<219.5 287> 0 21G<402 482 402 402> 468 20G<81 161 161 161 402 482 482 482> 582 184<120 282 120 282 282 443 282 361>
VStem: 81 80<198 488> 120 323<582 582> 402 80<0 78 78 78 210 488>
LayerCount: 2
Back
Fore
SplineSet
361 582 m 1x14
 282 676 l 1
 202 582 l 1
 120 582 l 1
 282 766 l 1
 443 582 l 1
 361 582 l 1x14
482 0 m 1x6a
 402 0 l 1x6a
 402 78 l 1
 380 37 323 -11 251 -11 c 0
 128 -11 81 88 81 198 c 2
 81 488 l 1
 161 488 l 1
 161 198 l 2
 161 131 180 62 259 62 c 0xaa
 337 62 402 132 402 210 c 2
 402 488 l 1
 482 488 l 1
 482 0 l 1x6a
EndSplineSet
EndChar
StartChar: yacute
Encoding: 253 253 183
Width: 487
GlyphClass: 2
Flags: MW
HStem: 468 20G<20 108 108 108 384 472 472 472> 594 141<205 410 205 410>
VStem: 205 205<594 735>
LayerCount: 2
Back
Fore
SplineSet
410 735 m 1
 287 594 l 1
 205 594 l 1
 310 735 l 1
 410 735 l 1
472 488 m 1
 208 -210 l 1
 125 -210 l 1
 207 5 l 1
 20 488 l 1
 108 488 l 1
 247 98 l 1
 384 488 l 1
 472 488 l 1
EndSplineSet
EndChar
StartChar: thorn
Encoding: 254 254 184
Width: 582
GlyphClass: 2
Flags: MW
HStem: -10 73<294 355.5 260.5 392> 424 74<294 355.5> 670 20G<95 178 178 178>
VStem: 95 75<195 292.5 195 690> 95 83<-214 65 423 690> 446 81
LayerCount: 2
Back
Fore
SplineSet
95 -214 m 1xec
 95 690 l 1
 178 690 l 1
 178 423 l 1
 210 469 260 498 328 498 c 0
 456 498 526 384 526 244 c 0
 526 104 456 -10 328 -10 c 0
 260 -10 210 19 178 65 c 1
 178 -214 l 1
 95 -214 l 1xec
446 244 m 0
 446 341 403 424 308 424 c 0
 213 424 170 341 170 244 c 0xf4
 170 146 213 63 308 63 c 0
 403 63 446 146 446 244 c 0
EndSplineSet
EndChar
StartChar: ydieresis
Encoding: 255 255 185
Width: 487
GlyphClass: 2
Flags: MW
HStem: 468 20G<20 108 108 108 384 472 472 472> 594 99<104 194 104 194 298 388>
VStem: 104 90<594 693 594 693> 298 90<594 693 594 693>
LayerCount: 2
Back
Fore
SplineSet
388 693 m 1
 388 594 l 1
 298 594 l 1
 298 693 l 1
 388 693 l 1
194 693 m 1
 194 594 l 1
 104 594 l 1
 104 693 l 1
 194 693 l 1
472 488 m 1
 208 -210 l 1
 125 -210 l 1
 207 5 l 1
 20 488 l 1
 108 488 l 1
 247 98 l 1
 384 488 l 1
 472 488 l 1
EndSplineSet
EndChar
StartChar: Amacron
Encoding: 256 256 186
Width: 636
GlyphClass: 2
Flags: MW
HStem: 0 21G<25 117 25 25 520 520 520 611> 150 76<170 439 198 439 198 467> 670 20G<286 351 351 351> 800 60<157 480 157 480>
VStem: 157 323<800 860 800 860>
LayerCount: 2
Back
Fore
SplineSet
480 860 m 1
 480 800 l 1
 157 800 l 1
 157 860 l 1
 480 860 l 1
170 150 m 1
 117 0 l 1
 25 0 l 1
 286 690 l 1
 351 690 l 1
 611 0 l 1
 520 0 l 1
 467 150 l 1
 170 150 l 1
198 226 m 1
 439 226 l 1
 319 566 l 1
 198 226 l 1
EndSplineSet
EndChar
StartChar: Abreve
Encoding: 258 258 188
Width: 636
GlyphClass: 2
Flags: MW
HStem: 0 21G<25 117 25 25 520 520 520 611> 150 76<170 439 198 439 198 467> 670 20G<286 351 351 351> 800 54<295 341.5 295 361> 912 20G<170 234 234 234 404 468 468 468>
VStem: 170 64<908.5 932 908.5 932> 404 64<908.5 932>
LayerCount: 2
Back
Fore
SplineSet
404 932 m 1
 468 932 l 1
 468 847 404 800 318 800 c 0
 233 800 170 847 170 932 c 1
 234 932 l 1
 234 885 272 854 318 854 c 0
 365 854 404 885 404 932 c 1
170 150 m 1
 117 0 l 1
 25 0 l 1
 286 690 l 1
 351 690 l 1
 611 0 l 1
 520 0 l 1
 467 150 l 1
 170 150 l 1
198 226 m 1
 439 226 l 1
 319 566 l 1
 198 226 l 1
EndSplineSet
EndChar
StartChar: abreve
Encoding: 259 259 189
Width: 521
GlyphClass: 2
Flags: MW
HStem: -10 71<202 246> 0 21G<386 451 386 386> 217 64<230 237 237 378> 425 71<227.5 301.5> 596 54<236.5 283.5 236.5 302.5> 708 20G<111 175 175 175 345 409 409 409>
VStem: 50 82<108.5 162 108.5 188> 111 64<704.5 728 704.5 728> 345 64<704.5 728> 378 73<178 217 281 300 0 326> 386 65<0 300>
LayerCount: 2
Back
Fore
SplineSet
345 728 m 1x0d80
 409 728 l 1
 409 643 345 596 260 596 c 0
 175 596 111 643 111 728 c 1
 175 728 l 1
 175 681 213 650 260 650 c 0
 307 650 345 681 345 728 c 1x0d80
378 217 m 1xb240
 237 217 l 2
 178 217 132 188 132 136 c 0
 132 81 177 61 227 61 c 0
 314 61 378 139 378 217 c 1xb240
378 281 m 1
 378 371 347 425 256 425 c 0
 199 425 153 392 129 356 c 1
 69 401 l 1
 116 464 174 496 260 496 c 0
 382 496 451 419 451 300 c 2xb240
 451 0 l 1
 386 0 l 1x7220
 380 84 l 1
 337 19 285 -10 207 -10 c 0
 122 -10 50 47 50 136 c 0
 50 240 125 281 230 281 c 2
 378 281 l 1
EndSplineSet
EndChar
StartChar: Aogonek
Encoding: 260 260 190
Width: 636
GlyphClass: 2
Flags: MW
HStem: -210 53<526.5 552 526.5 567.5> 0 21G<25 117 25 25 584.5 611> 150 76<198 439 198 467 170 439> 670 20G<286 351 351 351>
VStem: 444 51<-121 -75 -121 -74.5>
LayerCount: 2
Back
Fore
SplineSet
543 -210 m 0
 486 -210 444 -172 444 -111 c 0
 444 -38 508 3 517 9 c 1
 467 150 l 1
 170 150 l 1
 117 0 l 1
 25 0 l 1
 286 690 l 1
 351 690 l 1
 611 0 l 1
 558 0 495 -46 495 -104 c 0
 495 -138 515 -157 538 -157 c 0
 566 -157 584 -147 599 -126 c 1
 643 -155 l 1
 621 -189 592 -210 543 -210 c 0
198 226 m 1
 439 226 l 1
 319 566 l 1
 198 226 l 1
EndSplineSet
EndChar
StartChar: aogonek
Encoding: 261 261 191
Width: 521
GlyphClass: 2
Flags: MW
HStem: -219 53<381.5 407 381.5 422.5> -10 71<202 247> 217 64<230 237 237 378> 425 71<227.5 301.5>
VStem: 50 82<108.5 162 108.5 188> 299 51<-130 -81> 378 73<178 217 281 300 0 326>
LayerCount: 2
Back
Fore
SplineSet
378 217 m 1
 237 217 l 2
 178 217 132 188 132 136 c 0
 132 81 177 61 227 61 c 0
 314 61 378 139 378 217 c 1
378 281 m 1
 378 371 347 425 256 425 c 0
 199 425 153 392 129 356 c 1
 69 401 l 1
 116 464 174 496 260 496 c 0
 382 496 451 419 451 300 c 2
 451 0 l 1
 451 0 350 -38 350 -113 c 0
 350 -147 370 -166 393 -166 c 0
 421 -166 439 -156 454 -135 c 1
 498 -164 l 1
 476 -198 447 -219 398 -219 c 0
 341 -219 299 -181 299 -120 c 0
 299 -42 386 0 386 0 c 1
 380 84 l 1
 337 19 286 -10 208 -10 c 0
 123 -10 50 47 50 136 c 0
 50 240 125 281 230 281 c 2
 378 281 l 1
EndSplineSet
EndChar
StartChar: cacute
Encoding: 263 263 193
Width: 502
GlyphClass: 2
Flags: MW
HStem: -10 72<221 299.5 221 316.5> 424 72<221.5 299.5> 596 141<230 435 230 435>
VStem: 56 81<199.5 286 199.5 309> 230 205<596 737>
LayerCount: 2
Back
Fore
SplineSet
435 737 m 1
 312 596 l 1
 230 596 l 1
 335 737 l 1
 435 737 l 1
272 -10 m 0
 127 -10 56 110 56 243 c 0
 56 375 126 496 271 496 c 0
 360 496 429 447 464 366 c 1
 388 335 l 1
 373 391 328 424 271 424 c 0
 172 424 137 329 137 243 c 0
 137 156 171 62 271 62 c 0
 328 62 373 96 388 151 c 1
 458 122 l 1
 429 38 361 -10 272 -10 c 0
EndSplineSet
EndChar
StartChar: ccircumflex
Encoding: 265 265 195
Width: 502
GlyphClass: 2
Flags: MW
HStem: -10 72<221 299.5 221 316.5> 424 72<221.5 299.5> 584 184<110 271 110 271 271 432 271 350>
VStem: 56 81<199.5 286 199.5 309> 110 323
LayerCount: 2
Back
Fore
SplineSet
350 584 m 1x28
 271 678 l 1
 192 584 l 1
 110 584 l 1
 271 768 l 1
 432 584 l 1
 350 584 l 1x28
272 -10 m 0xd0
 127 -10 56 110 56 243 c 0
 56 375 126 496 271 496 c 0
 360 496 429 447 464 366 c 1
 388 335 l 1
 373 391 328 424 271 424 c 0
 172 424 137 329 137 243 c 0
 137 156 171 62 271 62 c 0
 328 62 373 96 388 151 c 1
 458 122 l 1
 429 38 361 -10 272 -10 c 0xd0
EndSplineSet
EndChar
StartChar: Cdotaccent
Encoding: 266 266 196
Width: 705
GlyphClass: 2
Flags: MW
HStem: -10 78<294.5 423.5 294.5 440.5> 623 78<293.5 421.5> 801 125<357 392>
VStem: 62 83<273.5 422.5 273.5 441.5> 312 125
LayerCount: 2
Back
Fore
SplineSet
312 864 m 0
 312 899 340 926 374 926 c 0
 410 926 438 899 438 864 c 0
 438 829 410 801 374 801 c 0
 340 801 312 829 312 864 c 0
376 68 m 0
 471 68 542 108 581 209 c 1
 659 177 l 1
 607 55 505 -10 376 -10 c 0
 162 -10 62 152 62 345 c 0
 62 538 161 701 375 701 c 0
 504 701 605 637 658 515 c 1
 580 483 l 1
 551 584 469 623 374 623 c 0
 213 623 145 495 145 350 c 0
 145 197 213 68 376 68 c 0
EndSplineSet
EndChar
StartChar: cdotaccent
Encoding: 267 267 197
Width: 502
GlyphClass: 2
Flags: MW
HStem: -10 72<221 299.5 221 316.5> 424 72<221.5 299.5> 596 125<253 288>
VStem: 56 81<199.5 286 199.5 309> 208 125
LayerCount: 2
Back
Fore
SplineSet
208 659 m 0
 208 694 236 721 270 721 c 0
 306 721 334 694 334 659 c 0
 334 624 306 596 270 596 c 0
 236 596 208 624 208 659 c 0
272 -10 m 0
 127 -10 56 110 56 243 c 0
 56 375 126 496 271 496 c 0
 360 496 429 447 464 366 c 1
 388 335 l 1
 373 391 328 424 271 424 c 0
 172 424 137 329 137 243 c 0
 137 156 171 62 271 62 c 0
 328 62 373 96 388 151 c 1
 458 122 l 1
 429 38 361 -10 272 -10 c 0
EndSplineSet
EndChar
StartChar: Ccaron
Encoding: 268 268 198
Width: 705
GlyphClass: 2
Flags: MW
HStem: -10 78<294.5 423.5 294.5 440.5> 623 78<293.5 421.5> 801 184<214 375>
VStem: 62 83<273.5 422.5 273.5 441.5> 214 323
LayerCount: 2
Back
Fore
SplineSet
454 985 m 1
 536 985 l 1
 375 801 l 1
 214 985 l 1
 296 985 l 1
 375 891 l 1
 454 985 l 1
376 68 m 0
 471 68 542 108 581 209 c 1
 659 177 l 1
 607 55 505 -10 376 -10 c 0
 162 -10 62 152 62 345 c 0
 62 538 161 701 375 701 c 0
 504 701 605 637 658 515 c 1
 580 483 l 1
 551 584 469 623 374 623 c 0
 213 623 145 495 145 350 c 0
 145 197 213 68 376 68 c 0
EndSplineSet
EndChar
StartChar: ccaron
Encoding: 269 269 199
Width: 502
GlyphClass: 2
Flags: MW
HStem: -10 72<221 299.5 221 316.5> 424 72<221.5 299.5> 596 184<110 271>
VStem: 56 81<199.5 286 199.5 309> 110 323
LayerCount: 2
Back
Fore
SplineSet
350 780 m 1x28
 432 780 l 1
 271 596 l 1
 110 780 l 1
 192 780 l 1
 271 686 l 1
 350 780 l 1x28
272 -10 m 0xd0
 127 -10 56 110 56 243 c 0
 56 375 126 496 271 496 c 0
 360 496 429 447 464 366 c 1
 388 335 l 1
 373 391 328 424 271 424 c 0
 172 424 137 329 137 243 c 0
 137 156 171 62 271 62 c 0
 328 62 373 96 388 151 c 1
 458 122 l 1
 429 38 361 -10 272 -10 c 0xd0
EndSplineSet
EndChar
StartChar: Dcaron
Encoding: 270 270 200
Width: 681
GlyphClass: 2
Flags: MW
HStem: 0 77<174 257 257 269> 614 76<174 268 174 174> 800 184<193 354>
VStem: 90 84<77 77 77 614> 193 323<984 984> 534 85<340 433>
LayerCount: 2
Back
Fore
SplineSet
434 984 m 1
 516 984 l 1
 354 800 l 1
 193 984 l 1
 275 984 l 1
 354 890 l 1
 434 984 l 1
174 77 m 1
 257 77 l 2
 416 77 534 157 534 345 c 0
 534 521 448 614 268 614 c 2
 174 614 l 1
 174 77 l 1
619 340 m 0
 618 122 492 0 269 0 c 2
 90 0 l 1
 90 690 l 1
 270 690 l 2
 495 690 619 567 619 340 c 0
EndSplineSet
EndChar
StartChar: dcaron
Encoding: 271 271 201
Width: 580
GlyphClass: 2
Flags: MW
HStem: -10 73<224.5 286> 0 21G<402 482 402 402> 424 74<224.5 286 188 319.5> 501 189<402 579 402 529> 670 20G<402 482 482 482 589 689 689 689>
VStem: 54 81 402 80<0 65 65 65 423 690> 529 160
LayerCount: 2
Back
Fore
SplineSet
689 690 m 1x11
 579 501 l 1
 529 501 l 1
 589 690 l 1
 689 690 l 1x11
482 0 m 1x6e
 402 0 l 1x6e
 402 65 l 1
 370 19 320 -10 252 -10 c 0xae
 124 -10 54 104 54 244 c 0
 54 384 124 498 252 498 c 0
 320 498 370 469 402 423 c 1
 402 690 l 1
 482 690 l 1
 482 0 l 1x6e
134 244 m 0
 134 146 177 63 272 63 c 0xae
 367 63 407 146 407 244 c 0
 407 341 367 424 272 424 c 0
 177 424 134 341 134 244 c 0
EndSplineSet
EndChar
StartChar: dcroat
Encoding: 273 273 203
Width: 580
GlyphClass: 2
Flags: MW
HStem: -10 73<224.5 286> 0 21G<402 483 402 402> 424 74<224.5 286 188 319.5> 570 60<211 402 211 402 483 556> 670 20G<402 483 483 483>
VStem: 54 81 402 81<0 65 65 65 423 570 0 570 630 690>
LayerCount: 2
Back
Fore
SplineSet
556 630 m 1xbe
 556 570 l 1
 483 570 l 1
 483 0 l 1
 402 0 l 1x7e
 402 65 l 1
 370 19 320 -10 252 -10 c 0
 124 -10 54 104 54 244 c 0
 54 384 124 498 252 498 c 0
 320 498 370 469 402 423 c 1
 402 570 l 1
 211 570 l 1
 211 630 l 1
 402 630 l 1
 402 690 l 1
 483 690 l 1
 483 630 l 1
 556 630 l 1xbe
134 244 m 0
 134 146 177 63 272 63 c 0xbe
 367 63 407 146 407 244 c 0
 407 341 367 424 272 424 c 0
 177 424 134 341 134 244 c 0
EndSplineSet
EndChar
StartChar: emacron
Encoding: 275 275 205
Width: 520
GlyphClass: 2
Flags: MW
HStem: -6 71<227.5 301 227.5 312.5> 217 64<134 399 134 473 134 399> 424 70<222 309.5> 594 60<104 427 104 427>
VStem: 50 84<217 217 217 281 217 307> 104 323<594 654 594 654> 399 76<281 281>
LayerCount: 2
Back
Fore
SplineSet
427 654 m 1x14
 427 594 l 1
 104 594 l 1
 104 654 l 1
 427 654 l 1x14
265 424 m 0xea
 179 424 138 359 134 281 c 1
 399 281 l 1
 397 365 354 424 265 424 c 0xea
463 72 m 1
 409 15 351 -6 274 -6 c 0
 124 -6 50 108 50 241 c 0
 50 373 120 494 265 494 c 0
 427 494 475 371 475 237 c 0
 475 230 473 217 473 217 c 1
 134 217 l 1
 135 135 182 65 273 65 c 0
 329 65 370 76 409 116 c 1
 463 72 l 1
EndSplineSet
EndChar
StartChar: Ebreve
Encoding: 276 276 206
Width: 609
GlyphClass: 2
Flags: MW
HStem: 0 77<179 544 179 544> 308 74<179 501 179 501> 616 74<179 544 179 179> 800 54<296.5 343 296.5 362.5> 912 20G<170 234 234 234 404 468 468 468>
VStem: 95 84<77 308 382 616> 170 64<908.5 932 908.5 932> 404 64<908.5 932>
LayerCount: 2
Back
Fore
SplineSet
404 932 m 1x1b
 468 932 l 1
 468 847 405 800 320 800 c 0
 234 800 170 847 170 932 c 1
 234 932 l 1
 234 885 273 854 320 854 c 0
 366 854 404 885 404 932 c 1x1b
544 0 m 1xe4
 95 0 l 1
 95 690 l 1
 544 690 l 1
 544 616 l 1
 179 616 l 1
 179 382 l 1
 501 382 l 1
 501 308 l 1
 179 308 l 1
 179 77 l 1
 544 77 l 1
 544 0 l 1xe4
EndSplineSet
EndChar
StartChar: ebreve
Encoding: 277 277 207
Width: 520
GlyphClass: 2
Flags: MW
HStem: -6 71<227.5 301 227.5 312.5> 217 64<134 399 134 473 134 399> 424 70<222 309.5> 594 54<242 288.5 242 308> 706 20G<116 180 180 180 350 414 414 414>
VStem: 50 84<217 217 217 281 217 307> 116 64<702.5 726 702.5 726> 350 64<702.5 726> 399 76<281 281>
LayerCount: 2
Back
Fore
SplineSet
350 726 m 1x1b
 414 726 l 1
 414 641 351 594 265 594 c 0
 180 594 116 641 116 726 c 1
 180 726 l 1
 180 679 219 648 265 648 c 0
 312 648 350 679 350 726 c 1x1b
265 424 m 0xe480
 179 424 138 359 134 281 c 1
 399 281 l 1
 397 365 354 424 265 424 c 0xe480
463 72 m 1
 409 15 351 -6 274 -6 c 0
 124 -6 50 108 50 241 c 0
 50 373 120 494 265 494 c 0
 427 494 475 371 475 237 c 0
 475 230 473 217 473 217 c 1
 134 217 l 1
 135 135 182 65 273 65 c 0
 329 65 370 76 409 116 c 1
 463 72 l 1
EndSplineSet
EndChar
StartChar: edotaccent
Encoding: 279 279 209
Width: 520
GlyphClass: 2
Flags: MW
HStem: -6 71<227.5 301 227.5 312.5> 217 64<134 399 134 473 134 399> 424 70<222 309.5> 594 125<247.5 282.5>
VStem: 50 84<217 217 217 281 217 307> 203 125<639.5 674.5> 399 76<281 281>
LayerCount: 2
Back
Fore
SplineSet
203 657 m 0
 203 692 230 719 265 719 c 0
 300 719 328 692 328 657 c 0
 328 622 300 594 265 594 c 0
 230 594 203 622 203 657 c 0
265 424 m 0
 179 424 138 359 134 281 c 1
 399 281 l 1
 397 365 354 424 265 424 c 0
463 72 m 1
 409 15 351 -6 274 -6 c 0
 124 -6 50 108 50 241 c 0
 50 373 120 494 265 494 c 0
 427 494 475 371 475 237 c 0
 475 230 473 217 473 217 c 1
 134 217 l 1
 135 135 182 65 273 65 c 0
 329 65 370 76 409 116 c 1
 463 72 l 1
EndSplineSet
EndChar
StartChar: Eogonek
Encoding: 280 280 210
Width: 609
GlyphClass: 2
Flags: MW
HStem: -220 53<463.5 489 463.5 504.5> 0 77<179 455 179 544> 308 74<179 501 179 501> 616 74<179 544 179 179>
VStem: 95 84<77 308 382 616> 381 51<-130 -81>
LayerCount: 2
Back
Fore
SplineSet
480 -220 m 0
 423 -220 381 -181 381 -120 c 0
 381 -42 455 0 455 0 c 1
 95 0 l 1
 95 690 l 1
 544 690 l 1
 544 616 l 1
 179 616 l 1
 179 382 l 1
 501 382 l 1
 501 308 l 1
 179 308 l 1
 179 77 l 1
 544 77 l 1
 544 0 l 1
 544 0 432 -38 432 -113 c 0
 432 -147 452 -167 475 -167 c 0
 503 -167 521 -156 536 -135 c 1
 580 -165 l 1
 558 -198 529 -220 480 -220 c 0
EndSplineSet
EndChar
StartChar: eogonek
Encoding: 281 281 211
Width: 520
GlyphClass: 2
Flags: MW
HStem: -218 53 217 64<134 399 134 473 134 399> 424 70<222 309.5>
VStem: 50 84<217 217 217 281 217 307> 156 51<-129 -86> 399 76<281 281>
LayerCount: 2
Back
Fore
SplineSet
265 424 m 0
 179 424 138 359 134 281 c 1
 399 281 l 1
 397 365 354 424 265 424 c 0
255 -218 m 0
 198 -218 156 -180 156 -119 c 0
 156 -53 209 -12 225 -2 c 1
 108 20 50 123 50 241 c 0
 50 373 120 494 265 494 c 0
 427 494 475 371 475 237 c 0
 475 230 473 217 473 217 c 1
 134 217 l 1
 135 135 182 65 273 65 c 0
 329 65 370 76 409 116 c 1
 463 72 l 1
 416 22 366 0 303 -5 c 1
 272 -19 207 -54 207 -112 c 0
 207 -146 227 -166 250 -166 c 0
 278 -166 296 -155 311 -134 c 1
 354 -164 l 1
 332 -197 303 -218 255 -218 c 0
EndSplineSet
EndChar
StartChar: Ecaron
Encoding: 282 282 212
Width: 609
GlyphClass: 2
Flags: MW
HStem: 0 77<179 544 179 544> 308 74<179 501 179 501> 616 74<179 544 179 179> 800 184<158 320>
VStem: 95 84<77 308 382 616> 158 323<984 984>
LayerCount: 2
Back
Fore
SplineSet
399 984 m 1x14
 481 984 l 1
 320 800 l 1
 158 984 l 1
 240 984 l 1
 320 890 l 1
 399 984 l 1x14
544 0 m 1xe8
 95 0 l 1
 95 690 l 1
 544 690 l 1
 544 616 l 1
 179 616 l 1
 179 382 l 1
 501 382 l 1
 501 308 l 1
 179 308 l 1
 179 77 l 1
 544 77 l 1
 544 0 l 1xe8
EndSplineSet
EndChar
StartChar: ecaron
Encoding: 283 283 213
Width: 520
GlyphClass: 2
Flags: MW
HStem: -6 71<227.5 301 227.5 312.5> 217 64<134 399 134 473 134 399> 424 70<222 309.5> 594 184<104 265>
VStem: 50 84<217 217 217 281 217 307> 104 323<778 778> 399 76<281 281>
LayerCount: 2
Back
Fore
SplineSet
345 778 m 1x14
 427 778 l 1
 265 594 l 1
 104 778 l 1
 186 778 l 1
 265 684 l 1
 345 778 l 1x14
265 424 m 0xea
 179 424 138 359 134 281 c 1
 399 281 l 1
 397 365 354 424 265 424 c 0xea
463 72 m 1
 409 15 351 -6 274 -6 c 0
 124 -6 50 108 50 241 c 0
 50 373 120 494 265 494 c 0
 427 494 475 371 475 237 c 0
 475 230 473 217 473 217 c 1
 134 217 l 1
 135 135 182 65 273 65 c 0
 329 65 370 76 409 116 c 1
 463 72 l 1
EndSplineSet
EndChar
StartChar: gcircumflex
Encoding: 285 285 215
Width: 518
GlyphClass: 2
Flags: MW
HStem: -224 72<222.5 300.5 202 327> 158 65 429 65<240 286.5 220 300> 596 184<104 266 104 266 266 427 266 345>
VStem: 50 70<-67.5 -61 -67.5 -55> 60 71 92 80<307 354.5 295.5 376.5> 104 323<596 596> 368 80<295.5 347 272.5 354.5> 416 75
LayerCount: 2
Back
Fore
SplineSet
345 596 m 1x11
 266 690 l 1
 186 596 l 1
 104 596 l 1
 266 780 l 1
 427 596 l 1
 345 596 l 1x11
120 -61 m 1xe840
 120 -74 133 -152 271 -152 c 0
 330 -152 416 -138 416 -66 c 0
 416 20 299 -3 206 5 c 1
 120 -61 l 1xe840
270 222 m 0
 329 222 368 266 368 325 c 0
 368 384 330 429 270 429 c 0
 210 429 172 384 172 325 c 0xe280
 172 266 211 222 270 222 c 0
360 474 m 1
 373 478 430 535 440 544 c 1
 484 485 l 1
 412 432 l 1
 434 404 448 369 448 325 c 0
 448 220 370 158 270 158 c 0
 230 158 193 169 165 186 c 1
 150 171 130 150 130 125 c 0xe480
 130 79 207 73 287 73 c 0
 394 73 492 57 492 -60 c 0
 492 -185 383 -224 271 -224 c 0
 174 -224 50 -189 50 -68 c 0xe840
 50 -42 60 -18 60 -18 c 1
 87 -7 117 6 143 17 c 1
 83 44 60 95 60 122 c 0xe4
 60 162 84 202 116 235 c 1
 101 260 92 289 92 325 c 0
 92 428 170 494 270 494 c 0
 303 494 335 486 360 474 c 1
EndSplineSet
EndChar
StartChar: Gbreve
Encoding: 286 286 216
Width: 750
GlyphClass: 2
Flags: MW
HStem: -10 78<294.5 432.5 294.5 432.5> 0 21G<600 669 600 600> 286 67<432 590 432 669> 623 78<293.5 421.5> 801 54<351.5 398.5 351.5 417.5> 913 20G<226 290 290 290 460 524 524 524>
VStem: 62 83<273.5 422.5 273.5 441.5> 226 64<909.5 933 909.5 933> 460 64<909.5 933> 590 79<286 286> 600 69<0 0>
LayerCount: 2
Back
Fore
SplineSet
460 933 m 1x0d80
 524 933 l 1
 524 848 460 801 375 801 c 0
 290 801 226 848 226 933 c 1
 290 933 l 1
 290 886 328 855 375 855 c 0
 422 855 460 886 460 933 c 1x0d80
669 0 m 1x7220
 600 0 l 1x7220
 597 122 l 1
 559 46 489 -10 376 -10 c 0
 162 -10 62 152 62 345 c 0
 62 538 161 701 375 701 c 0
 504 701 605 637 658 515 c 1
 580 483 l 1
 541 574 469 623 374 623 c 0
 213 623 145 495 145 350 c 0
 145 197 213 68 376 68 c 0
 489 68 585 147 590 286 c 1xb240
 432 286 l 1
 432 353 l 1
 669 353 l 1
 669 0 l 1x7220
EndSplineSet
EndChar
StartChar: uni0122
Encoding: 290 290 220
Width: 750
GlyphClass: 2
Flags: MW
HStem: -299 189<296 456 296 456> -10 78<294.5 432.5 294.5 432.5> 0 21G<600 669 600 600> 286 67<432 590 432 669> 623 78<293.5 421.5>
VStem: 62 83<273.5 422.5 273.5 441.5> 296 160 590 79<286 286> 600 69<0 0>
LayerCount: 2
Back
Fore
SplineSet
456 -110 m 1x82
 346 -299 l 1
 296 -299 l 1
 356 -110 l 1
 456 -110 l 1x82
669 0 m 1x3c80
 600 0 l 1x3c80
 597 122 l 1
 559 46 489 -10 376 -10 c 0
 162 -10 62 152 62 345 c 0
 62 538 161 701 375 701 c 0
 504 701 605 637 658 515 c 1
 580 483 l 1
 541 574 469 623 374 623 c 0
 213 623 145 495 145 350 c 0
 145 197 213 68 376 68 c 0
 489 68 585 147 590 286 c 1x5d
 432 286 l 1
 432 353 l 1
 669 353 l 1
 669 0 l 1x3c80
EndSplineSet
EndChar
StartChar: Hcircumflex
Encoding: 292 292 222
Width: 700
GlyphClass: 2
Flags: MW
HStem: 0 21G<95 179 95 95 521 605 521 521> 308 74<179 521 179 521> 670 20G<95 179 179 179 521 605 605 605> 788 184<189 350 189 350 350 511 350 429>
VStem: 95 84<0 308 0 382 382 690> 189 323 521 84<0 308 308 308 382 690>
LayerCount: 2
Back
Fore
SplineSet
429 788 m 1
 350 882 l 1
 271 788 l 1
 189 788 l 1
 350 972 l 1
 511 788 l 1
 429 788 l 1
605 0 m 1
 521 0 l 1
 521 308 l 1
 179 308 l 1
 179 0 l 1
 95 0 l 1
 95 690 l 1
 179 690 l 1
 179 382 l 1
 521 382 l 1
 521 690 l 1
 605 690 l 1
 605 0 l 1
EndSplineSet
EndChar
StartChar: Hbar
Encoding: 294 294 224
Width: 700
GlyphClass: 2
Flags: MW
HStem: 0 21G<95 179 95 95 521 605 521 521> 308 74<179 521 179 521> 521 60<30 95 30 95 179 521 605 670> 670 20G<95 179 179 179 521 605 605 605>
VStem: 95 84<0 308 0 382 382 521 581 690> 521 84<0 308 308 308 382 521 581 690>
LayerCount: 2
Back
Fore
SplineSet
605 0 m 1
 521 0 l 1
 521 308 l 1
 179 308 l 1
 179 0 l 1
 95 0 l 1
 95 521 l 1
 30 521 l 1
 30 581 l 1
 95 581 l 1
 95 690 l 1
 179 690 l 1
 179 581 l 1
 521 581 l 1
 521 690 l 1
 605 690 l 1
 605 581 l 1
 670 581 l 1
 670 521 l 1
 605 521 l 1
 605 0 l 1
179 521 m 1
 179 382 l 1
 521 382 l 1
 521 521 l 1
 179 521 l 1
EndSplineSet
EndChar
StartChar: hbar
Encoding: 295 295 225
Width: 572
GlyphClass: 2
Flags: MW
HStem: 0 21G<92 174 92 92 411 492 411 411> 422 77<293 352.5> 551 60<30 92 30 92 174 414> 670 20G<92 174 174 174>
VStem: 92 82<0 306 421 551 611 690> 411 81<0 289>
LayerCount: 2
Back
Fore
SplineSet
492 0 m 1
 411 0 l 1
 411 289 l 2
 411 356 392 422 313 422 c 0
 244 422 187 371 174 306 c 1
 174 0 l 1
 92 0 l 1
 92 551 l 1
 30 551 l 1
 30 611 l 1
 92 611 l 1
 92 690 l 1
 174 690 l 1
 174 611 l 1
 414 611 l 1
 414 551 l 1
 174 551 l 1
 174 421 l 1
 207 468 264 499 322 499 c 0
 446 499 492 399 492 289 c 2
 492 0 l 1
EndSplineSet
EndChar
StartChar: Itilde
Encoding: 296 296 226
Width: 264
GlyphClass: 2
Flags: MW
HStem: 0 21G<90 174 90 90> 670 20G<90 174 174 174> 800 54<185 230 185 243> 880 53<29 73>
VStem: -52 53<817 835 817 848> 90 84<0 690> 258 57
LayerCount: 2
Back
Fore
SplineSet
208 800 m 0
 128 800 100 880 46 880 c 0
 12 880 1 852 1 818 c 0
 1 816 1 815 2 813 c 2
 -52 813 l 1
 -52 883 -20 933 44 933 c 0
 140 933 158 854 212 854 c 0
 248 854 258 884 258 930 c 1
 316 930 l 1
 316 847 278 800 208 800 c 0
174 0 m 1
 90 0 l 1
 90 690 l 1
 174 690 l 1
 174 0 l 1
EndSplineSet
EndChar
StartChar: itilde
Encoding: 297 297 227
Width: 255
GlyphClass: 2
Flags: MW
HStem: 0 21G<86 170 86 86> 468 20G<86 170 170 170> 594 54<181 226 181 239> 674 53<25 69>
VStem: -56 53<611 629 611 642> 86 84<0 488> 254 57
LayerCount: 2
Back
Fore
SplineSet
204 594 m 0
 124 594 96 674 42 674 c 0
 8 674 -3 646 -3 612 c 0
 -3 610 -3 609 -2 607 c 2
 -56 607 l 1
 -56 677 -24 727 40 727 c 0
 136 727 154 648 208 648 c 0
 244 648 254 678 254 724 c 1
 312 724 l 1
 312 641 274 594 204 594 c 0
170 0 m 1
 86 0 l 1
 86 488 l 1
 170 488 l 1
 170 0 l 1
EndSplineSet
EndChar
StartChar: Imacron
Encoding: 298 298 228
Width: 264
GlyphClass: 2
Flags: MW
HStem: 0 21G<90 174 90 90> 670 20G<90 174 174 174> 800 60<-29 293 -29 293>
VStem: -29 323 90 84<0 690>
LayerCount: 2
Back
Fore
SplineSet
293 860 m 1x30
 293 800 l 1
 -29 800 l 1
 -29 860 l 1
 293 860 l 1x30
174 0 m 1xc8
 90 0 l 1
 90 690 l 1
 174 690 l 1
 174 0 l 1xc8
EndSplineSet
EndChar
StartChar: imacron
Encoding: 299 299 229
Width: 255
GlyphClass: 2
Flags: MW
HStem: 0 21G<86 170 86 86> 468 20G<86 170 170 170> 594 60<-33 289 -33 289>
VStem: -33 323 86 84<0 488>
LayerCount: 2
Back
Fore
SplineSet
289 654 m 1x30
 289 594 l 1
 -33 594 l 1
 -33 654 l 1
 289 654 l 1x30
170 0 m 1xc8
 86 0 l 1
 86 488 l 1
 170 488 l 1
 170 0 l 1xc8
EndSplineSet
EndChar
StartChar: Ibreve
Encoding: 300 300 230
Width: 264
GlyphClass: 2
Flags: MW
HStem: 0 21G<90 174 90 90> 670 20G<90 174 174 174> 800 54<108.5 155.5 108.5 174.5> 912 20G<-17 47 47 47 217 281 281 281>
VStem: -17 64<908.5 932 908.5 932> 90 84<0 690> 217 64<908.5 932>
CounterMasks: 1 0e
LayerCount: 2
Back
Fore
SplineSet
217 932 m 1
 281 932 l 1
 281 847 217 800 132 800 c 0
 47 800 -17 847 -17 932 c 1
 47 932 l 1
 47 885 85 854 132 854 c 0
 179 854 217 885 217 932 c 1
174 0 m 1
 90 0 l 1
 90 690 l 1
 174 690 l 1
 174 0 l 1
EndSplineSet
EndChar
StartChar: ibreve
Encoding: 301 301 231
Width: 255
GlyphClass: 2
Flags: MW
HStem: 0 21G<86 170 86 86> 468 20G<86 170 170 170> 594 54<104.5 151.5 104.5 170.5> 706 20G<-21 43 43 43 213 277 277 277>
VStem: -21 64<702.5 726 702.5 726> 86 84<0 488> 213 64<702.5 726>
CounterMasks: 1 0e
LayerCount: 2
Back
Fore
SplineSet
213 726 m 1
 277 726 l 1
 277 641 213 594 128 594 c 0
 43 594 -21 641 -21 726 c 1
 43 726 l 1
 43 679 81 648 128 648 c 0
 175 648 213 679 213 726 c 1
170 0 m 1
 86 0 l 1
 86 488 l 1
 170 488 l 1
 170 0 l 1
EndSplineSet
EndChar
StartChar: Iogonek
Encoding: 302 302 232
Width: 264
GlyphClass: 2
Flags: MW
HStem: -212 53<96 122 96 136.5> 670 20G<91 173 173 173>
VStem: 13 51<-123 -74> 91 82<0 690 0 690>
LayerCount: 2
Back
Fore
SplineSet
112 -212 m 0
 55 -212 13 -174 13 -113 c 0
 13 -35 91 0 91 0 c 1
 91 690 l 1
 173 690 l 1
 173 0 l 1
 173 0 64 -31 64 -106 c 0
 64 -140 84 -159 108 -159 c 0
 136 -159 153 -149 168 -128 c 1
 212 -157 l 1
 190 -191 161 -212 112 -212 c 0
EndSplineSet
EndChar
StartChar: iogonek
Encoding: 303 303 233
Width: 265
GlyphClass: 2
Flags: MW
HStem: -212 53<97 123 97 137.5> 468 20G<94 172 172 172> 594 99<88 178 88 178>
VStem: 14 51<-123 -74> 94 78<0 488 0 488>
LayerCount: 2
Back
Fore
SplineSet
113 -212 m 0
 56 -212 14 -174 14 -113 c 0
 14 -35 94 0 94 0 c 1
 94 488 l 1
 172 488 l 1
 172 0 l 1
 172 0 65 -31 65 -106 c 0
 65 -140 85 -159 109 -159 c 0
 137 -159 154 -149 169 -128 c 1
 213 -157 l 1
 191 -191 162 -212 113 -212 c 0
178 693 m 1
 178 594 l 1
 88 594 l 1
 88 693 l 1
 178 693 l 1
EndSplineSet
EndChar
StartChar: Idotaccent
Encoding: 304 304 234
Width: 264
GlyphClass: 2
Flags: MW
HStem: 0 21G<90 174 90 90> 670 20G<90 174 174 174> 800 125<114 149>
VStem: 70 125 90 84<0 690>
LayerCount: 2
Back
Fore
SplineSet
70 863 m 0x30
 70 898 96 925 132 925 c 0
 166 925 194 898 194 863 c 0
 194 828 166 800 132 800 c 0
 96 800 70 828 70 863 c 0x30
174 0 m 1xc8
 90 0 l 1
 90 690 l 1
 174 690 l 1
 174 0 l 1xc8
EndSplineSet
EndChar
StartChar: dotlessi
Encoding: 305 305 235
Width: 255
GlyphClass: 2
Flags: MW
HStem: 0 21G<86 170 86 86> 468 20G<86 170 170 170>
VStem: 86 84<0 488>
LayerCount: 2
Back
Fore
SplineSet
170 0 m 1
 86 0 l 1
 86 488 l 1
 170 488 l 1
 170 0 l 1
EndSplineSet
EndChar
StartChar: IJ
Encoding: 306 306 236
Width: 779
GlyphClass: 2
Flags: MW
HStem: -10 75<447 544 447 568.5> 0 21G<90 174 90 90> 616 74<360 621> 670 20G<90 174 174 174 360 704 704 704>
VStem: 90 84<0 690> 278 82<196 208> 621 83<239 244 244 616 616 616>
LayerCount: 2
Back
Fore
SplineSet
360 616 m 1xa6
 360 690 l 1
 704 690 l 1
 704 244 l 2
 704 94 646 -10 491 -10 c 0
 362 -10 286 83 278 196 c 1
 360 208 l 1
 365 135 403 65 491 65 c 0
 597 65 621 140 621 239 c 2
 621 616 l 1
 360 616 l 1xa6
174 0 m 1x58
 90 0 l 1
 90 690 l 1
 174 690 l 1
 174 0 l 1x58
EndSplineSet
EndChar
StartChar: ij
Encoding: 307 307 237
Width: 526
GlyphClass: 2
Flags: MW
HStem: -214 70<294 326.5 294 354.5> 0 21G<93 173 93 93> 468 20G<93 173 173 173 357 437 437 437> 594 99<88 178 88 178 353 443>
VStem: 93 80<0 488> 357 80<-82 -71 -71 488>
LayerCount: 2
Back
Fore
SplineSet
443 693 m 1
 443 594 l 1
 353 594 l 1
 353 693 l 1
 443 693 l 1
310 -214 m 0
 274 -214 234 -199 234 -199 c 1
 252 -136 l 1
 252 -136 281 -144 307 -144 c 0
 346 -144 357 -115 357 -82 c 2
 357 488 l 1
 437 488 l 1
 437 -71 l 2
 437 -154 399 -214 310 -214 c 0
178 693 m 1
 178 594 l 1
 88 594 l 1
 88 693 l 1
 178 693 l 1
173 0 m 1
 93 0 l 1
 93 488 l 1
 173 488 l 1
 173 0 l 1
EndSplineSet
EndChar
StartChar: Jcircumflex
Encoding: 308 308 238
Width: 515
GlyphClass: 2
Flags: MW
HStem: -10 75<183 280 183 304.5> 616 74<96 440 96 357> 788 184<107 268 107 268 268 429 268 347>
VStem: 14 82<196 208> 107 323 357 83<239 244 244 616 616 616>
LayerCount: 2
Back
Fore
SplineSet
347 788 m 1x28
 268 882 l 1
 189 788 l 1
 107 788 l 1
 268 972 l 1
 429 788 l 1
 347 788 l 1x28
96 616 m 1xd4
 96 690 l 1
 440 690 l 1
 440 244 l 2
 440 94 382 -10 227 -10 c 0
 98 -10 22 83 14 196 c 1
 96 208 l 1
 101 135 139 65 227 65 c 0
 333 65 357 140 357 239 c 2
 357 616 l 1
 96 616 l 1xd4
EndSplineSet
EndChar
StartChar: jcircumflex
Encoding: 309 309 239
Width: 261
GlyphClass: 2
Flags: MW
HStem: -214 77<29 61.5 29 89.5> 468 20G<90 174 174 174> 582 184<-29 132 -29 132 132 293 132 211>
VStem: -29 323 90 84<-75 -71 -71 488>
LayerCount: 2
Back
Fore
SplineSet
211 582 m 1x30
 132 676 l 1
 53 582 l 1
 -29 582 l 1
 132 766 l 1
 293 582 l 1
 211 582 l 1x30
45 -214 m 0xc8
 9 -214 -31 -199 -31 -199 c 1
 -13 -129 l 1
 -13 -129 16 -137 42 -137 c 0
 81 -137 90 -108 90 -75 c 2
 90 488 l 1
 174 488 l 1
 174 -71 l 2
 174 -154 134 -214 45 -214 c 0xc8
EndSplineSet
EndChar
StartChar: uni0136
Encoding: 310 310 240
Width: 679
GlyphClass: 2
Flags: MW
HStem: -289 189<298 458 298 458> 0 21G<96 179 96 96 559 660 559 559> 670 20G<96 179 179 179 554 664 664 664>
VStem: 96 83<0 188 292 690> 298 160
LayerCount: 2
Back
Fore
SplineSet
458 -100 m 1
 348 -289 l 1
 298 -289 l 1
 358 -100 l 1
 458 -100 l 1
664 690 m 1
 401 416 l 1
 660 0 l 1
 559 0 l 1
 343 358 l 1
 179 188 l 1
 179 0 l 1
 96 0 l 1
 96 690 l 1
 179 690 l 1
 179 292 l 1
 554 690 l 1
 664 690 l 1
EndSplineSet
EndChar
StartChar: uni0137
Encoding: 311 311 241
Width: 531
GlyphClass: 2
Flags: MW
HStem: -289 189<174 334 174 334> 0 21G<94 174 94 94 424 517 424 424> 468 20G<387 488 488 488> 670 20G<94 174 174 174>
VStem: 94 80<0 143 231 690> 174 160<-100 0 -100 143>
LayerCount: 2
Back
Fore
SplineSet
334 -100 m 1x84
 224 -289 l 1
 174 -289 l 1
 234 -100 l 1
 334 -100 l 1x84
517 0 m 1x78
 424 0 l 1
 272 252 l 1
 174 143 l 1
 174 0 l 1
 94 0 l 1
 94 690 l 1
 174 690 l 1
 174 231 l 1
 387 488 l 1
 488 488 l 1
 325 306 l 1
 517 0 l 1x78
EndSplineSet
EndChar
StartChar: kgreenlandic
Encoding: 312 312 242
Width: 531
GlyphClass: 2
Flags: MW
HStem: 0 21G<95 174 95 95 423 517 423 423> 468 20G<95 174 174 174 387 488 488 488>
VStem: 95 79<0 141 240 488>
LayerCount: 2
Back
Fore
SplineSet
517 0 m 1
 423 0 l 1
 274 253 l 1
 174 141 l 1
 174 0 l 1
 95 0 l 1
 95 488 l 1
 174 488 l 1
 174 240 l 1
 387 488 l 1
 488 488 l 1
 325 306 l 1
 517 0 l 1
EndSplineSet
EndChar
StartChar: Lacute
Encoding: 313 313 243
Width: 509
GlyphClass: 2
Flags: MW
HStem: 0 77<179 474 179 474> 670 20G<95 179 179 179> 800 141<96 301 96 301>
VStem: 95 84<77 690 77 690 77 690> 96 205<800 941>
LayerCount: 2
Back
Fore
SplineSet
301 941 m 1x28
 178 800 l 1
 96 800 l 1
 201 941 l 1
 301 941 l 1x28
474 0 m 1xd0
 95 0 l 1
 95 690 l 1
 179 690 l 1
 179 77 l 1
 474 77 l 1
 474 0 l 1xd0
EndSplineSet
EndChar
StartChar: lacute
Encoding: 314 314 244
Width: 279
GlyphClass: 2
Flags: MW
HStem: -10 74<187 194.5> 670 20G<93 173 173 173> 790 141<92 297 92 297>
VStem: 92 205<790 931> 93 80<99 690 93 690>
LayerCount: 2
Back
Fore
SplineSet
297 931 m 1x30
 174 790 l 1
 92 790 l 1
 197 931 l 1
 297 931 l 1x30
177 -10 m 0xc8
 105 -10 93 36 93 99 c 2
 93 690 l 1
 173 690 l 1
 173 93 l 1
 173 93 174 64 200 64 c 0
 221 64 244 69 244 69 c 1
 244 0 l 1
 244 0 212 -10 177 -10 c 0xc8
EndSplineSet
EndChar
StartChar: uni013B
Encoding: 315 315 245
Width: 509
GlyphClass: 2
Flags: MW
HStem: -289 189<204 364 204 364> 0 77<179 474 179 474> 670 20G<95 179 179 179>
VStem: 95 84<77 690 77 690 77 690> 204 160
LayerCount: 2
Back
Fore
SplineSet
364 -100 m 1
 254 -289 l 1
 204 -289 l 1
 264 -100 l 1
 364 -100 l 1
474 0 m 1
 95 0 l 1
 95 690 l 1
 179 690 l 1
 179 77 l 1
 474 77 l 1
 474 0 l 1
EndSplineSet
EndChar
StartChar: uni013C
Encoding: 316 316 246
Width: 279
GlyphClass: 2
Flags: MW
HStem: -289 189<82 242 82 242> -10 74<187 194.5> 670 20G<93 173 173 173>
VStem: 82 160 93 80<99 690 93 690>
LayerCount: 2
Back
Fore
SplineSet
242 -100 m 1x90
 132 -289 l 1
 82 -289 l 1
 142 -100 l 1
 242 -100 l 1x90
177 -10 m 0x68
 105 -10 93 36 93 99 c 2
 93 690 l 1
 173 690 l 1
 173 93 l 1
 173 93 174 64 200 64 c 0
 221 64 244 69 244 69 c 1
 244 0 l 1
 244 0 212 -10 177 -10 c 0x68
EndSplineSet
EndChar
StartChar: Lcaron
Encoding: 317 317 247
Width: 509
GlyphClass: 2
Flags: MW
HStem: 0 77<179 474 179 474> 511 189<350 510 350 510> 670 20G<95 179 179 179>
VStem: 95 84<77 690 77 690 77 690> 350 160
LayerCount: 2
Back
Fore
SplineSet
510 700 m 1x48
 400 511 l 1
 350 511 l 1
 410 700 l 1
 510 700 l 1x48
474 0 m 1xb0
 95 0 l 1
 95 690 l 1
 179 690 l 1
 179 77 l 1
 474 77 l 1
 474 0 l 1xb0
EndSplineSet
EndChar
StartChar: lcaron
Encoding: 318 318 248
Width: 279
GlyphClass: 2
Flags: MW
HStem: -10 74<187 194.5> 501 189<93 249 93 199> 670 20G<93 173 173 173 259 359 359 359>
VStem: 93 80<99 690 93 690> 199 160
LayerCount: 2
Back
Fore
SplineSet
359 690 m 1x48
 249 501 l 1
 199 501 l 1
 259 690 l 1
 359 690 l 1x48
177 -10 m 0xb0
 105 -10 93 36 93 99 c 2
 93 690 l 1
 173 690 l 1
 173 93 l 1
 173 93 174 64 200 64 c 0
 221 64 244 69 244 69 c 1
 244 0 l 1
 244 0 212 -10 177 -10 c 0xb0
EndSplineSet
EndChar
StartChar: Ldot
Encoding: 319 319 249
Width: 509
GlyphClass: 2
Flags: MW
HStem: 0 77<179 474 179 474> 288 125 670 20G<95 179 179 179>
VStem: 95 84<77 690 77 690 77 690> 350 125<333 368>
LayerCount: 2
Back
Fore
SplineSet
350 350 m 0
 350 386 377 412 412 412 c 0
 447 412 475 386 475 350 c 0
 475 316 447 288 412 288 c 0
 377 288 350 316 350 350 c 0
474 0 m 1
 95 0 l 1
 95 690 l 1
 179 690 l 1
 179 77 l 1
 474 77 l 1
 474 0 l 1
EndSplineSet
EndChar
StartChar: ldot
Encoding: 320 320 250
Width: 437
GlyphClass: 2
Flags: MW
HStem: -10 74<187 194.5> 338 125<296.5 331.5> 670 20G<93 173 173 173>
VStem: 93 80<99 690 93 690> 252 125<383.5 418.5>
LayerCount: 2
Back
Fore
SplineSet
252 401 m 0
 252 436 279 463 314 463 c 0
 349 463 377 436 377 401 c 0
 377 366 349 338 314 338 c 0
 279 338 252 366 252 401 c 0
177 -10 m 0
 105 -10 93 36 93 99 c 2
 93 690 l 1
 173 690 l 1
 173 93 l 1
 173 93 174 64 200 64 c 0
 221 64 244 69 244 69 c 1
 244 0 l 1
 244 0 212 -10 177 -10 c 0
EndSplineSet
EndChar
StartChar: Lslash
Encoding: 321 321 251
Width: 509
GlyphClass: 2
Flags: MW
HStem: 0 77<179 474 179 474> 670 20G<95 179 179 179>
VStem: 95 84<77 249 249 249 398 690>
LayerCount: 2
Back
Fore
SplineSet
474 0 m 1
 95 0 l 1
 95 249 l 1
 42 205 l 1
 3 251 l 1
 95 327 l 1
 95 690 l 1
 179 690 l 1
 179 398 l 1
 235 445 l 1
 274 399 l 1
 179 320 l 1
 179 77 l 1
 474 77 l 1
 474 0 l 1
EndSplineSet
EndChar
StartChar: lslash
Encoding: 322 322 252
Width: 274
GlyphClass: 2
Flags: MW
HStem: 0 82<176 239 208 239> 670 20G<88 168 168 168>
VStem: 88 80<113 124 124 243 243 243 389 690>
LayerCount: 2
Back
Fore
SplineSet
239 0 m 1
 208 0 l 2
 144 0 88 25 88 113 c 2
 88 243 l 1
 42 205 l 1
 3 251 l 1
 88 322 l 1
 88 690 l 1
 168 690 l 1
 168 389 l 1
 235 445 l 1
 274 399 l 1
 168 310 l 1
 168 124 l 2
 168 94 176 82 208 82 c 2
 239 82 l 1
 239 0 l 1
EndSplineSet
EndChar
StartChar: Nacute
Encoding: 323 323 253
Width: 680
GlyphClass: 2
Flags: MW
HStem: 0 21G<94 178 94 94 474 585 474 474> 670 20G<94 205 205 205 502 585 585 585> 800 141<298 503 298 503>
VStem: 94 84<0 583 0 690> 298 205<800 941> 502 83<107 690>
LayerCount: 2
Back
Fore
SplineSet
503 941 m 1x28
 381 800 l 1
 298 800 l 1
 403 941 l 1
 503 941 l 1x28
585 0 m 1xd4
 474 0 l 1
 178 583 l 1
 178 0 l 1
 94 0 l 1
 94 690 l 1
 205 690 l 1
 502 107 l 1
 502 690 l 1
 585 690 l 1
 585 0 l 1xd4
EndSplineSet
EndChar
StartChar: uni0145
Encoding: 325 325 255
Width: 680
GlyphClass: 2
Flags: MW
HStem: -289 189<260 420 260 420> 0 21G<94 178 94 94 474 585 474 474> 670 20G<94 205 205 205 502 585 585 585>
VStem: 94 84<0 583 0 690> 260 160 502 83<107 690>
LayerCount: 2
Back
Fore
SplineSet
420 -100 m 1
 310 -289 l 1
 260 -289 l 1
 320 -100 l 1
 420 -100 l 1
585 0 m 1
 474 0 l 1
 178 583 l 1
 178 0 l 1
 94 0 l 1
 94 690 l 1
 205 690 l 1
 502 107 l 1
 502 690 l 1
 585 690 l 1
 585 0 l 1
EndSplineSet
EndChar
StartChar: uni0146
Encoding: 326 326 256
Width: 564
GlyphClass: 2
Flags: MW
HStem: -289 189<184 344 184 344> 1 20G 420 76<293 353.5> 468 20G<92 172 172 172>
VStem: 92 80<1 275 413 488> 184 160 413 80<0 287 287 297>
LayerCount: 2
Back
Fore
SplineSet
344 -100 m 1x84
 234 -289 l 1
 184 -289 l 1
 244 -100 l 1
 344 -100 l 1x84
493 0 m 1x6a
 413 0 l 1
 413 287 l 2
 413 354 393 420 314 420 c 0x6a
 236 420 172 353 172 275 c 2
 172 1 l 1
 92 1 l 1
 92 488 l 1
 172 488 l 1x5a
 172 413 l 1
 204 464 263 496 323 496 c 0
 446 496 493 402 493 297 c 2
 493 0 l 1x6a
EndSplineSet
EndChar
StartChar: Ncaron
Encoding: 327 327 257
Width: 680
GlyphClass: 2
Flags: MW
HStem: 0 21G<94 178 94 94 474 585 474 474> 670 20G<94 205 205 205 502 585 585 585> 800 184<178 340>
VStem: 94 84<0 583 0 690> 178 323<984 984> 502 83<107 690>
LayerCount: 2
Back
Fore
SplineSet
419 984 m 1
 501 984 l 1
 340 800 l 1
 178 984 l 1
 260 984 l 1
 340 890 l 1
 419 984 l 1
585 0 m 1
 474 0 l 1
 178 583 l 1
 178 0 l 1
 94 0 l 1
 94 690 l 1
 205 690 l 1
 502 107 l 1
 502 690 l 1
 585 690 l 1
 585 0 l 1
EndSplineSet
EndChar
StartChar: ncaron
Encoding: 328 328 258
Width: 564
GlyphClass: 2
Flags: MW
HStem: 1 20G 420 76<293 353.5> 468 20G<92 172 172 172> 596 184<131 292>
VStem: 92 80<1 275 413 488> 131 323 413 80<0 287 287 297>
LayerCount: 2
Back
Fore
SplineSet
371 780 m 1x14
 453 780 l 1
 292 596 l 1
 131 780 l 1
 213 780 l 1
 292 686 l 1
 371 780 l 1x14
493 0 m 1xca
 413 0 l 1
 413 287 l 2
 413 354 393 420 314 420 c 0xca
 236 420 172 353 172 275 c 2
 172 1 l 1
 92 1 l 1
 92 488 l 1
 172 488 l 1xaa
 172 413 l 1
 204 464 263 496 323 496 c 0
 446 496 493 402 493 297 c 2
 493 0 l 1xca
EndSplineSet
EndChar
StartChar: napostrophe
Encoding: 329 329 259
Width: 581
GlyphClass: 2
Flags: MW
HStem: 1 20G 420 76<303 363.5> 468 20G<28 78 28 28 102 182 182 182> 488 202<28 188 28 188 102 182 182 182>
VStem: 28 160 102 80<1 275 413 488> 423 80<0 287 287 297>
LayerCount: 2
Back
Fore
SplineSet
503 0 m 1xc6
 423 0 l 1
 423 287 l 2
 423 354 403 420 324 420 c 0xc6
 246 420 182 353 182 275 c 2
 182 1 l 1
 102 1 l 1
 102 488 l 1
 182 488 l 1xa6
 182 413 l 1
 214 464 273 496 333 496 c 0
 456 496 503 402 503 297 c 2
 503 0 l 1xc6
188 690 m 1x18
 78 488 l 1
 28 488 l 1
 88 690 l 1
 188 690 l 1x18
EndSplineSet
EndChar
StartChar: Eng
Encoding: 330 330 260
Width: 680
GlyphClass: 2
Flags: MW
HStem: -180 68<402 424 424 446 402 424> 0 21G<94 178 94 94 474 502 474 474 585 585> 670 20G<94 205 205 205 502 585 585 585>
VStem: 94 84<0 583 0 690> 502 83<-47 0 107 690>
LayerCount: 2
Back
Fore
SplineSet
585 -47 m 1
 585 -47 582 -180 446 -180 c 2
 402 -180 l 1
 402 -112 l 1
 424 -112 l 2
 494 -112 504 -62 504 -32 c 0
 504 -19 502 0 502 0 c 1
 474 0 l 1
 178 583 l 1
 178 0 l 1
 94 0 l 1
 94 690 l 1
 205 690 l 1
 502 107 l 1
 502 690 l 1
 585 690 l 1
 585 0 l 1
 585 -47 l 1
EndSplineSet
EndChar
StartChar: eng
Encoding: 331 331 261
Width: 573
GlyphClass: 2
Flags: MW
HStem: -180 68<313 335 335 357 313 335> 1 21G<91 172 91 91> 420 76<293 353.5> 468 20G<91 172 172 172>
VStem: 91 81<1 275 413 488> 412 81<-24 287 287 297 -47 320.5>
LayerCount: 2
Back
Fore
SplineSet
335 -112 m 2xec
 412 -112 412 -24 412 -24 c 1
 412 287 l 2
 412 354 393 420 314 420 c 0xec
 236 420 172 353 172 275 c 2
 172 1 l 1
 91 1 l 1
 91 488 l 1
 172 488 l 1xdc
 172 413 l 1
 204 464 263 496 323 496 c 0
 446 496 493 402 493 297 c 2
 493 -47 l 1
 493 -47 493 -180 357 -180 c 2
 313 -180 l 1
 313 -112 l 1
 335 -112 l 2xec
EndSplineSet
EndChar
StartChar: omacron
Encoding: 333 333 263
Width: 570
GlyphClass: 2
Flags: MW
HStem: -10 72<232.5 337.5 232.5 354.5> 422 72<232.5 337.5> 594 60<124 446 124 446>
VStem: 50 89<194.5 289.5 194.5 311.5> 124 323 431 89<194.5 289.5>
LayerCount: 2
Back
Fore
SplineSet
446 654 m 1x28
 446 594 l 1
 124 594 l 1
 124 654 l 1
 446 654 l 1x28
139 242 m 0xd4
 139 147 180 62 285 62 c 0
 390 62 431 147 431 242 c 0
 431 337 390 422 285 422 c 0
 180 422 139 337 139 242 c 0xd4
50 242 m 0
 50 381 146 494 285 494 c 0
 424 494 520 381 520 242 c 0
 520 103 424 -10 285 -10 c 0
 146 -10 50 103 50 242 c 0
EndSplineSet
EndChar
StartChar: Obreve
Encoding: 334 334 264
Width: 746
GlyphClass: 2
Flags: MW
HStem: -10 77<291.5 454.5 291.5 480> 623 77<291.5 454.5> 800 54<349.5 396.5 349.5 415.5> 912 20G<224 288 288 288 458 522 522 522>
VStem: 60 84<272 418 272 441> 224 64<908.5 932 908.5 932> 458 64<908.5 932> 602 84<272 418>
LayerCount: 2
Back
Fore
SplineSet
458 932 m 1
 522 932 l 1
 522 847 458 800 373 800 c 0
 288 800 224 847 224 932 c 1
 288 932 l 1
 288 885 326 854 373 854 c 0
 420 854 458 885 458 932 c 1
373 623 m 0
 210 623 144 491 144 345 c 0
 144 199 210 67 373 67 c 0
 536 67 602 199 602 345 c 0
 602 491 536 623 373 623 c 0
373 -10 m 0
 159 -10 60 153 60 345 c 0
 60 537 159 700 373 700 c 0
 587 700 686 537 686 345 c 0
 686 153 587 -10 373 -10 c 0
EndSplineSet
EndChar
StartChar: obreve
Encoding: 335 335 265
Width: 570
GlyphClass: 2
Flags: MW
HStem: -10 72<232.5 337.5 232.5 354.5> 422 72<232.5 337.5> 594 54<261.5 308.5 261.5 327.5> 706 20G<136 200 200 200 370 434 434 434>
VStem: 50 89<194.5 289.5 194.5 311.5> 136 64<702.5 726 702.5 726> 370 64<702.5 726> 431 89<194.5 289.5>
LayerCount: 2
Back
Fore
SplineSet
370 726 m 1x36
 434 726 l 1
 434 641 370 594 285 594 c 0
 200 594 136 641 136 726 c 1
 200 726 l 1
 200 679 238 648 285 648 c 0
 332 648 370 679 370 726 c 1x36
139 242 m 0xc9
 139 147 180 62 285 62 c 0
 390 62 431 147 431 242 c 0
 431 337 390 422 285 422 c 0
 180 422 139 337 139 242 c 0xc9
50 242 m 0
 50 381 146 494 285 494 c 0
 424 494 520 381 520 242 c 0
 520 103 424 -10 285 -10 c 0
 146 -10 50 103 50 242 c 0
EndSplineSet
EndChar
StartChar: Ohungarumlaut
Encoding: 336 336 266
Width: 746
GlyphClass: 2
Flags: MW
HStem: -10 77<291.5 454.5 291.5 480> 623 77<291.5 454.5> 800 141<252 457 252 457 412 457 357 494 412 412>
VStem: 60 84<272 418 272 441> 602 84<272 418>
LayerCount: 2
Back
Fore
SplineSet
617 941 m 1
 494 800 l 1
 412 800 l 1
 517 941 l 1
 617 941 l 1
457 941 m 1
 334 800 l 1
 252 800 l 1
 357 941 l 1
 457 941 l 1
373 623 m 0
 210 623 144 491 144 345 c 0
 144 199 210 67 373 67 c 0
 536 67 602 199 602 345 c 0
 602 491 536 623 373 623 c 0
373 -10 m 0
 159 -10 60 153 60 345 c 0
 60 537 159 700 373 700 c 0
 587 700 686 537 686 345 c 0
 686 153 587 -10 373 -10 c 0
EndSplineSet
EndChar
StartChar: ohungarumlaut
Encoding: 337 337 267
Width: 570
GlyphClass: 2
Flags: MW
HStem: -10 72<232.5 337.5 232.5 354.5> 422 72<232.5 337.5> 594 141<164 369 164 369 324 369 269 406 324 324>
VStem: 50 89<194.5 289.5 194.5 311.5> 431 89<194.5 289.5>
LayerCount: 2
Back
Fore
SplineSet
529 735 m 1
 406 594 l 1
 324 594 l 1
 429 735 l 1
 529 735 l 1
369 735 m 1
 246 594 l 1
 164 594 l 1
 269 735 l 1
 369 735 l 1
139 242 m 0
 139 147 180 62 285 62 c 0
 390 62 431 147 431 242 c 0
 431 337 390 422 285 422 c 0
 180 422 139 337 139 242 c 0
50 242 m 0
 50 381 146 494 285 494 c 0
 424 494 520 381 520 242 c 0
 520 103 424 -10 285 -10 c 0
 146 -10 50 103 50 242 c 0
EndSplineSet
EndChar
StartChar: OE
Encoding: 338 338 268
Width: 1101
GlyphClass: 2
Flags: MW
HStem: -10 77<286.5 427> 0 77<681 1046 681 1046> 308 74<681 1003 681 1003> 616 74<681 1046 681 681> 623 77<286.5 427 261 449.5>
VStem: 55 84<272 418 272 441> 597 84<77 117 117 117 272 308 382 418 573 616>
LayerCount: 2
Back
Fore
SplineSet
368 -10 m 0xa6
 154 -10 55 153 55 345 c 0
 55 537 154 700 368 700 c 0xae
 486 700 557 650 597 573 c 1
 597 690 l 1
 1046 690 l 1
 1046 616 l 1
 681 616 l 1
 681 382 l 1
 1003 382 l 1
 1003 308 l 1
 681 308 l 1
 681 77 l 1
 1046 77 l 1
 1046 0 l 1
 597 0 l 1x76
 597 117 l 1
 557 40 486 -10 368 -10 c 0xa6
368 623 m 0
 205 623 139 491 139 345 c 0
 139 199 205 67 368 67 c 0
 531 67 597 199 597 345 c 0
 597 491 531 623 368 623 c 0
EndSplineSet
EndChar
StartChar: oe
Encoding: 339 339 269
Width: 890
GlyphClass: 2
Flags: MW
HStem: -6 71<599 669.5 596 681.5> 217 64<503 768 503 842 503 768> 422 72<227.5 321 210.5 332.5>
VStem: 45 89<194.5 289.5 194.5 311.5> 426 77<217 217 217 281 217 289.5> 768 76<281 281>
LayerCount: 2
Back
Fore
SplineSet
45 242 m 0
 45 381 141 494 280 494 c 0
 362 494 425 454 462 393 c 1
 494 453 550 494 634 494 c 0
 796 494 844 371 844 237 c 0
 844 230 842 217 842 217 c 1
 503 217 l 1
 504 135 550 65 642 65 c 0
 697 65 739 76 778 116 c 1
 831 72 l 1
 778 15 720 -6 643 -6 c 0
 555 -6 497 33 463 92 c 1
 426 30 363 -10 280 -10 c 0
 141 -10 45 103 45 242 c 0
134 242 m 0
 134 147 175 62 280 62 c 0
 385 62 426 147 426 242 c 0
 426 337 385 422 280 422 c 0
 175 422 134 337 134 242 c 0
634 424 m 0
 548 424 507 359 503 281 c 1
 768 281 l 1
 766 365 723 424 634 424 c 0
EndSplineSet
EndChar
StartChar: Racute
Encoding: 340 340 270
Width: 583
GlyphClass: 2
Flags: MW
HStem: -1 21G<95 179 95 95 461 558 461 461> 306 76<180 284 179 309> 614 75<180 297 297 298 180 180> 800 141<155 360 155 360>
VStem: 95 84<-1 306 -1 689> 155 205<800 941> 433 83<461 533.5>
LayerCount: 2
Back
Fore
SplineSet
360 941 m 1x14
 237 800 l 1
 155 800 l 1
 260 941 l 1
 360 941 l 1x14
298 614 m 2xea
 180 614 l 1
 180 382 l 1
 309 382 l 1
 381 386 433 426 433 496 c 0
 433 571 377 614 298 614 c 2xea
558 -1 m 1
 461 -1 l 1
 284 306 l 1
 179 306 l 1
 179 -1 l 1
 95 -1 l 1
 95 689 l 1
 297 689 l 2
 419 689 516 617 516 495 c 0
 516 405 458 338 371 317 c 1
 558 -1 l 1
EndSplineSet
EndChar
StartChar: racute
Encoding: 341 341 271
Width: 370
GlyphClass: 2
Flags: MW
HStem: 0 21G<83 163 83 83> 422 73<271.5 304.5> 468 20G<83 164 164 164> 595 141<194 399 194 399>
VStem: 83 80<0 229 0 488> 194 205<595 736>
LayerCount: 2
Back
Fore
SplineSet
399 736 m 1x14
 276 595 l 1
 194 595 l 1
 299 736 l 1
 399 736 l 1x14
385 470 m 1xc8
 355 404 l 1
 337 419 316 422 293 422 c 0xc8
 208 422 163 329 163 229 c 2
 163 0 l 1
 83 0 l 1
 83 488 l 1
 164 488 l 1xa8
 164 392 l 1
 184 453 245 495 298 495 c 0
 325 495 362 488 385 470 c 1xc8
EndSplineSet
EndChar
StartChar: uni0157
Encoding: 343 343 273
Width: 370
GlyphClass: 2
Flags: MW
HStem: -289 189<42 202 42 202> 0 21G<83 163 83 83> 422 73<271.5 304.5> 468 20G<83 164 164 164>
VStem: 42 160 83 80<0 229 0 488>
LayerCount: 2
Back
Fore
SplineSet
202 -100 m 1x88
 92 -289 l 1
 42 -289 l 1
 102 -100 l 1
 202 -100 l 1x88
385 470 m 1x64
 355 404 l 1
 337 419 316 422 293 422 c 0x64
 208 422 163 329 163 229 c 2
 163 0 l 1
 83 0 l 1
 83 488 l 1
 164 488 l 1x54
 164 392 l 1
 184 453 245 495 298 495 c 0
 325 495 362 488 385 470 c 1x64
EndSplineSet
EndChar
StartChar: Rcaron
Encoding: 344 344 274
Width: 583
GlyphClass: 2
Flags: MW
HStem: -1 21G<95 179 95 95 461 558 461 461> 306 76<180 284 179 309> 614 75<180 297 297 298 180 180> 800 184<139 300>
VStem: 95 84<-1 306 -1 689> 139 323 433 83<461 533.5>
LayerCount: 2
Back
Fore
SplineSet
379 984 m 1x14
 461 984 l 1
 300 800 l 1
 139 984 l 1
 221 984 l 1
 300 890 l 1
 379 984 l 1x14
298 614 m 2xea
 180 614 l 1
 180 382 l 1
 309 382 l 1
 381 386 433 426 433 496 c 0
 433 571 377 614 298 614 c 2xea
558 -1 m 1
 461 -1 l 1
 284 306 l 1
 179 306 l 1
 179 -1 l 1
 95 -1 l 1
 95 689 l 1
 297 689 l 2
 419 689 516 617 516 495 c 0
 516 405 458 338 371 317 c 1
 558 -1 l 1
EndSplineSet
EndChar
StartChar: rcaron
Encoding: 345 345 275
Width: 370
GlyphClass: 2
Flags: MW
HStem: 0 21G<83 163 83 83> 422 73<271.5 304.5> 468 20G<83 164 164 164> 595 184<74 235>
VStem: 74 323 83 80<0 229 0 488>
LayerCount: 2
Back
Fore
SplineSet
314 779 m 1x18
 396 779 l 1
 235 595 l 1
 74 779 l 1
 156 779 l 1
 235 685 l 1
 314 779 l 1x18
385 470 m 1xc4
 355 404 l 1
 337 419 316 422 293 422 c 0xc4
 208 422 163 329 163 229 c 2
 163 0 l 1
 83 0 l 1
 83 488 l 1
 164 488 l 1xa4
 164 392 l 1
 184 453 245 495 298 495 c 0
 325 495 362 488 385 470 c 1xc4
EndSplineSet
EndChar
StartChar: Sacute
Encoding: 346 346 276
Width: 546
GlyphClass: 2
Flags: MW
HStem: -8 77<242 323 242 344.5> 627 73<248.5 303> 800 141<236 441 236 441>
VStem: 40 80<178 202> 86 83<450 559.5 450 577> 236 205<800 941> 418 83<147.5 272>
LayerCount: 2
Back
Fore
SplineSet
441 941 m 1x24
 318 800 l 1
 236 800 l 1
 341 941 l 1
 441 941 l 1x24
283 -8 m 0xca
 168 -8 59 53 40 178 c 1
 120 202 l 1xd2
 130 112 201 69 283 69 c 0
 363 69 418 107 418 188 c 0
 418 356 86 313 86 523 c 0
 86 631 173 700 277 700 c 0
 359 700 428 667 471 590 c 1
 406 548 l 1
 378 601 329 627 277 627 c 0
 220 627 169 589 169 530 c 0
 169 370 501 415 501 193 c 0
 501 69 406 -8 283 -8 c 0xca
EndSplineSet
EndChar
StartChar: sacute
Encoding: 347 347 277
Width: 436
GlyphClass: 2
Flags: MW
HStem: -10 71<195 249 195 268.5> 428 67<191.5 240.5> 595 141<173 378 173 378>
VStem: 58 74<309.5 383.5 309.5 400.5> 173 205<595 736> 319 77<109.5 196.5>
LayerCount: 2
Back
Fore
SplineSet
378 736 m 1x28
 255 595 l 1
 173 595 l 1
 278 736 l 1
 378 736 l 1x28
224 -10 m 0xd4
 132 -10 61 47 40 113 c 1
 106 147 l 1
 121 100 166 61 224 61 c 0
 274 61 319 82 319 137 c 0
 319 256 58 177 58 358 c 0
 58 443 133 495 214 495 c 0
 296 495 350 450 379 398 c 1
 318 363 l 1
 298 400 267 428 214 428 c 0
 169 428 132 407 132 360 c 0
 132 259 396 332 396 141 c 0
 396 45 313 -10 224 -10 c 0xd4
EndSplineSet
EndChar
StartChar: Scedilla
Encoding: 350 350 280
Width: 546
GlyphClass: 2
Flags: MW
HStem: -244 51<255 277 255 290.5> 627 73<248.5 303>
VStem: 40 80<178 202> 86 83<450 559.5 450 577> 309 53<-162.5 -139> 418 83<147.5 272>
LayerCount: 2
Back
Fore
SplineSet
178 -183 m 1xdc
 224 -159 l 1
 228 -176 244 -193 266 -193 c 0
 288 -193 309 -175 309 -150 c 0
 309 -128 290 -114 266 -107 c 2
 208 -88 l 1
 251 -6 l 1
 148 4 57 65 40 178 c 1
 120 202 l 1xec
 130 112 201 69 283 69 c 0
 363 69 418 107 418 188 c 0
 418 356 86 313 86 523 c 0
 86 631 173 700 277 700 c 0
 359 700 428 667 471 590 c 1
 406 548 l 1
 378 601 329 627 277 627 c 0
 220 627 169 589 169 530 c 0
 169 370 501 415 501 193 c 0
 501 77 418 2 307 -7 c 1
 270 -63 l 1
 327 -74 362 -106 362 -146 c 0
 362 -202 315 -244 266 -244 c 0
 224 -244 191 -216 178 -183 c 1xdc
EndSplineSet
EndChar
StartChar: scedilla
Encoding: 351 351 281
Width: 436
GlyphClass: 2
Flags: MW
HStem: -246 51<196 218 196 231.5> 428 67<191.5 240.5>
VStem: 58 74<309.5 383.5 309.5 400.5> 250 53<-164.5 -141> 319 77<109.5 196.5>
LayerCount: 2
Back
Fore
SplineSet
119 -185 m 1
 165 -161 l 1
 169 -178 185 -195 207 -195 c 0
 229 -195 250 -177 250 -152 c 0
 250 -130 231 -116 207 -109 c 2
 149 -90 l 1
 192 -8 l 1
 116 4 59 55 40 113 c 1
 106 147 l 1
 121 100 166 61 224 61 c 0
 274 61 319 82 319 137 c 0
 319 256 58 177 58 358 c 0
 58 443 133 495 214 495 c 0
 296 495 350 450 379 398 c 1
 318 363 l 1
 298 400 267 428 214 428 c 0
 169 428 132 407 132 360 c 0
 132 259 396 332 396 141 c 0
 396 54 328 0 248 -9 c 1
 211 -65 l 1
 268 -76 303 -108 303 -148 c 0
 303 -204 256 -246 207 -246 c 0
 165 -246 132 -218 119 -185 c 1
EndSplineSet
EndChar
StartChar: scaron
Encoding: 353 353 283
Width: 436
GlyphClass: 2
Flags: MW
HStem: -10 71<195 249 195 268.5> 428 67<191.5 240.5> 595 184<53 214>
VStem: 53 323 58 74<309.5 383.5 309.5 400.5> 319 77<109.5 196.5>
LayerCount: 2
Back
Fore
SplineSet
293 779 m 1x30
 375 779 l 1
 214 595 l 1
 53 779 l 1
 135 779 l 1
 214 685 l 1
 293 779 l 1x30
224 -10 m 0xcc
 132 -10 61 47 40 113 c 1
 106 147 l 1
 121 100 166 61 224 61 c 0
 274 61 319 82 319 137 c 0
 319 256 58 177 58 358 c 0
 58 443 133 495 214 495 c 0
 296 495 350 450 379 398 c 1
 318 363 l 1
 298 400 267 428 214 428 c 0
 169 428 132 407 132 360 c 0
 132 259 396 332 396 141 c 0
 396 45 313 -10 224 -10 c 0xcc
EndSplineSet
EndChar
StartChar: uni0162
Encoding: 354 354 284
Width: 566
GlyphClass: 2
Flags: MW
HStem: -236 51<255 277 255 290.5> 619 71<10 241 10 556 325 325 325 556>
VStem: 241 84<0 619 0 619> 309 53<-154.5 -131>
LayerCount: 2
Back
Fore
SplineSet
178 -175 m 1xd0
 224 -151 l 1
 228 -168 244 -185 266 -185 c 0
 288 -185 309 -167 309 -142 c 0xd0
 309 -120 290 -106 266 -99 c 2
 208 -80 l 1
 250 0 l 1
 241 0 l 1
 241 619 l 1
 10 619 l 1
 10 690 l 1
 556 690 l 1
 556 619 l 1
 325 619 l 1
 325 0 l 1xe0
 306 0 l 1
 270 -55 l 1
 327 -66 362 -98 362 -138 c 0
 362 -194 315 -236 266 -236 c 0
 224 -236 191 -208 178 -175 c 1xd0
EndSplineSet
EndChar
StartChar: uni0163
Encoding: 355 355 285
Width: 336
GlyphClass: 2
Flags: MW
HStem: -246 51<203 225 203 238.5> 420 68<30 105 30 105 183 311>
VStem: 105 78<129 420 488 600 600 600> 257 53<-164.5 -141>
LayerCount: 2
Back
Fore
SplineSet
126 -185 m 1
 172 -161 l 1
 176 -178 192 -195 214 -195 c 0
 236 -195 257 -177 257 -152 c 0
 257 -130 238 -116 214 -109 c 2
 156 -90 l 1
 199 -7 l 1
 134 5 105 57 105 129 c 2
 105 420 l 1
 30 420 l 1
 30 488 l 1
 105 488 l 1
 105 600 l 1
 183 670 l 1
 183 488 l 1
 311 488 l 1
 311 420 l 1
 183 420 l 1
 183 127 l 2
 183 78 206 61 238 61 c 0
 279 61 301 71 301 71 c 1
 301 0 l 1
 301 0 284 -6 255 -9 c 1
 218 -65 l 1
 275 -76 310 -108 310 -148 c 0
 310 -204 263 -246 214 -246 c 0
 172 -246 139 -218 126 -185 c 1
EndSplineSet
EndChar
StartChar: Tcaron
Encoding: 356 356 286
Width: 566
GlyphClass: 2
Flags: MW
HStem: 0 21G<241 325 241 241> 619 71<10 241 10 556 325 556 325 325> 800 184<122 283>
VStem: 122 323 241 84<0 619 0 619>
LayerCount: 2
Back
Fore
SplineSet
362 984 m 1x30
 444 984 l 1
 283 800 l 1
 122 984 l 1
 204 984 l 1
 283 890 l 1
 362 984 l 1x30
556 619 m 1xc8
 325 619 l 1
 325 0 l 1
 241 0 l 1
 241 619 l 1
 10 619 l 1
 10 690 l 1
 556 690 l 1
 556 619 l 1xc8
EndSplineSet
EndChar
StartChar: tcaron
Encoding: 357 357 287
Width: 336
GlyphClass: 2
Flags: MW
HStem: -10 71<222 252.5> 420 68<30 106 30 106 186 311> 511 189<217 377 217 377>
VStem: 106 80<129 420 488 600 600 600> 217 160
LayerCount: 2
Back
Fore
SplineSet
377 700 m 1
 267 511 l 1
 217 511 l 1
 277 700 l 1
 377 700 l 1
231 -10 m 0
 144 -10 106 46 106 129 c 2
 106 420 l 1
 30 420 l 1
 30 488 l 1
 106 488 l 1
 106 600 l 1
 186 670 l 1
 186 488 l 1
 311 488 l 1
 311 420 l 1
 186 420 l 1
 186 127 l 2
 186 78 206 61 238 61 c 0
 279 61 301 71 301 71 c 1
 301 0 l 1
 301 0 274 -10 231 -10 c 0
EndSplineSet
EndChar
StartChar: Tbar
Encoding: 358 358 288
Width: 566
GlyphClass: 2
Flags: MW
HStem: 0 21G<241 325 241 241> 278 60<10 241 10 241 325 556> 619 71<10 241 10 556 325 325 325 556>
VStem: 241 84<0 278 0 278 338 619>
LayerCount: 2
Back
Fore
SplineSet
556 338 m 1
 556 278 l 1
 325 278 l 1
 325 0 l 1
 241 0 l 1
 241 278 l 1
 10 278 l 1
 10 338 l 1
 241 338 l 1
 241 619 l 1
 10 619 l 1
 10 690 l 1
 556 690 l 1
 556 619 l 1
 325 619 l 1
 325 338 l 1
 556 338 l 1
EndSplineSet
EndChar
StartChar: tbar
Encoding: 359 359 289
Width: 336
GlyphClass: 2
Flags: MW
HStem: -10 71<222 252.5> 278 60<30 105 30 105 183 310> 420 68<30 105 30 105 183 311>
VStem: 105 78<129 278 338 420 488 600 600 600>
LayerCount: 2
Back
Fore
SplineSet
310 338 m 1
 310 278 l 1
 183 278 l 1
 183 127 l 2
 183 78 206 61 238 61 c 0
 279 61 301 71 301 71 c 1
 301 0 l 1
 301 0 274 -10 231 -10 c 0
 144 -10 105 46 105 129 c 2
 105 278 l 1
 30 278 l 1
 30 338 l 1
 105 338 l 1
 105 420 l 1
 30 420 l 1
 30 488 l 1
 105 488 l 1
 105 600 l 1
 183 670 l 1
 183 488 l 1
 311 488 l 1
 311 420 l 1
 183 420 l 1
 183 338 l 1
 310 338 l 1
EndSplineSet
EndChar
StartChar: Utilde
Encoding: 360 360 290
Width: 648
GlyphClass: 2
Flags: MW
HStem: -10 80<262 386 262 410.5> 670 20G<80 164 164 164 484 568 568 568> 800 54<377 422 377 435> 880 53<221 265>
VStem: 80 84<283 690> 140 53<817 835 817 848> 450 57 484 84<283 288 288 690>
LayerCount: 2
Back
Fore
SplineSet
400 800 m 0x36
 320 800 292 880 238 880 c 0
 204 880 193 852 193 818 c 0
 193 816 193 815 194 813 c 2
 140 813 l 1
 140 883 172 933 236 933 c 0
 332 933 350 854 404 854 c 0
 440 854 450 884 450 930 c 1
 508 930 l 1
 508 847 470 800 400 800 c 0x36
568 690 m 1xc9
 568 288 l 2
 568 112 497 -10 324 -10 c 0
 151 -10 80 112 80 283 c 2
 80 690 l 1
 164 690 l 1
 164 283 l 2
 164 158 200 70 324 70 c 0
 448 70 484 158 484 283 c 2
 484 690 l 1
 568 690 l 1xc9
EndSplineSet
EndChar
StartChar: utilde
Encoding: 361 361 291
Width: 573
GlyphClass: 2
Flags: MW
HStem: -11 73<219.5 287> 0 21G<402 482 402 402> 468 20G<81 161 161 161 402 482 482 482> 594 54<334 379.5 334 392.5> 674 53<178.5 222.5>
VStem: 81 80<198 488> 98 53<607 612 607 642> 402 80<0 78 78 78 210 488> 408 57<701 724>
LayerCount: 2
Back
Fore
SplineSet
358 594 m 0x1a80
 277 594 250 674 195 674 c 0
 162 674 151 646 151 612 c 0
 151 610 151 609 151 607 c 2
 98 607 l 1
 98 677 130 727 194 727 c 0
 290 727 307 648 361 648 c 0
 398 648 408 678 408 724 c 1
 465 724 l 1
 465 641 427 594 358 594 c 0x1a80
482 0 m 1x65
 402 0 l 1x65
 402 78 l 1
 380 37 323 -11 251 -11 c 0
 128 -11 81 88 81 198 c 2
 81 488 l 1
 161 488 l 1
 161 198 l 2
 161 131 180 62 259 62 c 0xa5
 337 62 402 132 402 210 c 2
 402 488 l 1
 482 488 l 1
 482 0 l 1x65
EndSplineSet
EndChar
StartChar: umacron
Encoding: 363 363 293
Width: 573
GlyphClass: 2
Flags: MW
HStem: -11 73<219.5 287> 0 21G<402 482 402 402> 468 20G<81 161 161 161 402 482 482 482> 594 60<120 443 120 443>
VStem: 81 80<198 488> 120 323<594 654 594 654> 402 80<0 78 78 78 210 488>
LayerCount: 2
Back
Fore
SplineSet
443 654 m 1x14
 443 594 l 1
 120 594 l 1
 120 654 l 1
 443 654 l 1x14
482 0 m 1x6a
 402 0 l 1x6a
 402 78 l 1
 380 37 323 -11 251 -11 c 0
 128 -11 81 88 81 198 c 2
 81 488 l 1
 161 488 l 1
 161 198 l 2
 161 131 180 62 259 62 c 0xaa
 337 62 402 132 402 210 c 2
 402 488 l 1
 482 488 l 1
 482 0 l 1x6a
EndSplineSet
EndChar
StartChar: Ubreve
Encoding: 364 364 294
Width: 648
GlyphClass: 2
Flags: MW
HStem: -10 80<262 386 262 410.5> 670 20G<80 164 164 164 484 568 568 568> 800 54<300.5 347.5 300.5 366.5> 912 20G<175 239 239 239 409 473 473 473>
VStem: 80 84<283 690> 175 64<908.5 932 908.5 932> 409 64<908.5 932> 484 84<283 288 288 690>
LayerCount: 2
Back
Fore
SplineSet
409 932 m 1
 473 932 l 1
 473 847 409 800 324 800 c 0
 239 800 175 847 175 932 c 1
 239 932 l 1
 239 885 277 854 324 854 c 0
 371 854 409 885 409 932 c 1
568 690 m 1
 568 288 l 2
 568 112 497 -10 324 -10 c 0
 151 -10 80 112 80 283 c 2
 80 690 l 1
 164 690 l 1
 164 283 l 2
 164 158 200 70 324 70 c 0
 448 70 484 158 484 283 c 2
 484 690 l 1
 568 690 l 1
EndSplineSet
EndChar
StartChar: ubreve
Encoding: 365 365 295
Width: 573
GlyphClass: 2
Flags: MW
HStem: -11 73<219.5 287> 0 21G<402 482 402 402> 468 20G<81 161 161 161 402 482 482 482> 594 54<258.5 305 258.5 324.5> 706 20G<132 196 196 196 366 430 430 430>
VStem: 81 80<198 488> 132 64<702.5 726 702.5 726> 366 64<702.5 726> 402 80<0 78 78 78 210 488>
LayerCount: 2
Back
Fore
SplineSet
366 726 m 1x1b
 430 726 l 1
 430 641 367 594 282 594 c 0
 196 594 132 641 132 726 c 1
 196 726 l 1
 196 679 235 648 282 648 c 0
 328 648 366 679 366 726 c 1x1b
482 0 m 1x6480
 402 0 l 1x6480
 402 78 l 1
 380 37 323 -11 251 -11 c 0
 128 -11 81 88 81 198 c 2
 81 488 l 1
 161 488 l 1
 161 198 l 2
 161 131 180 62 259 62 c 0xa480
 337 62 402 132 402 210 c 2
 402 488 l 1
 482 488 l 1
 482 0 l 1x6480
EndSplineSet
EndChar
StartChar: Uring
Encoding: 366 366 296
Width: 648
GlyphClass: 2
Flags: MW
HStem: -10 80<262 386 262 410.5> 670 20G<80 164 164 164 484 568 568 568> 800 49<309.5 337 309.5 351> 946 49<309 337.5>
VStem: 80 84<283 690> 226 49<883.5 912.5 883.5 925> 373 49<884 911.5> 484 84<283 288 288 690>
LayerCount: 2
Back
Fore
SplineSet
275 898 m 0
 275 869 296 849 323 849 c 0
 351 849 373 870 373 898 c 0
 373 925 352 946 323 946 c 0
 295 946 275 927 275 898 c 0
226 898 m 0
 226 952 269 995 324 995 c 0
 377 995 422 953 422 898 c 0
 422 844 378 800 324 800 c 0
 269 800 226 844 226 898 c 0
568 690 m 1
 568 288 l 2
 568 112 497 -10 324 -10 c 0
 151 -10 80 112 80 283 c 2
 80 690 l 1
 164 690 l 1
 164 283 l 2
 164 158 200 70 324 70 c 0
 448 70 484 158 484 283 c 2
 484 690 l 1
 568 690 l 1
EndSplineSet
EndChar
StartChar: uring
Encoding: 367 367 297
Width: 573
GlyphClass: 2
Flags: MW
HStem: -11 73<219.5 287> 0 21G<402 482 402 402> 468 20G<81 161 161 161 402 482 482 482> 594 49<267.5 294.5 267.5 308> 740 49<266.5 295.5>
VStem: 81 80<198 488> 184 49<677.5 706.5 677.5 719> 330 49<678 705.5> 402 80<0 78 78 78 210 488>
LayerCount: 2
Back
Fore
SplineSet
233 692 m 0x1b
 233 663 254 643 281 643 c 0
 308 643 330 664 330 692 c 0
 330 719 310 740 281 740 c 0
 252 740 233 721 233 692 c 0x1b
184 692 m 0
 184 746 227 789 281 789 c 0
 334 789 379 747 379 692 c 0
 379 638 335 594 281 594 c 0
 226 594 184 638 184 692 c 0
482 0 m 1x6480
 402 0 l 1x6480
 402 78 l 1
 380 37 323 -11 251 -11 c 0
 128 -11 81 88 81 198 c 2
 81 488 l 1
 161 488 l 1
 161 198 l 2
 161 131 180 62 259 62 c 0xa480
 337 62 402 132 402 210 c 2
 402 488 l 1
 482 488 l 1
 482 0 l 1x6480
EndSplineSet
EndChar
StartChar: Uhungarumlaut
Encoding: 368 368 298
Width: 648
GlyphClass: 2
Flags: MW
HStem: -10 80<262 386 262 410.5> 670 20G<80 164 164 164 484 568 568 568> 800 141<203 408 203 408 363 408 308 445 363 363>
VStem: 80 84<283 690> 484 84<283 288 288 690>
LayerCount: 2
Back
Fore
SplineSet
568 941 m 1
 445 800 l 1
 363 800 l 1
 468 941 l 1
 568 941 l 1
408 941 m 1
 285 800 l 1
 203 800 l 1
 308 941 l 1
 408 941 l 1
568 690 m 1
 568 288 l 2
 568 112 497 -10 324 -10 c 0
 151 -10 80 112 80 283 c 2
 80 690 l 1
 164 690 l 1
 164 283 l 2
 164 158 200 70 324 70 c 0
 448 70 484 158 484 283 c 2
 484 690 l 1
 568 690 l 1
EndSplineSet
EndChar
StartChar: uhungarumlaut
Encoding: 369 369 299
Width: 573
GlyphClass: 2
Flags: MW
HStem: -11 73<219.5 287> 0 21G<402 482 402 402> 468 20G<81 161 161 161 402 482 482 482> 594 141<160 366 160 366 320 366 266 402 320 320>
VStem: 81 80<198 488> 402 80<0 78 78 78 210 488>
LayerCount: 2
Back
Fore
SplineSet
525 735 m 1x10
 402 594 l 1
 320 594 l 1
 425 735 l 1
 525 735 l 1x10
366 735 m 1
 243 594 l 1
 160 594 l 1
 266 735 l 1
 366 735 l 1
482 0 m 1x6c
 402 0 l 1x6c
 402 78 l 1
 380 37 323 -11 251 -11 c 0
 128 -11 81 88 81 198 c 2
 81 488 l 1
 161 488 l 1
 161 198 l 2
 161 131 180 62 259 62 c 0xac
 337 62 402 132 402 210 c 2
 402 488 l 1
 482 488 l 1
 482 0 l 1x6c
EndSplineSet
EndChar
StartChar: Uogonek
Encoding: 370 370 300
Width: 648
GlyphClass: 2
Flags: MW
HStem: -222 53<288 314 288 328.5> 670 20G<80 164 164 164 484 568 568 568>
VStem: 80 84<283 690> 205 51<-133 -90.5> 484 84<283 288 288 690>
LayerCount: 2
Back
Fore
SplineSet
568 690 m 1
 568 288 l 2
 568 122 505 4 353 -9 c 1
 323 -22 256 -58 256 -116 c 0
 256 -150 276 -169 300 -169 c 0
 328 -169 345 -159 360 -138 c 1
 404 -167 l 1
 382 -201 353 -222 304 -222 c 0
 247 -222 205 -184 205 -123 c 0
 205 -58 257 -18 274 -6 c 1
 137 16 80 130 80 283 c 2
 80 690 l 1
 164 690 l 1
 164 283 l 2
 164 158 200 70 324 70 c 0
 448 70 484 158 484 283 c 2
 484 690 l 1
 568 690 l 1
EndSplineSet
EndChar
StartChar: uogonek
Encoding: 371 371 301
Width: 573
GlyphClass: 2
Flags: MW
HStem: -223 53<405.5 431 405.5 446.5> -11 73<219.5 287> 468 20G<80 161 161 161 402 483 483 483>
VStem: 80 81<198 488> 323 51<-134 -85> 402 81<0 78 78 78 210 488 0 488>
LayerCount: 2
Back
Fore
SplineSet
422 -223 m 0
 365 -223 323 -185 323 -124 c 0
 323 -46 402 0 402 0 c 1
 402 78 l 1
 380 37 323 -11 251 -11 c 0
 128 -11 80 88 80 198 c 2
 80 488 l 1
 161 488 l 1
 161 198 l 2
 161 131 180 62 259 62 c 0
 337 62 402 132 402 210 c 2
 402 488 l 1
 483 488 l 1
 483 0 l 1
 483 0 374 -42 374 -117 c 0
 374 -151 394 -170 417 -170 c 0
 445 -170 463 -160 478 -139 c 1
 522 -168 l 1
 500 -202 471 -223 422 -223 c 0
EndSplineSet
EndChar
StartChar: Wcircumflex
Encoding: 372 372 302
Width: 931
GlyphClass: 2
Flags: MW
HStem: 0 21G<211 301 211 211 630 720 630 630> 670 20G<15 102 102 102 829 916 916 916> 800 184<304 466 304 466 466 627 466 545>
VStem: 304 323<800 800>
LayerCount: 2
Back
Fore
SplineSet
545 800 m 1
 466 894 l 1
 386 800 l 1
 304 800 l 1
 466 984 l 1
 627 800 l 1
 545 800 l 1
916 690 m 1
 720 0 l 1
 630 0 l 1
 466 494 l 1
 301 0 l 1
 211 0 l 1
 15 690 l 1
 102 690 l 1
 263 108 l 1
 432 630 l 1
 499 630 l 1
 668 108 l 1
 829 690 l 1
 916 690 l 1
EndSplineSet
EndChar
StartChar: wcircumflex
Encoding: 373 373 303
Width: 700
GlyphClass: 2
Flags: MW
HStem: 0 21G<162 238 162 162 462 538 462 462> 468 20G<23 108 108 108 314 386 386 386 592 677 677 677> 594 184<191 352 191 352 352 514 352 432>
VStem: 191 323<594 594>
LayerCount: 2
Back
Fore
SplineSet
432 594 m 1
 352 688 l 1
 273 594 l 1
 191 594 l 1
 352 778 l 1
 514 594 l 1
 432 594 l 1
677 488 m 1
 538 0 l 1
 462 0 l 1
 350 384 l 1
 238 0 l 1
 162 0 l 1
 23 488 l 1
 108 488 l 1
 205 109 l 1
 314 488 l 1
 386 488 l 1
 495 110 l 1
 592 488 l 1
 677 488 l 1
EndSplineSet
EndChar
StartChar: Ycircumflex
Encoding: 374 374 304
Width: 632
GlyphClass: 2
Flags: MW
HStem: 0 21G<275 357 275 275> 670 20G<10 108 108 108 524 622 622 622> 800 184<155 316 155 316 316 477 316 395>
VStem: 155 323 275 82<0 270 0 270>
LayerCount: 2
Back
Fore
SplineSet
395 800 m 1x30
 316 894 l 1
 237 800 l 1
 155 800 l 1
 316 984 l 1
 477 800 l 1
 395 800 l 1x30
622 690 m 1xc8
 357 270 l 1
 357 0 l 1
 275 0 l 1
 275 270 l 1
 10 690 l 1
 108 690 l 1
 316 354 l 1
 524 690 l 1
 622 690 l 1xc8
EndSplineSet
EndChar
StartChar: ycircumflex
Encoding: 375 375 305
Width: 487
GlyphClass: 2
Flags: MW
HStem: 468 20G<20 108 108 108 384 472 472 472> 594 184<85 246 85 246 246 407 246 325>
VStem: 85 323
LayerCount: 2
Back
Fore
SplineSet
325 594 m 1
 246 688 l 1
 167 594 l 1
 85 594 l 1
 246 778 l 1
 407 594 l 1
 325 594 l 1
472 488 m 1
 208 -210 l 1
 125 -210 l 1
 207 5 l 1
 20 488 l 1
 108 488 l 1
 247 98 l 1
 384 488 l 1
 472 488 l 1
EndSplineSet
EndChar
StartChar: Ydieresis
Encoding: 376 376 306
Width: 632
GlyphClass: 2
Flags: MW
HStem: 0 21G<275 357 275 275> 670 20G<10 108 108 108 524 622 622 622> 800 99<174 264 174 264 368 458>
VStem: 174 90<800 899 800 899> 275 82<0 270 0 270> 368 90<800 899 800 899>
CounterMasks: 1 1c
LayerCount: 2
Back
Fore
SplineSet
458 899 m 1
 458 800 l 1
 368 800 l 1
 368 899 l 1
 458 899 l 1
264 899 m 1
 264 800 l 1
 174 800 l 1
 174 899 l 1
 264 899 l 1
622 690 m 1
 357 270 l 1
 357 0 l 1
 275 0 l 1
 275 270 l 1
 10 690 l 1
 108 690 l 1
 316 354 l 1
 524 690 l 1
 622 690 l 1
EndSplineSet
EndChar
StartChar: Zacute
Encoding: 377 377 307
Width: 631
GlyphClass: 2
Flags: MW
HStem: 0 77<153 581 153 581> 616 74<67 474 67 581> 800 141<283 488 283 488>
VStem: 283 205<800 941>
LayerCount: 2
Back
Fore
SplineSet
488 941 m 1
 365 800 l 1
 283 800 l 1
 388 941 l 1
 488 941 l 1
581 0 m 1
 45 0 l 1
 45 65 l 1
 474 616 l 1
 67 616 l 1
 67 690 l 1
 581 690 l 1
 581 622 l 1
 153 77 l 1
 581 77 l 1
 581 0 l 1
EndSplineSet
EndChar
StartChar: zacute
Encoding: 378 378 308
Width: 456
GlyphClass: 2
Flags: MW
HStem: 0 67<134 423 134 423> 420 68<47 326 47 423> 594 141<194 399 194 399>
VStem: 194 205<594 735>
LayerCount: 2
Back
Fore
SplineSet
399 735 m 1
 276 594 l 1
 194 594 l 1
 299 735 l 1
 399 735 l 1
423 0 m 1
 33 0 l 1
 33 59 l 1
 326 420 l 1
 47 420 l 1
 47 488 l 1
 423 488 l 1
 423 423 l 1
 134 67 l 1
 423 67 l 1
 423 0 l 1
EndSplineSet
EndChar
StartChar: Zdotaccent
Encoding: 379 379 309
Width: 631
GlyphClass: 2
Flags: MW
HStem: 0 77<153 581 153 581> 616 74<67 474 67 581> 800 125<306 341>
VStem: 262 125
LayerCount: 2
Back
Fore
SplineSet
262 863 m 0
 262 898 288 925 324 925 c 0
 358 925 386 898 386 863 c 0
 386 828 358 800 324 800 c 0
 288 800 262 828 262 863 c 0
581 0 m 1
 45 0 l 1
 45 65 l 1
 474 616 l 1
 67 616 l 1
 67 690 l 1
 581 690 l 1
 581 622 l 1
 153 77 l 1
 581 77 l 1
 581 0 l 1
EndSplineSet
EndChar
StartChar: zdotaccent
Encoding: 380 380 310
Width: 456
GlyphClass: 2
Flags: MW
HStem: 0 67<134 423 134 423> 420 68<47 326 47 423> 594 125<217 252>
VStem: 172 125
LayerCount: 2
Back
Fore
SplineSet
172 657 m 0
 172 692 200 719 234 719 c 0
 270 719 298 692 298 657 c 0
 298 622 270 594 234 594 c 0
 200 594 172 622 172 657 c 0
423 0 m 1
 33 0 l 1
 33 59 l 1
 326 420 l 1
 47 420 l 1
 47 488 l 1
 423 488 l 1
 423 423 l 1
 134 67 l 1
 423 67 l 1
 423 0 l 1
EndSplineSet
EndChar
StartChar: Zcaron
Encoding: 381 381 311
Width: 631
GlyphClass: 2
Flags: MW
HStem: 0 77<153 581 153 581> 616 74<67 474 67 581> 800 184<163 324>
VStem: 163 323
LayerCount: 2
Back
Fore
SplineSet
403 984 m 1
 485 984 l 1
 324 800 l 1
 163 984 l 1
 245 984 l 1
 324 890 l 1
 403 984 l 1
581 0 m 1
 45 0 l 1
 45 65 l 1
 474 616 l 1
 67 616 l 1
 67 690 l 1
 581 690 l 1
 581 622 l 1
 153 77 l 1
 581 77 l 1
 581 0 l 1
EndSplineSet
EndChar
StartChar: zcaron
Encoding: 382 382 312
Width: 456
GlyphClass: 2
Flags: MW
HStem: 0 67<134 423 134 423> 420 68<47 326 47 423> 594 184<74 235>
VStem: 74 323
LayerCount: 2
Back
Fore
SplineSet
314 778 m 1
 396 778 l 1
 235 594 l 1
 74 778 l 1
 156 778 l 1
 235 684 l 1
 314 778 l 1
423 0 m 1
 33 0 l 1
 33 59 l 1
 326 420 l 1
 47 420 l 1
 47 488 l 1
 423 488 l 1
 423 423 l 1
 134 67 l 1
 423 67 l 1
 423 0 l 1
EndSplineSet
EndChar
StartChar: uni0189
Encoding: 393 393 313
Width: 681
GlyphClass: 2
Flags: MW
HStem: 0 77<174 257 257 269> 278 60<35 90 35 90 174 380> 614 76<174 268 174 174>
VStem: 90 84<77 278 77 278 77 278 338 614> 534 85<340 433>
LayerCount: 2
Back
Fore
SplineSet
380 338 m 1
 380 278 l 1
 174 278 l 1
 174 77 l 1
 257 77 l 2
 416 77 534 157 534 345 c 0
 534 521 448 614 268 614 c 2
 174 614 l 1
 174 338 l 1
 380 338 l 1
619 340 m 0
 618 122 492 0 269 0 c 2
 90 0 l 1
 90 278 l 1
 35 278 l 1
 35 338 l 1
 90 338 l 1
 90 690 l 1
 270 690 l 2
 495 690 619 567 619 340 c 0
EndSplineSet
EndChar
StartChar: florin
Encoding: 402 402 314
Width: 337
GlyphClass: 2
Flags: MW
HStem: -223 70<-52 6 -52 20> 419 69<26 113 26 113 183 332> 637 70<229 253.5>
VStem: 113 70<0 419 488 564>
LayerCount: 2
Back
Fore
SplineSet
345 669 m 1
 299 615 l 1
 281 631 262 637 245 637 c 0
 213 637 183 614 183 564 c 2
 183 488 l 1
 332 488 l 1
 332 419 l 1
 183 419 l 1
 183 0 l 2
 183 -147 92 -223 -52 -223 c 1
 -52 -153 l 1
 64 -153 113 -109 113 0 c 2
 113 419 l 1
 26 419 l 1
 26 488 l 1
 113 488 l 1
 113 564 l 2
 113 648 173 707 245 707 c 0
 280 707 315 694 345 669 c 1
EndSplineSet
EndChar
StartChar: Ohorn
Encoding: 416 416 315
Width: 746
GlyphClass: 2
Flags: MW
HStem: -10 77<291.5 454.5 291.5 480> 511 189 623 77<291.5 454.5>
VStem: 60 84<272 418 272 441> 602 84<272 418> 713 160
LayerCount: 2
Back
Fore
SplineSet
873 700 m 1x44
 763 511 l 1
 713 511 l 1
 773 700 l 1
 873 700 l 1x44
373 623 m 0xb8
 210 623 144 491 144 345 c 0
 144 199 210 67 373 67 c 0
 536 67 602 199 602 345 c 0
 602 491 536 623 373 623 c 0xb8
373 -10 m 0
 159 -10 60 153 60 345 c 0
 60 537 159 700 373 700 c 0
 587 700 686 537 686 345 c 0
 686 153 587 -10 373 -10 c 0
EndSplineSet
EndChar
StartChar: ohorn
Encoding: 417 417 316
Width: 570
GlyphClass: 2
Flags: MW
HStem: -10 72<232.5 337.5 232.5 354.5> 305 189<215.5 593 215.5 543> 422 72<232.5 337.5>
VStem: 50 89<194.5 289.5 194.5 311.5> 431 89<194.5 289.5> 543 160
LayerCount: 2
Back
Fore
SplineSet
703 494 m 1x44
 593 305 l 1
 543 305 l 1
 603 494 l 1
 703 494 l 1x44
139 242 m 0xb8
 139 147 180 62 285 62 c 0
 390 62 431 147 431 242 c 0
 431 337 390 422 285 422 c 0
 180 422 139 337 139 242 c 0xb8
50 242 m 0
 50 381 146 494 285 494 c 0
 424 494 520 381 520 242 c 0
 520 103 424 -10 285 -10 c 0
 146 -10 50 103 50 242 c 0
EndSplineSet
EndChar
StartChar: Uhorn
Encoding: 431 431 317
Width: 648
GlyphClass: 2
Flags: MW
HStem: -10 80<262 386 262 410.5> 511 189<594 754 594 754> 670 20G<80 164 164 164 484 568 568 568>
VStem: 80 84<283 690> 484 84<283 288 288 690> 594 160
LayerCount: 2
Back
Fore
SplineSet
754 700 m 1x44
 644 511 l 1
 594 511 l 1
 654 700 l 1
 754 700 l 1x44
568 690 m 1xb8
 568 288 l 2
 568 112 497 -10 324 -10 c 0
 151 -10 80 112 80 283 c 2
 80 690 l 1
 164 690 l 1
 164 283 l 2
 164 158 200 70 324 70 c 0
 448 70 484 158 484 283 c 2
 484 690 l 1
 568 690 l 1xb8
EndSplineSet
EndChar
StartChar: uhorn
Encoding: 432 432 318
Width: 573
GlyphClass: 2
Flags: MW
HStem: -11 73<219.5 287> 0 21G<402 482 402 402> 305 189<509 669 509 669> 468 20G<81 161 161 161 402 482 482 482>
VStem: 81 80<198 488> 402 80<0 78 78 78 210 488> 509 160
LayerCount: 2
Back
Fore
SplineSet
669 494 m 1x22
 559 305 l 1
 509 305 l 1
 569 494 l 1
 669 494 l 1x22
482 0 m 1x5c
 402 0 l 1x5c
 402 78 l 1
 380 37 323 -11 251 -11 c 0
 128 -11 81 88 81 198 c 2
 81 488 l 1
 161 488 l 1
 161 198 l 2
 161 131 180 62 259 62 c 0x9c
 337 62 402 132 402 210 c 2
 402 488 l 1
 482 488 l 1
 482 0 l 1x5c
EndSplineSet
EndChar
StartChar: uni01C4
Encoding: 452 452 319
Width: 1312
GlyphClass: 2
Flags: MW
HStem: 0 77<174 257 257 269 834 1262> 614 76<174 268 174 174> 616 74<748 1155> 800 184<844 1005>
VStem: 90 84<77 77 77 614> 534 85<340 433> 844 323
LayerCount: 2
Back
Fore
SplineSet
1084 984 m 1xb2
 1166 984 l 1
 1005 800 l 1
 844 984 l 1
 926 984 l 1
 1005 890 l 1
 1084 984 l 1xb2
1262 0 m 1
 726 0 l 1
 726 65 l 1
 1155 616 l 1
 748 616 l 1
 748 690 l 1
 1262 690 l 1
 1262 622 l 1
 834 77 l 1
 1262 77 l 1
 1262 0 l 1
174 77 m 1xcc
 257 77 l 2
 416 77 534 157 534 345 c 0
 534 521 448 614 268 614 c 2
 174 614 l 1
 174 77 l 1xcc
619 340 m 0
 618 122 492 0 269 0 c 2
 90 0 l 1
 90 690 l 1
 270 690 l 2
 495 690 619 567 619 340 c 0
EndSplineSet
EndChar
StartChar: uni01C5
Encoding: 453 453 320
Width: 1137
GlyphClass: 2
Flags: MW
HStem: 0 67<815 1104 815 1104> 0 77<174 257 257 269> 420 68<728 1007 728 1104> 594 184<755 916> 614 76<174 268 174 174>
VStem: 90 84<77 77 77 614> 534 85<340 433> 755 323
LayerCount: 2
Back
Fore
SplineSet
995 778 m 1xb1
 1077 778 l 1
 916 594 l 1
 755 778 l 1
 837 778 l 1
 916 684 l 1
 995 778 l 1xb1
1104 0 m 1
 714 0 l 1
 714 59 l 1
 1007 420 l 1
 728 420 l 1
 728 488 l 1
 1104 488 l 1
 1104 423 l 1
 815 67 l 1
 1104 67 l 1
 1104 0 l 1
174 77 m 1x4e
 257 77 l 2
 416 77 534 157 534 345 c 0
 534 521 448 614 268 614 c 2
 174 614 l 1
 174 77 l 1x4e
619 340 m 0
 618 122 492 0 269 0 c 2
 90 0 l 1
 90 690 l 1
 270 690 l 2
 495 690 619 567 619 340 c 0
EndSplineSet
EndChar
StartChar: uni01C6
Encoding: 454 454 321
Width: 1036
GlyphClass: 2
Flags: MW
HStem: -10 73<224.5 286> 0 21G<402 482 402 402 613 1003 613 613> 0 67<714 1003 714 1003> 420 68<627 906 627 1003> 424 74<224.5 286 188 319.5> 594 184<654 815> 670 20G<402 482 482 482>
VStem: 54 81 402 80<0 65 65 65 423 690> 654 323
LayerCount: 2
Back
Fore
SplineSet
894 778 m 1x3440
 976 778 l 1
 815 594 l 1
 654 778 l 1
 736 778 l 1
 815 684 l 1
 894 778 l 1x3440
1003 0 m 1
 613 0 l 1
 613 59 l 1
 906 420 l 1
 627 420 l 1
 627 488 l 1
 1003 488 l 1
 1003 423 l 1
 714 67 l 1
 1003 67 l 1
 1003 0 l 1
482 0 m 1x4b80
 402 0 l 1x4b80
 402 65 l 1
 370 19 320 -10 252 -10 c 0x8b80
 124 -10 54 104 54 244 c 0
 54 384 124 498 252 498 c 0
 320 498 370 469 402 423 c 1
 402 690 l 1
 482 690 l 1
 482 0 l 1x4b80
134 244 m 0
 134 146 177 63 272 63 c 0x8b80
 367 63 407 146 407 244 c 0
 407 341 367 424 272 424 c 0
 177 424 134 341 134 244 c 0
EndSplineSet
EndChar
StartChar: uni01C7
Encoding: 455 455 322
Width: 1024
GlyphClass: 2
Flags: MW
HStem: -10 75<692 789 692 813.5> 0 77<179 474 179 474> 616 74<605 866> 670 20G<95 179 179 179 605 949 949 949>
VStem: 95 84<77 690 77 690 77 690> 523 82<196 208> 866 83<239 244 244 616 616 616>
LayerCount: 2
Back
Fore
SplineSet
605 616 m 1xa6
 605 690 l 1
 949 690 l 1
 949 244 l 2
 949 94 891 -10 736 -10 c 0
 607 -10 531 83 523 196 c 1
 605 208 l 1
 610 135 648 65 736 65 c 0
 842 65 866 140 866 239 c 2
 866 616 l 1
 605 616 l 1xa6
474 0 m 1x58
 95 0 l 1
 95 690 l 1
 179 690 l 1
 179 77 l 1
 474 77 l 1
 474 0 l 1x58
EndSplineSet
EndChar
StartChar: uni01C8
Encoding: 456 456 323
Width: 770
GlyphClass: 2
Flags: MW
HStem: -214 70<538 570.5 538 598.5> 0 77<179 474 179 474> 468 20G<601 681 681 681> 594 99<597 687 597 687> 670 20G<95 179 179 179>
VStem: 95 84<77 690 77 690 77 690> 601 80<-82 -71 -71 488>
LayerCount: 2
Back
Fore
SplineSet
687 693 m 1xb2
 687 594 l 1
 597 594 l 1
 597 693 l 1
 687 693 l 1xb2
554 -214 m 0
 518 -214 478 -199 478 -199 c 1
 496 -136 l 1
 496 -136 525 -144 551 -144 c 0
 590 -144 601 -115 601 -82 c 2
 601 488 l 1
 681 488 l 1
 681 -71 l 2
 681 -154 643 -214 554 -214 c 0
474 0 m 1x4c
 95 0 l 1
 95 690 l 1
 179 690 l 1
 179 77 l 1
 474 77 l 1
 474 0 l 1x4c
EndSplineSet
EndChar
StartChar: uni01C9
Encoding: 457 457 324
Width: 535
GlyphClass: 2
Flags: MW
HStem: -214 70<303 335.5 303 363.5> -10 74<187 194.5> 468 20G<366 446 446 446> 594 99<362 452 362 452> 670 20G<93 173 173 173>
VStem: 93 80<99 690 93 690> 366 80<-82 -71 -71 488>
LayerCount: 2
Back
Fore
SplineSet
452 693 m 1xb2
 452 594 l 1
 362 594 l 1
 362 693 l 1
 452 693 l 1xb2
319 -214 m 0
 283 -214 243 -199 243 -199 c 1
 261 -136 l 1
 261 -136 290 -144 316 -144 c 0
 355 -144 366 -115 366 -82 c 2
 366 488 l 1
 446 488 l 1
 446 -71 l 2
 446 -154 408 -214 319 -214 c 0
177 -10 m 0x4c
 105 -10 93 36 93 99 c 2
 93 690 l 1
 173 690 l 1
 173 93 l 1
 173 93 174 64 200 64 c 0
 221 64 244 69 244 69 c 1
 244 0 l 1
 244 0 212 -10 177 -10 c 0x4c
EndSplineSet
EndChar
StartChar: uni01CA
Encoding: 458 458 325
Width: 1195
GlyphClass: 2
Flags: MW
HStem: -10 75<863 960 863 984.5> 0 21G<94 178 94 94 474 585 474 474> 616 74<776 1037> 670 20G<94 205 205 205 502 585 585 585 776 1120 1120 1120>
VStem: 94 84<0 583 0 690> 502 83<107 690> 694 82<196 208> 1037 83<239 244 244 616 616 616>
LayerCount: 2
Back
Fore
SplineSet
776 616 m 1xa3
 776 690 l 1
 1120 690 l 1
 1120 244 l 2
 1120 94 1062 -10 907 -10 c 0
 778 -10 702 83 694 196 c 1
 776 208 l 1
 781 135 819 65 907 65 c 0
 1013 65 1037 140 1037 239 c 2
 1037 616 l 1
 776 616 l 1xa3
585 0 m 1x5c
 474 0 l 1
 178 583 l 1
 178 0 l 1
 94 0 l 1
 94 690 l 1
 205 690 l 1
 502 107 l 1
 502 690 l 1
 585 690 l 1
 585 0 l 1x5c
EndSplineSet
EndChar
StartChar: uni01CB
Encoding: 459 459 326
Width: 941
GlyphClass: 2
Flags: MW
HStem: -214 70<709 741.5 709 769.5> 0 21G<94 178 94 94 474 585 474 474> 468 20G<772 852 852 852> 594 99<768 858 768 858> 670 20G<94 205 205 205 502 585 585 585>
VStem: 94 84<0 583 0 690> 502 83<107 690> 772 80<-82 -71 -71 488>
LayerCount: 2
Back
Fore
SplineSet
858 693 m 1xb1
 858 594 l 1
 768 594 l 1
 768 693 l 1
 858 693 l 1xb1
725 -214 m 0
 689 -214 649 -199 649 -199 c 1
 667 -136 l 1
 667 -136 696 -144 722 -144 c 0
 761 -144 772 -115 772 -82 c 2
 772 488 l 1
 852 488 l 1
 852 -71 l 2
 852 -154 814 -214 725 -214 c 0
585 0 m 1x4e
 474 0 l 1
 178 583 l 1
 178 0 l 1
 94 0 l 1
 94 690 l 1
 205 690 l 1
 502 107 l 1
 502 690 l 1
 585 690 l 1
 585 0 l 1x4e
EndSplineSet
EndChar
StartChar: uni01CC
Encoding: 460 460 327
Width: 834
GlyphClass: 2
Flags: MW
HStem: -214 70<602 634.5 602 662.5> 1 20G 420 76<293 353.5> 468 20G<92 172 172 172 665 745 745 745> 594 99<661 751 661 751>
VStem: 92 80<1 275 413 488> 413 80<0 287 287 297> 665 80<-82 -71 -71 488>
LayerCount: 2
Back
Fore
SplineSet
751 693 m 1x99
 751 594 l 1
 661 594 l 1
 661 693 l 1
 751 693 l 1x99
618 -214 m 0
 582 -214 542 -199 542 -199 c 1
 560 -136 l 1
 560 -136 589 -144 615 -144 c 0
 654 -144 665 -115 665 -82 c 2
 665 488 l 1
 745 488 l 1
 745 -71 l 2
 745 -154 707 -214 618 -214 c 0
493 0 m 1x66
 413 0 l 1
 413 287 l 2
 413 354 393 420 314 420 c 0x66
 236 420 172 353 172 275 c 2
 172 1 l 1
 92 1 l 1
 92 488 l 1
 172 488 l 1x56
 172 413 l 1
 204 464 263 496 323 496 c 0
 446 496 493 402 493 297 c 2
 493 0 l 1x66
EndSplineSet
EndChar
StartChar: uni01CD
Encoding: 461 461 328
Width: 636
GlyphClass: 2
Flags: MW
HStem: 0 21G<25 117 25 25 520 520 520 611> 150 76<170 439 198 439 198 467> 670 20G<286 351 351 351> 800 184<157 318>
VStem: 157 323<984 984>
LayerCount: 2
Back
Fore
SplineSet
398 984 m 1
 480 984 l 1
 318 800 l 1
 157 984 l 1
 239 984 l 1
 318 890 l 1
 398 984 l 1
170 150 m 1
 117 0 l 1
 25 0 l 1
 286 690 l 1
 351 690 l 1
 611 0 l 1
 520 0 l 1
 467 150 l 1
 170 150 l 1
198 226 m 1
 439 226 l 1
 319 566 l 1
 198 226 l 1
EndSplineSet
EndChar
StartChar: uni01CE
Encoding: 462 462 329
Width: 521
GlyphClass: 2
Flags: MW
HStem: -10 71<202 246> 0 21G<386 451 386 386> 217 64<230 237 237 378> 425 71<227.5 301.5> 596 184<99 260>
VStem: 50 82<108.5 162 108.5 188> 99 323 378 73<178 217 281 300 0 326> 386 65<0 300>
LayerCount: 2
Back
Fore
SplineSet
339 780 m 1x0a
 421 780 l 1
 260 596 l 1
 99 780 l 1
 181 780 l 1
 260 686 l 1
 339 780 l 1x0a
378 217 m 1xb5
 237 217 l 2
 178 217 132 188 132 136 c 0
 132 81 177 61 227 61 c 0
 314 61 378 139 378 217 c 1xb5
378 281 m 1
 378 371 347 425 256 425 c 0
 199 425 153 392 129 356 c 1
 69 401 l 1
 116 464 174 496 260 496 c 0
 382 496 451 419 451 300 c 2xb5
 451 0 l 1
 386 0 l 1x7480
 380 84 l 1
 337 19 285 -10 207 -10 c 0
 122 -10 50 47 50 136 c 0
 50 240 125 281 230 281 c 2
 378 281 l 1
EndSplineSet
EndChar
StartChar: uni01CF
Encoding: 463 463 330
Width: 264
GlyphClass: 2
Flags: MW
HStem: 0 21G<90 174 90 90> 670 20G<90 174 174 174> 800 184<-29 132>
VStem: -29 323 90 84<0 690>
LayerCount: 2
Back
Fore
SplineSet
211 984 m 1x30
 293 984 l 1
 132 800 l 1
 -29 984 l 1
 53 984 l 1
 132 890 l 1
 211 984 l 1x30
174 0 m 1xc8
 90 0 l 1
 90 690 l 1
 174 690 l 1
 174 0 l 1xc8
EndSplineSet
EndChar
StartChar: uni01D0
Encoding: 464 464 331
Width: 255
GlyphClass: 2
Flags: MW
HStem: 0 21G<86 170 86 86> 468 20G<86 170 170 170> 594 184<-33 128>
VStem: -33 323 86 84<0 488>
LayerCount: 2
Back
Fore
SplineSet
207 778 m 1x30
 289 778 l 1
 128 594 l 1
 -33 778 l 1
 49 778 l 1
 128 684 l 1
 207 778 l 1x30
170 0 m 1xc8
 86 0 l 1
 86 488 l 1
 170 488 l 1
 170 0 l 1xc8
EndSplineSet
EndChar
StartChar: uni01D1
Encoding: 465 465 332
Width: 746
GlyphClass: 2
Flags: MW
HStem: -10 77<291.5 454.5 291.5 480> 623 77<291.5 454.5> 800 184<212 373>
VStem: 60 84<272 418 272 441> 212 323 602 84<272 418>
LayerCount: 2
Back
Fore
SplineSet
452 984 m 1
 534 984 l 1
 373 800 l 1
 212 984 l 1
 294 984 l 1
 373 890 l 1
 452 984 l 1
373 623 m 0
 210 623 144 491 144 345 c 0
 144 199 210 67 373 67 c 0
 536 67 602 199 602 345 c 0
 602 491 536 623 373 623 c 0
373 -10 m 0
 159 -10 60 153 60 345 c 0
 60 537 159 700 373 700 c 0
 587 700 686 537 686 345 c 0
 686 153 587 -10 373 -10 c 0
EndSplineSet
EndChar
StartChar: uni01D2
Encoding: 466 466 333
Width: 570
GlyphClass: 2
Flags: MW
HStem: -10 72<232.5 337.5 232.5 354.5> 422 72<232.5 337.5> 594 184<124 285>
VStem: 50 89<194.5 289.5 194.5 311.5> 124 323 431 89<194.5 289.5>
LayerCount: 2
Back
Fore
SplineSet
364 778 m 1x28
 446 778 l 1
 285 594 l 1
 124 778 l 1
 206 778 l 1
 285 684 l 1
 364 778 l 1x28
139 242 m 0xd4
 139 147 180 62 285 62 c 0
 390 62 431 147 431 242 c 0
 431 337 390 422 285 422 c 0
 180 422 139 337 139 242 c 0xd4
50 242 m 0
 50 381 146 494 285 494 c 0
 424 494 520 381 520 242 c 0
 520 103 424 -10 285 -10 c 0
 146 -10 50 103 50 242 c 0
EndSplineSet
EndChar
StartChar: uni01D3
Encoding: 467 467 334
Width: 648
GlyphClass: 2
Flags: MW
HStem: -10 80<262 386 262 410.5> 670 20G<80 164 164 164 484 568 568 568> 800 184<163 324>
VStem: 80 84<283 690> 163 323 484 84<283 288 288 690>
LayerCount: 2
Back
Fore
SplineSet
403 984 m 1x28
 485 984 l 1
 324 800 l 1
 163 984 l 1
 245 984 l 1
 324 890 l 1
 403 984 l 1x28
568 690 m 1xd4
 568 288 l 2
 568 112 497 -10 324 -10 c 0
 151 -10 80 112 80 283 c 2
 80 690 l 1
 164 690 l 1
 164 283 l 2
 164 158 200 70 324 70 c 0
 448 70 484 158 484 283 c 2
 484 690 l 1
 568 690 l 1xd4
EndSplineSet
EndChar
StartChar: uni01D4
Encoding: 468 468 335
Width: 573
GlyphClass: 2
Flags: MW
HStem: -11 73<219.5 287> 0 21G<402 482 402 402> 468 20G<81 161 161 161 402 482 482 482> 594 184<120 282>
VStem: 81 80<198 488> 120 323<778 778> 402 80<0 78 78 78 210 488>
LayerCount: 2
Back
Fore
SplineSet
361 778 m 1x14
 443 778 l 1
 282 594 l 1
 120 778 l 1
 202 778 l 1
 282 684 l 1
 361 778 l 1x14
482 0 m 1x6a
 402 0 l 1x6a
 402 78 l 1
 380 37 323 -11 251 -11 c 0
 128 -11 81 88 81 198 c 2
 81 488 l 1
 161 488 l 1
 161 198 l 2
 161 131 180 62 259 62 c 0xaa
 337 62 402 132 402 210 c 2
 402 488 l 1
 482 488 l 1
 482 0 l 1x6a
EndSplineSet
EndChar
StartChar: uni01D7
Encoding: 471 471 338
Width: 648
GlyphClass: 2
Flags: MW
HStem: -10 80<262 386 262 410.5> 670 20G<80 164 164 164 484 568 568 568> 800 99<182 272 182 272 376 466> 999 141<283 488 283 488>
VStem: 80 84<283 690> 182 90<800 899 800 899> 283 205<999 1140> 376 90<800 899 800 899> 484 84<283 288 288 690>
LayerCount: 2
Back
Fore
SplineSet
488 1140 m 1x12
 365 999 l 1
 283 999 l 1
 388 1140 l 1
 488 1140 l 1x12
466 899 m 1xed80
 466 800 l 1
 376 800 l 1
 376 899 l 1
 466 899 l 1xed80
272 899 m 1
 272 800 l 1
 182 800 l 1
 182 899 l 1
 272 899 l 1
568 690 m 1
 568 288 l 2
 568 112 497 -10 324 -10 c 0
 151 -10 80 112 80 283 c 2
 80 690 l 1
 164 690 l 1
 164 283 l 2
 164 158 200 70 324 70 c 0
 448 70 484 158 484 283 c 2
 484 690 l 1
 568 690 l 1
EndSplineSet
EndChar
StartChar: uni01D8
Encoding: 472 472 339
Width: 573
GlyphClass: 2
Flags: MW
HStem: -11 73<219.5 287> 0 21G<402 482 402 402> 468 20G<81 161 161 161 402 482 482 482> 594 99<140 230 140 230 333 423> 793 141<240 445 240 445>
VStem: 81 80<198 488> 140 90<594 693 594 693> 240 205<793 934> 333 90<594 693 594 693> 402 80<0 78 78 78 210 488>
LayerCount: 2
Back
Fore
SplineSet
445 934 m 1x09
 323 793 l 1
 240 793 l 1
 345 934 l 1
 445 934 l 1x09
423 693 m 1x1280
 423 594 l 1
 333 594 l 1
 333 693 l 1
 423 693 l 1x1280
230 693 m 1
 230 594 l 1
 140 594 l 1
 140 693 l 1
 230 693 l 1
482 0 m 1x6440
 402 0 l 1x6440
 402 78 l 1
 380 37 323 -11 251 -11 c 0
 128 -11 81 88 81 198 c 2
 81 488 l 1
 161 488 l 1
 161 198 l 2
 161 131 180 62 259 62 c 0xa440
 337 62 402 132 402 210 c 2
 402 488 l 1
 482 488 l 1
 482 0 l 1x6440
EndSplineSet
EndChar
StartChar: uni01DB
Encoding: 475 475 342
Width: 648
GlyphClass: 2
Flags: MW
HStem: -10 80<262 386 262 410.5> 670 20G<80 164 164 164 484 568 568 568> 800 99<182 272 182 272 376 466> 999 141<160 365 160 283>
VStem: 80 84<283 690> 160 205<999 1140> 182 90<800 899 800 899> 376 90<800 899 800 899> 484 84<283 288 288 690>
LayerCount: 2
Back
Fore
SplineSet
160 1140 m 1x14
 260 1140 l 1
 365 999 l 1
 283 999 l 1
 160 1140 l 1x14
466 899 m 1xeb80
 466 800 l 1
 376 800 l 1
 376 899 l 1
 466 899 l 1xeb80
272 899 m 1
 272 800 l 1
 182 800 l 1
 182 899 l 1
 272 899 l 1
568 690 m 1
 568 288 l 2
 568 112 497 -10 324 -10 c 0
 151 -10 80 112 80 283 c 2
 80 690 l 1
 164 690 l 1
 164 283 l 2
 164 158 200 70 324 70 c 0
 448 70 484 158 484 283 c 2
 484 690 l 1
 568 690 l 1
EndSplineSet
EndChar
StartChar: uni01DC
Encoding: 476 476 343
Width: 573
GlyphClass: 2
Flags: MW
HStem: -11 73<219.5 287> 0 21G<402 482 402 402> 468 20G<81 161 161 161 402 482 482 482> 594 99<140 230 140 230 333 423> 793 141<118 323 118 240>
VStem: 81 80<198 488> 118 205<793 934> 140 90<594 693 594 693> 333 90<594 693 594 693> 402 80<0 78 78 78 210 488>
LayerCount: 2
Back
Fore
SplineSet
118 934 m 1x0a
 218 934 l 1
 323 793 l 1
 240 793 l 1
 118 934 l 1x0a
423 693 m 1x1180
 423 594 l 1
 333 594 l 1
 333 693 l 1
 423 693 l 1x1180
230 693 m 1
 230 594 l 1
 140 594 l 1
 140 693 l 1
 230 693 l 1
482 0 m 1x6440
 402 0 l 1x6440
 402 78 l 1
 380 37 323 -11 251 -11 c 0
 128 -11 81 88 81 198 c 2
 81 488 l 1
 161 488 l 1
 161 198 l 2
 161 131 180 62 259 62 c 0xa440
 337 62 402 132 402 210 c 2
 402 488 l 1
 482 488 l 1
 482 0 l 1x6440
EndSplineSet
EndChar
StartChar: uni01DE
Encoding: 478 478 344
Width: 636
GlyphClass: 2
Flags: MW
HStem: 0 21G<25 117 25 25 520 520 520 611> 150 76<170 439 198 439 198 467> 670 20G<286 351 351 351> 800 99<177 267 177 267 370 460> 999 60<157 480 157 480>
VStem: 157 323<999 1059 999 1059> 177 90<800 899 800 899> 370 90<800 899 800 899>
LayerCount: 2
Back
Fore
SplineSet
480 1059 m 1x0c
 480 999 l 1
 157 999 l 1
 157 1059 l 1
 480 1059 l 1x0c
460 899 m 1xf3
 460 800 l 1
 370 800 l 1
 370 899 l 1
 460 899 l 1xf3
267 899 m 1
 267 800 l 1
 177 800 l 1
 177 899 l 1
 267 899 l 1
170 150 m 1
 117 0 l 1
 25 0 l 1
 286 690 l 1
 351 690 l 1
 611 0 l 1
 520 0 l 1
 467 150 l 1
 170 150 l 1
198 226 m 1
 439 226 l 1
 319 566 l 1
 198 226 l 1
EndSplineSet
EndChar
StartChar: uni01DF
Encoding: 479 479 345
Width: 521
GlyphClass: 2
Flags: MW
HStem: -10 71<202 246> 0 21G<386 451 386 386> 217 64<230 237 237 378> 425 71<227.5 301.5> 596 99<118 208 118 208 312 402> 795 60<99 421 99 421>
VStem: 50 82<108.5 162 108.5 188> 99 323 118 90<596 695 596 695> 312 90<596 695 596 695> 378 73<178 217 281 300 0 326> 386 65<0 300>
LayerCount: 2
Back
Fore
SplineSet
421 855 m 1x05
 421 795 l 1
 99 795 l 1
 99 855 l 1
 421 855 l 1x05
402 695 m 1x08c0
 402 596 l 1
 312 596 l 1
 312 695 l 1
 402 695 l 1x08c0
208 695 m 1
 208 596 l 1
 118 596 l 1
 118 695 l 1
 208 695 l 1
378 217 m 1xb220
 237 217 l 2
 178 217 132 188 132 136 c 0
 132 81 177 61 227 61 c 0
 314 61 378 139 378 217 c 1xb220
378 281 m 1
 378 371 347 425 256 425 c 0
 199 425 153 392 129 356 c 1
 69 401 l 1
 116 464 174 496 260 496 c 0
 382 496 451 419 451 300 c 2xb220
 451 0 l 1
 386 0 l 1x7210
 380 84 l 1
 337 19 285 -10 207 -10 c 0
 122 -10 50 47 50 136 c 0
 50 240 125 281 230 281 c 2
 378 281 l 1
EndSplineSet
EndChar
StartChar: uni01E0
Encoding: 480 480 346
Width: 636
GlyphClass: 2
Flags: MW
HStem: 0 21G<25 117 25 25 520 520 520 611> 150 76<170 439 198 439 198 467> 670 20G<286 351 351 351> 800 125<300.5 335.5> 1025 60<157 479 157 479>
VStem: 157 323 256 125<845.5 880.5>
LayerCount: 2
Back
Fore
SplineSet
479 1085 m 1x0c
 479 1025 l 1
 157 1025 l 1
 157 1085 l 1
 479 1085 l 1x0c
256 863 m 0xf2
 256 898 283 925 318 925 c 0
 353 925 381 898 381 863 c 0
 381 828 353 800 318 800 c 0
 283 800 256 828 256 863 c 0xf2
170 150 m 1
 117 0 l 1
 25 0 l 1
 286 690 l 1
 351 690 l 1
 611 0 l 1
 520 0 l 1
 467 150 l 1
 170 150 l 1
198 226 m 1
 439 226 l 1
 319 566 l 1
 198 226 l 1
EndSplineSet
EndChar
StartChar: uni01E1
Encoding: 481 481 347
Width: 521
GlyphClass: 2
Flags: MW
HStem: -10 71<202 246> 0 21G<386 451 386 386> 217 64<230 237 237 378> 425 71<227.5 301.5> 596 125<242 277> 821 60<98 421 98 421>
VStem: 50 82<108.5 162 108.5 188> 98 323<821 881 821 881> 198 125 378 73<178 217 281 300 0 326> 386 65<0 300>
LayerCount: 2
Back
Fore
SplineSet
421 881 m 1x05
 421 821 l 1
 98 821 l 1
 98 881 l 1
 421 881 l 1x05
198 659 m 0x0880
 198 694 224 721 260 721 c 0
 294 721 322 694 322 659 c 0
 322 624 294 596 260 596 c 0
 224 596 198 624 198 659 c 0x0880
378 217 m 1xb240
 237 217 l 2
 178 217 132 188 132 136 c 0
 132 81 177 61 227 61 c 0
 314 61 378 139 378 217 c 1xb240
378 281 m 1
 378 371 347 425 256 425 c 0
 199 425 153 392 129 356 c 1
 69 401 l 1
 116 464 174 496 260 496 c 0
 382 496 451 419 451 300 c 2xb240
 451 0 l 1
 386 0 l 1x7220
 380 84 l 1
 337 19 285 -10 207 -10 c 0
 122 -10 50 47 50 136 c 0
 50 240 125 281 230 281 c 2
 378 281 l 1
EndSplineSet
EndChar
StartChar: uni01E8
Encoding: 488 488 352
Width: 679
GlyphClass: 2
Flags: MW
HStem: 0 21G<96 179 96 96 559 660 559 559> 670 20G<96 179 179 179 554 664 664 664> 800 184<219 380>
VStem: 96 83<0 188 292 690> 219 323
LayerCount: 2
Back
Fore
SplineSet
459 984 m 1
 541 984 l 1
 380 800 l 1
 219 984 l 1
 301 984 l 1
 380 890 l 1
 459 984 l 1
664 690 m 1
 401 416 l 1
 660 0 l 1
 559 0 l 1
 343 358 l 1
 179 188 l 1
 179 0 l 1
 96 0 l 1
 96 690 l 1
 179 690 l 1
 179 292 l 1
 554 690 l 1
 664 690 l 1
EndSplineSet
EndChar
StartChar: uni01E9
Encoding: 489 489 353
Width: 531
GlyphClass: 2
Flags: MW
HStem: 0 21G<94 174 94 94 424 517 424 424> 468 20G<387 488 488 488> 580 184<207 369> 670 20G
VStem: 94 80<0 143 231 690> 207 323<764 764>
LayerCount: 2
Back
Fore
SplineSet
448 764 m 1x24
 530 764 l 1
 369 580 l 1
 207 764 l 1
 289 764 l 1
 369 670 l 1
 448 764 l 1x24
517 0 m 1xd8
 424 0 l 1
 272 252 l 1
 174 143 l 1
 174 0 l 1
 94 0 l 1
 94 690 l 1
 174 690 l 1
 174 231 l 1
 387 488 l 1
 488 488 l 1
 325 306 l 1
 517 0 l 1xd8
EndSplineSet
EndChar
StartChar: uni01EC
Encoding: 492 492 356
Width: 746
GlyphClass: 2
Flags: MW
HStem: -222 53<337 363 337 377.5> 623 77<291.5 454.5> 800 60<212 534 212 534>
VStem: 60 84<272 418 272 441> 254 51<-133 -91> 602 84<272 418>
LayerCount: 2
Back
Fore
SplineSet
534 860 m 1
 534 800 l 1
 212 800 l 1
 212 860 l 1
 534 860 l 1
353 -222 m 0
 296 -222 254 -184 254 -123 c 0
 254 -59 304 -19 322 -7 c 1
 143 17 60 169 60 345 c 0
 60 537 159 700 373 700 c 0
 587 700 686 537 686 345 c 0
 686 162 596 5 402 -9 c 1
 371 -23 305 -58 305 -116 c 0
 305 -150 325 -169 349 -169 c 0
 377 -169 394 -159 409 -138 c 1
 453 -167 l 1
 431 -201 402 -222 353 -222 c 0
373 623 m 0
 210 623 144 491 144 345 c 0
 144 199 210 67 373 67 c 0
 536 67 602 199 602 345 c 0
 602 491 536 623 373 623 c 0
EndSplineSet
EndChar
StartChar: uni01ED
Encoding: 493 493 357
Width: 570
GlyphClass: 2
Flags: MW
HStem: -222 53<249 275 249 289.5> 422 72<232.5 337.5> 594 60<124 446 124 446>
VStem: 50 89<194.5 289.5 194.5 311.5> 166 51<-133 -89.5> 431 89<194.5 289.5>
LayerCount: 2
Back
Fore
SplineSet
446 654 m 1
 446 594 l 1
 124 594 l 1
 124 654 l 1
 446 654 l 1
265 -222 m 0
 208 -222 166 -184 166 -123 c 0
 166 -56 221 -15 236 -5 c 1
 124 18 50 120 50 242 c 0
 50 381 146 494 285 494 c 0
 424 494 520 381 520 242 c 0
 520 114 438 7 316 -8 c 1
 286 -21 217 -57 217 -116 c 0
 217 -150 237 -169 261 -169 c 0
 289 -169 306 -159 321 -138 c 1
 365 -167 l 1
 343 -201 314 -222 265 -222 c 0
139 242 m 0
 139 147 180 62 285 62 c 0
 390 62 431 147 431 242 c 0
 431 337 390 422 285 422 c 0
 180 422 139 337 139 242 c 0
EndSplineSet
EndChar
StartChar: uni01F0
Encoding: 496 496 358
Width: 261
GlyphClass: 2
Flags: MW
HStem: -214 77<29 61.5 29 89.5> 468 20G<90 174 174 174> 594 184<-29 132>
VStem: -29 323 90 84<-75 -71 -71 488>
LayerCount: 2
Back
Fore
SplineSet
211 778 m 1x30
 293 778 l 1
 132 594 l 1
 -29 778 l 1
 53 778 l 1
 132 684 l 1
 211 778 l 1x30
45 -214 m 0xc8
 9 -214 -31 -199 -31 -199 c 1
 -13 -129 l 1
 -13 -129 16 -137 42 -137 c 0
 81 -137 90 -108 90 -75 c 2
 90 488 l 1
 174 488 l 1
 174 -71 l 2
 174 -154 134 -214 45 -214 c 0xc8
EndSplineSet
EndChar
StartChar: uni01F1
Encoding: 497 497 359
Width: 1256
GlyphClass: 2
Flags: MW
HStem: 0 77<174 257 257 269 778 1206> 614 76<174 268 174 174> 616 74<692 1099>
VStem: 90 84<77 77 77 614> 534 85<340 433>
LayerCount: 2
Back
Fore
SplineSet
1206 0 m 1xa0
 670 0 l 1
 670 65 l 1
 1099 616 l 1
 692 616 l 1
 692 690 l 1
 1206 690 l 1
 1206 622 l 1
 778 77 l 1
 1206 77 l 1
 1206 0 l 1xa0
174 77 m 1xd8
 257 77 l 2
 416 77 534 157 534 345 c 0
 534 521 448 614 268 614 c 2
 174 614 l 1
 174 77 l 1xd8
619 340 m 0
 618 122 492 0 269 0 c 2
 90 0 l 1
 90 690 l 1
 270 690 l 2
 495 690 619 567 619 340 c 0
EndSplineSet
EndChar
StartChar: uni01F2
Encoding: 498 498 360
Width: 1137
GlyphClass: 2
Flags: MW
HStem: 0 67<815 1104 815 1104> 0 77<174 257 257 269> 420 68<728 1007 728 1104> 614 76<174 268 174 174>
VStem: 90 84<77 77 77 614> 534 85<340 433>
LayerCount: 2
Back
Fore
SplineSet
1104 0 m 1xa0
 714 0 l 1
 714 59 l 1
 1007 420 l 1
 728 420 l 1
 728 488 l 1
 1104 488 l 1
 1104 423 l 1
 815 67 l 1
 1104 67 l 1
 1104 0 l 1xa0
174 77 m 1x5c
 257 77 l 2
 416 77 534 157 534 345 c 0
 534 521 448 614 268 614 c 2
 174 614 l 1
 174 77 l 1x5c
619 340 m 0
 618 122 492 0 269 0 c 2
 90 0 l 1
 90 690 l 1
 270 690 l 2
 495 690 619 567 619 340 c 0
EndSplineSet
EndChar
StartChar: uni01F3
Encoding: 499 499 361
Width: 1036
GlyphClass: 2
Flags: MW
HStem: -10 73<224.5 286> 0 21G<402 482 402 402 613 1003 613 613> 0 67<714 1003 714 1003> 420 68<627 906 627 1003> 424 74<224.5 286 188 319.5> 670 20G<402 482 482 482>
VStem: 54 81 402 80<0 65 65 65 423 690>
LayerCount: 2
Back
Fore
SplineSet
1003 0 m 1x30
 613 0 l 1
 613 59 l 1
 906 420 l 1
 627 420 l 1
 627 488 l 1
 1003 488 l 1
 1003 423 l 1
 714 67 l 1
 1003 67 l 1
 1003 0 l 1x30
482 0 m 1x4f
 402 0 l 1x4f
 402 65 l 1
 370 19 320 -10 252 -10 c 0x8f
 124 -10 54 104 54 244 c 0
 54 384 124 498 252 498 c 0
 320 498 370 469 402 423 c 1
 402 690 l 1
 482 690 l 1
 482 0 l 1x4f
134 244 m 0
 134 146 177 63 272 63 c 0x8f
 367 63 407 146 407 244 c 0
 407 341 367 424 272 424 c 0
 177 424 134 341 134 244 c 0
EndSplineSet
EndChar
StartChar: uni01F4
Encoding: 500 500 362
Width: 750
GlyphClass: 2
Flags: MW
HStem: -10 78<294.5 432.5 294.5 432.5> 0 21G<600 669 600 600> 286 67<432 590 432 669> 623 78<293.5 421.5> 801 141<334 539 334 539>
VStem: 62 83<273.5 422.5 273.5 441.5> 334 205<801 942> 590 79<286 286> 600 69<0 0>
LayerCount: 2
Back
Fore
SplineSet
539 942 m 1x0a
 416 801 l 1
 334 801 l 1
 439 942 l 1
 539 942 l 1x0a
669 0 m 1x7480
 600 0 l 1x7480
 597 122 l 1
 559 46 489 -10 376 -10 c 0
 162 -10 62 152 62 345 c 0
 62 538 161 701 375 701 c 0
 504 701 605 637 658 515 c 1
 580 483 l 1
 541 574 469 623 374 623 c 0
 213 623 145 495 145 350 c 0
 145 197 213 68 376 68 c 0
 489 68 585 147 590 286 c 1xb5
 432 286 l 1
 432 353 l 1
 669 353 l 1
 669 0 l 1x7480
EndSplineSet
EndChar
StartChar: uni01F8
Encoding: 504 504 364
Width: 680
GlyphClass: 2
Flags: MW
HStem: 0 21G<94 178 94 94 474 585 474 474> 670 20G<94 205 205 205 502 585 585 585> 800 141<176 381 176 298>
VStem: 94 84<0 583 0 690> 176 205<800 941> 502 83<107 690>
LayerCount: 2
Back
Fore
SplineSet
176 941 m 1x28
 276 941 l 1
 381 800 l 1
 298 800 l 1
 176 941 l 1x28
585 0 m 1xd4
 474 0 l 1
 178 583 l 1
 178 0 l 1
 94 0 l 1
 94 690 l 1
 205 690 l 1
 502 107 l 1
 502 690 l 1
 585 690 l 1
 585 0 l 1xd4
EndSplineSet
EndChar
StartChar: Aringacute
Encoding: 506 506 366
Width: 636
GlyphClass: 2
Flags: MW
HStem: 0 21G<25 117 25 25 520 520 520 611> 150 76<170 439 198 439 198 467> 670 20G<286 351 351 351> 694 49 840 49 988 141
VStem: 221 49<777.5 806 777.5 819> 277 205<988 1130> 367 49<778 805.5>
LayerCount: 2
Back
Fore
SplineSet
482 1130 m 1x05
 359 988 l 1
 277 988 l 1
 382 1130 l 1
 482 1130 l 1x05
270 792 m 0xfa80
 270 763 291 742 318 742 c 0
 345 742 367 764 367 792 c 0
 367 819 347 840 318 840 c 0
 289 840 270 820 270 792 c 0xfa80
221 792 m 0
 221 846 264 888 318 888 c 0
 371 888 416 846 416 792 c 0
 416 737 372 694 318 694 c 0
 263 694 221 738 221 792 c 0
170 150 m 1
 117 0 l 1
 25 0 l 1
 286 690 l 1
 351 690 l 1
 611 0 l 1
 520 0 l 1
 467 150 l 1
 170 150 l 1
198 226 m 1
 439 226 l 1
 319 566 l 1
 198 226 l 1
EndSplineSet
EndChar
StartChar: AEacute
Encoding: 508 508 368
Width: 882
GlyphClass: 2
Flags: MW
HStem: 0 77<462 827 462 827> 150 76<158 378 186 378 186 378> 308 74<462 784 462 784> 616 74<330 378 330 330 462 827 462 462> 800 141<385 590 385 590>
VStem: 378 84<77 150 150 150 226 308 382 616> 385 205<800 941>
LayerCount: 2
Back
Fore
SplineSet
590 941 m 1x0a
 467 800 l 1
 385 800 l 1
 490 941 l 1
 590 941 l 1x0a
158 150 m 1xf4
 104 0 l 1
 12 0 l 1
 273 690 l 1
 827 690 l 1
 827 616 l 1
 462 616 l 1
 462 382 l 1
 784 382 l 1
 784 308 l 1
 462 308 l 1
 462 77 l 1
 827 77 l 1
 827 0 l 1
 378 0 l 1
 378 150 l 1
 158 150 l 1xf4
378 226 m 1
 378 616 l 1
 330 616 l 1
 186 226 l 1
 378 226 l 1
EndSplineSet
EndChar
StartChar: aeacute
Encoding: 509 509 369
Width: 830
GlyphClass: 2
Flags: MW
HStem: -10 68<200 252.5> 217 64<225 232 232 375 444 709> 424 70<535.5 619.5> 431 65<222.5 295.5 212 296.5> 596 141<374 579 374 579>
VStem: 45 82<112.5 162 112.5 188> 374 205<596 737> 375 69<178 217 217 326> 709 76<281 281>
LayerCount: 2
Back
Fore
SplineSet
579 737 m 1x0a
 456 596 l 1
 374 596 l 1
 479 737 l 1
 579 737 l 1x0a
375 281 m 1xe580
 375 371 342 431 251 431 c 0
 194 431 148 397 124 361 c 1
 64 401 l 1
 111 464 169 496 255 496 c 0xd580
 336 496 389 462 416 405 c 1
 446 458 496 494 575 494 c 0
 737 494 785 371 785 237 c 0
 785 230 783 217 783 217 c 1
 444 217 l 1
 445 135 491 65 583 65 c 0
 638 65 680 76 719 116 c 1
 772 72 l 1
 719 15 661 -6 584 -6 c 0
 482 -6 425 46 398 122 c 1
 364 42 302 -10 203 -10 c 0
 118 -10 45 47 45 136 c 0
 45 240 120 281 225 281 c 2
 375 281 l 1xe580
375 217 m 1
 232 217 l 2
 173 217 127 188 127 136 c 0
 127 89 178 58 222 58 c 0
 309 58 375 139 375 217 c 1
575 424 m 0xe580
 489 424 448 359 444 281 c 1
 709 281 l 1
 707 365 664 424 575 424 c 0xe580
EndSplineSet
EndChar
StartChar: uni0200
Encoding: 512 512 372
Width: 636
GlyphClass: 2
Flags: MW
HStem: 0 21G<25 117 25 25 520 520 520 611> 150 76<170 439 198 439 198 467> 670 20G<286 351 351 351> 800 141<234 280 75 198>
LayerCount: 2
Back
Fore
SplineSet
75 941 m 1
 175 941 l 1
 280 800 l 1
 198 800 l 1
 75 941 l 1
234 941 m 1
 334 941 l 1
 440 800 l 1
 357 800 l 1
 234 941 l 1
170 150 m 1
 117 0 l 1
 25 0 l 1
 286 690 l 1
 351 690 l 1
 611 0 l 1
 520 0 l 1
 467 150 l 1
 170 150 l 1
198 226 m 1
 439 226 l 1
 319 566 l 1
 198 226 l 1
EndSplineSet
EndChar
StartChar: uni0201
Encoding: 513 513 373
Width: 521
GlyphClass: 2
Flags: MW
HStem: -10 71<202 246> 0 21G<386 451 386 386> 217 64<230 237 237 378> 425 71<227.5 301.5> 596 141<176 221 16 139>
VStem: 50 82<108.5 162 108.5 188> 378 73<178 217 281 300 0 326> 386 65<0 300>
LayerCount: 2
Back
Fore
SplineSet
16 737 m 1x08
 116 737 l 1
 221 596 l 1
 139 596 l 1
 16 737 l 1x08
176 737 m 1
 276 737 l 1
 381 596 l 1
 299 596 l 1
 176 737 l 1
378 217 m 1xb6
 237 217 l 2
 178 217 132 188 132 136 c 0
 132 81 177 61 227 61 c 0
 314 61 378 139 378 217 c 1xb6
378 281 m 1
 378 371 347 425 256 425 c 0
 199 425 153 392 129 356 c 1
 69 401 l 1
 116 464 174 496 260 496 c 0
 382 496 451 419 451 300 c 2xb6
 451 0 l 1
 386 0 l 1x75
 380 84 l 1
 337 19 285 -10 207 -10 c 0
 122 -10 50 47 50 136 c 0
 50 240 125 281 230 281 c 2
 378 281 l 1
EndSplineSet
EndChar
StartChar: uni0202
Encoding: 514 514 374
Width: 636
GlyphClass: 2
Flags: MW
HStem: 0 21G<25 117 25 25 520 520 520 611> 150 76<170 439 198 439 198 467> 670 20G<286 351 351 351> 878 54<295 341.5>
VStem: 170 64<800 823.5 800 842.5> 404 64<800 823.5>
LayerCount: 2
Back
Fore
SplineSet
404 800 m 1
 404 847 365 878 318 878 c 0
 272 878 234 847 234 800 c 1
 170 800 l 1
 170 885 233 932 318 932 c 0
 404 932 468 885 468 800 c 1
 404 800 l 1
170 150 m 1
 117 0 l 1
 25 0 l 1
 286 690 l 1
 351 690 l 1
 611 0 l 1
 520 0 l 1
 467 150 l 1
 170 150 l 1
198 226 m 1
 439 226 l 1
 319 566 l 1
 198 226 l 1
EndSplineSet
EndChar
StartChar: uni0203
Encoding: 515 515 375
Width: 521
GlyphClass: 2
Flags: MW
HStem: -10 71<202 246> 0 21G<386 451 386 386> 217 64<230 237 237 378> 425 71<227.5 301.5> 674 54<236.5 283.5>
VStem: 50 82<108.5 162 108.5 188> 111 64<596 619.5 596 638.5> 345 64<596 619.5> 378 73<178 217 281 300 0 326> 386 65<0 300>
LayerCount: 2
Back
Fore
SplineSet
345 596 m 1x3b
 345 643 307 674 260 674 c 0
 213 674 175 643 175 596 c 1
 111 596 l 1
 111 681 175 728 260 728 c 0
 345 728 409 681 409 596 c 1
 345 596 l 1x3b
378 217 m 1xb480
 237 217 l 2
 178 217 132 188 132 136 c 0
 132 81 177 61 227 61 c 0
 314 61 378 139 378 217 c 1xb480
378 281 m 1
 378 371 347 425 256 425 c 0
 199 425 153 392 129 356 c 1
 69 401 l 1
 116 464 174 496 260 496 c 0
 382 496 451 419 451 300 c 2xb480
 451 0 l 1
 386 0 l 1x7440
 380 84 l 1
 337 19 285 -10 207 -10 c 0
 122 -10 50 47 50 136 c 0
 50 240 125 281 230 281 c 2
 378 281 l 1
EndSplineSet
EndChar
StartChar: uni0204
Encoding: 516 516 376
Width: 609
GlyphClass: 2
Flags: MW
HStem: 0 77<179 544 179 544> 308 74<179 501 179 501> 616 74<179 544 179 179> 800 141<236 281 76 198>
VStem: 95 84<77 308 382 616>
LayerCount: 2
Back
Fore
SplineSet
76 941 m 1
 176 941 l 1
 281 800 l 1
 198 800 l 1
 76 941 l 1
236 941 m 1
 336 941 l 1
 440 800 l 1
 358 800 l 1
 236 941 l 1
544 0 m 1
 95 0 l 1
 95 690 l 1
 544 690 l 1
 544 616 l 1
 179 616 l 1
 179 382 l 1
 501 382 l 1
 501 308 l 1
 179 308 l 1
 179 77 l 1
 544 77 l 1
 544 0 l 1
EndSplineSet
EndChar
StartChar: uni0205
Encoding: 517 517 377
Width: 520
GlyphClass: 2
Flags: MW
HStem: -6 71<227.5 301 227.5 312.5> 217 64<134 399 134 473 134 399> 424 70<222 309.5> 594 141<181 227 22 144>
VStem: 50 84<217 217 217 281 217 307> 399 76<281 281>
LayerCount: 2
Back
Fore
SplineSet
22 735 m 1
 122 735 l 1
 227 594 l 1
 144 594 l 1
 22 735 l 1
181 735 m 1
 281 735 l 1
 386 594 l 1
 304 594 l 1
 181 735 l 1
265 424 m 0
 179 424 138 359 134 281 c 1
 399 281 l 1
 397 365 354 424 265 424 c 0
463 72 m 1
 409 15 351 -6 274 -6 c 0
 124 -6 50 108 50 241 c 0
 50 373 120 494 265 494 c 0
 427 494 475 371 475 237 c 0
 475 230 473 217 473 217 c 1
 134 217 l 1
 135 135 182 65 273 65 c 0
 329 65 370 76 409 116 c 1
 463 72 l 1
EndSplineSet
EndChar
StartChar: uni0206
Encoding: 518 518 378
Width: 609
GlyphClass: 2
Flags: MW
HStem: 0 77<179 544 179 544> 308 74<179 501 179 501> 616 74<179 544 179 179> 878 54<296.5 343>
VStem: 95 84<77 308 382 616> 170 64<800 823.5 800 842.5> 404 64<800 823.5>
LayerCount: 2
Back
Fore
SplineSet
404 800 m 1xf6
 404 847 366 878 320 878 c 0
 273 878 234 847 234 800 c 1
 170 800 l 1
 170 885 234 932 320 932 c 0
 405 932 468 885 468 800 c 1
 404 800 l 1xf6
544 0 m 1xe8
 95 0 l 1
 95 690 l 1
 544 690 l 1
 544 616 l 1
 179 616 l 1
 179 382 l 1
 501 382 l 1
 501 308 l 1
 179 308 l 1
 179 77 l 1
 544 77 l 1
 544 0 l 1xe8
EndSplineSet
EndChar
StartChar: uni0207
Encoding: 519 519 379
Width: 520
GlyphClass: 2
Flags: MW
HStem: -6 71<227.5 301 227.5 312.5> 217 64<134 399 134 473 134 399> 424 70<222 309.5> 672 54<242 288.5>
VStem: 50 84<217 217 217 281 217 307> 116 64<594 617.5 594 636.5> 350 64<594 617.5> 399 76<281 281>
LayerCount: 2
Back
Fore
SplineSet
350 594 m 1xf6
 350 641 312 672 265 672 c 0
 219 672 180 641 180 594 c 1
 116 594 l 1
 116 679 180 726 265 726 c 0
 351 726 414 679 414 594 c 1
 350 594 l 1xf6
265 424 m 0xe9
 179 424 138 359 134 281 c 1
 399 281 l 1
 397 365 354 424 265 424 c 0xe9
463 72 m 1
 409 15 351 -6 274 -6 c 0
 124 -6 50 108 50 241 c 0
 50 373 120 494 265 494 c 0
 427 494 475 371 475 237 c 0
 475 230 473 217 473 217 c 1
 134 217 l 1
 135 135 182 65 273 65 c 0
 329 65 370 76 409 116 c 1
 463 72 l 1
EndSplineSet
EndChar
StartChar: uni0208
Encoding: 520 520 380
Width: 264
GlyphClass: 2
Flags: MW
HStem: 0 21G<90 174 90 90> 670 20G<90 174 174 174> 800 141<48 93 -112 11>
VStem: 90 84<0 690>
LayerCount: 2
Back
Fore
SplineSet
-112 941 m 1
 -12 941 l 1
 93 800 l 1
 11 800 l 1
 -112 941 l 1
48 941 m 1
 148 941 l 1
 253 800 l 1
 171 800 l 1
 48 941 l 1
174 0 m 1
 90 0 l 1
 90 690 l 1
 174 690 l 1
 174 0 l 1
EndSplineSet
EndChar
StartChar: uni0209
Encoding: 521 521 381
Width: 255
GlyphClass: 2
Flags: MW
HStem: 0 21G<86 170 86 86> 468 20G<86 170 170 170> 594 141<44 89 -116 7>
VStem: 86 84<0 488>
LayerCount: 2
Back
Fore
SplineSet
-116 735 m 1
 -16 735 l 1
 89 594 l 1
 7 594 l 1
 -116 735 l 1
44 735 m 1
 144 735 l 1
 249 594 l 1
 167 594 l 1
 44 735 l 1
170 0 m 1
 86 0 l 1
 86 488 l 1
 170 488 l 1
 170 0 l 1
EndSplineSet
EndChar
StartChar: uni020A
Encoding: 522 522 382
Width: 264
GlyphClass: 2
Flags: MW
HStem: 0 21G<90 174 90 90> 670 20G<90 174 174 174> 878 54<108.5 155.5>
VStem: -17 64<800 823.5 800 842.5> 90 84<0 690> 217 64<800 823.5>
CounterMasks: 1 1c
LayerCount: 2
Back
Fore
SplineSet
217 800 m 1
 217 847 179 878 132 878 c 0
 85 878 47 847 47 800 c 1
 -17 800 l 1
 -17 885 47 932 132 932 c 0
 217 932 281 885 281 800 c 1
 217 800 l 1
174 0 m 1
 90 0 l 1
 90 690 l 1
 174 690 l 1
 174 0 l 1
EndSplineSet
EndChar
StartChar: uni020B
Encoding: 523 523 383
Width: 255
GlyphClass: 2
Flags: MW
HStem: 0 21G<86 170 86 86> 468 20G<86 170 170 170> 672 54<104.5 151.5>
VStem: -21 64<594 617.5 594 636.5> 86 84<0 488> 213 64<594 617.5>
CounterMasks: 1 1c
LayerCount: 2
Back
Fore
SplineSet
213 594 m 1
 213 641 175 672 128 672 c 0
 81 672 43 641 43 594 c 1
 -21 594 l 1
 -21 679 43 726 128 726 c 0
 213 726 277 679 277 594 c 1
 213 594 l 1
170 0 m 1
 86 0 l 1
 86 488 l 1
 170 488 l 1
 170 0 l 1
EndSplineSet
EndChar
StartChar: uni020D
Encoding: 525 525 385
Width: 570
GlyphClass: 2
Flags: MW
HStem: -10 72<232.5 337.5 232.5 354.5> 422 72<232.5 337.5> 594 141<201 246 41 164>
VStem: 50 89<194.5 289.5 194.5 311.5> 431 89<194.5 289.5>
LayerCount: 2
Back
Fore
SplineSet
41 735 m 1
 141 735 l 1
 246 594 l 1
 164 594 l 1
 41 735 l 1
201 735 m 1
 301 735 l 1
 406 594 l 1
 324 594 l 1
 201 735 l 1
139 242 m 0
 139 147 180 62 285 62 c 0
 390 62 431 147 431 242 c 0
 431 337 390 422 285 422 c 0
 180 422 139 337 139 242 c 0
50 242 m 0
 50 381 146 494 285 494 c 0
 424 494 520 381 520 242 c 0
 520 103 424 -10 285 -10 c 0
 146 -10 50 103 50 242 c 0
EndSplineSet
EndChar
StartChar: uni020F
Encoding: 527 527 387
Width: 570
GlyphClass: 2
Flags: MW
HStem: -10 72<232.5 337.5 232.5 354.5> 422 72<232.5 337.5> 672 54<261.5 308.5>
VStem: 50 89<194.5 289.5 194.5 311.5> 136 64<594 617.5 594 636.5> 370 64<594 617.5> 431 89<194.5 289.5>
LayerCount: 2
Back
Fore
SplineSet
370 594 m 1xec
 370 641 332 672 285 672 c 0
 238 672 200 641 200 594 c 1
 136 594 l 1
 136 679 200 726 285 726 c 0
 370 726 434 679 434 594 c 1
 370 594 l 1xec
139 242 m 0xd2
 139 147 180 62 285 62 c 0
 390 62 431 147 431 242 c 0
 431 337 390 422 285 422 c 0
 180 422 139 337 139 242 c 0xd2
50 242 m 0
 50 381 146 494 285 494 c 0
 424 494 520 381 520 242 c 0
 520 103 424 -10 285 -10 c 0
 146 -10 50 103 50 242 c 0
EndSplineSet
EndChar
StartChar: uni0210
Encoding: 528 528 388
Width: 583
GlyphClass: 2
Flags: MW
HStem: -1 21G<95 179 95 95 461 558 461 461> 306 76<180 284 179 309> 614 75<180 297 297 298 180 180> 800 141<244 289 84 207>
VStem: 95 84<-1 306 -1 689> 433 83<461 533.5>
LayerCount: 2
Back
Fore
SplineSet
84 941 m 1
 184 941 l 1
 289 800 l 1
 207 800 l 1
 84 941 l 1
244 941 m 1
 344 941 l 1
 449 800 l 1
 367 800 l 1
 244 941 l 1
298 614 m 2
 180 614 l 1
 180 382 l 1
 309 382 l 1
 381 386 433 426 433 496 c 0
 433 571 377 614 298 614 c 2
558 -1 m 1
 461 -1 l 1
 284 306 l 1
 179 306 l 1
 179 -1 l 1
 95 -1 l 1
 95 689 l 1
 297 689 l 2
 419 689 516 617 516 495 c 0
 516 405 458 338 371 317 c 1
 558 -1 l 1
EndSplineSet
EndChar
StartChar: uni0211
Encoding: 529 529 389
Width: 370
GlyphClass: 2
Flags: MW
HStem: 0 21G<83 163 83 83> 422 73<271.5 304.5> 468 20G<83 164 164 164> 595 141<151 196 -9 114>
VStem: 83 80<0 229 0 488>
LayerCount: 2
Back
Fore
SplineSet
-9 736 m 1x10
 91 736 l 1
 196 595 l 1
 114 595 l 1
 -9 736 l 1x10
151 736 m 1
 251 736 l 1
 356 595 l 1
 274 595 l 1
 151 736 l 1
385 470 m 1xc8
 355 404 l 1
 337 419 316 422 293 422 c 0xc8
 208 422 163 329 163 229 c 2
 163 0 l 1
 83 0 l 1
 83 488 l 1
 164 488 l 1xa8
 164 392 l 1
 184 453 245 495 298 495 c 0
 325 495 362 488 385 470 c 1xc8
EndSplineSet
EndChar
StartChar: uni0212
Encoding: 530 530 390
Width: 583
GlyphClass: 2
Flags: MW
HStem: -1 21G<95 179 95 95 461 558 461 461> 306 76<180 284 179 309> 614 75<180 297 297 298 180 180> 878 54<266.5 313.5>
VStem: 95 84<-1 306 -1 689> 141 64<800 823.5 800 842.5> 375 64<800 823.5> 433 83<461 533.5>
LayerCount: 2
Back
Fore
SplineSet
375 800 m 1xf6
 375 847 337 878 290 878 c 0
 243 878 205 847 205 800 c 1
 141 800 l 1
 141 885 205 932 290 932 c 0
 375 932 439 885 439 800 c 1
 375 800 l 1xf6
298 614 m 2xe9
 180 614 l 1
 180 382 l 1
 309 382 l 1
 381 386 433 426 433 496 c 0
 433 571 377 614 298 614 c 2xe9
558 -1 m 1
 461 -1 l 1
 284 306 l 1
 179 306 l 1
 179 -1 l 1
 95 -1 l 1
 95 689 l 1
 297 689 l 2
 419 689 516 617 516 495 c 0
 516 405 458 338 371 317 c 1
 558 -1 l 1
EndSplineSet
EndChar
StartChar: uni0213
Encoding: 531 531 391
Width: 370
GlyphClass: 2
Flags: MW
HStem: 0 21G<83 163 83 83> 422 73<271.5 304.5> 468 20G<83 164 164 164> 673 54<211.5 258.5>
VStem: 83 80<0 229 0 488> 86 64<595 618.5 595 637.5> 320 64<595 618.5>
LayerCount: 2
Back
Fore
SplineSet
320 595 m 1x96
 320 642 282 673 235 673 c 0
 188 673 150 642 150 595 c 1
 86 595 l 1
 86 680 150 727 235 727 c 0
 320 727 384 680 384 595 c 1
 320 595 l 1x96
385 470 m 1xc8
 355 404 l 1
 337 419 316 422 293 422 c 0xc8
 208 422 163 329 163 229 c 2
 163 0 l 1
 83 0 l 1
 83 488 l 1
 164 488 l 1xa8
 164 392 l 1
 184 453 245 495 298 495 c 0
 325 495 362 488 385 470 c 1xc8
EndSplineSet
EndChar
StartChar: uni0215
Encoding: 533 533 393
Width: 573
GlyphClass: 2
Flags: MW
HStem: -11 73<219.5 287> 0 21G<402 482 402 402> 468 20G<81 161 161 161 402 482 482 482> 594 141<198 243 38 160>
VStem: 81 80<198 488> 402 80<0 78 78 78 210 488>
LayerCount: 2
Back
Fore
SplineSet
38 735 m 1x10
 138 735 l 1
 243 594 l 1
 160 594 l 1
 38 735 l 1x10
198 735 m 1
 298 735 l 1
 402 594 l 1
 320 594 l 1
 198 735 l 1
482 0 m 1x6c
 402 0 l 1x6c
 402 78 l 1
 380 37 323 -11 251 -11 c 0
 128 -11 81 88 81 198 c 2
 81 488 l 1
 161 488 l 1
 161 198 l 2
 161 131 180 62 259 62 c 0xac
 337 62 402 132 402 210 c 2
 402 488 l 1
 482 488 l 1
 482 0 l 1x6c
EndSplineSet
EndChar
StartChar: uni0216
Encoding: 534 534 394
Width: 648
GlyphClass: 2
Flags: MW
HStem: -10 80<262 386 262 410.5> 670 20G<80 164 164 164 484 568 568 568> 878 54<300.5 347.5>
VStem: 80 84<283 690> 175 64<800 823.5 800 842.5> 409 64<800 823.5> 484 84<283 288 288 690>
LayerCount: 2
Back
Fore
SplineSet
409 800 m 1
 409 847 371 878 324 878 c 0
 277 878 239 847 239 800 c 1
 175 800 l 1
 175 885 239 932 324 932 c 0
 409 932 473 885 473 800 c 1
 409 800 l 1
568 690 m 1
 568 288 l 2
 568 112 497 -10 324 -10 c 0
 151 -10 80 112 80 283 c 2
 80 690 l 1
 164 690 l 1
 164 283 l 2
 164 158 200 70 324 70 c 0
 448 70 484 158 484 283 c 2
 484 690 l 1
 568 690 l 1
EndSplineSet
EndChar
StartChar: uni0217
Encoding: 535 535 395
Width: 573
GlyphClass: 2
Flags: MW
HStem: -11 73<219.5 287> 0 21G<402 482 402 402> 468 20G<81 161 161 161 402 482 482 482> 672 54<258.5 305>
VStem: 81 80<198 488> 132 64<594 617.5 594 636.5> 366 64<594 617.5> 402 80<0 78 78 78 210 488>
LayerCount: 2
Back
Fore
SplineSet
366 594 m 1x36
 366 641 328 672 282 672 c 0
 235 672 196 641 196 594 c 1
 132 594 l 1
 132 679 196 726 282 726 c 0
 367 726 430 679 430 594 c 1
 366 594 l 1x36
482 0 m 1x69
 402 0 l 1x69
 402 78 l 1
 380 37 323 -11 251 -11 c 0
 128 -11 81 88 81 198 c 2
 81 488 l 1
 161 488 l 1
 161 198 l 2
 161 131 180 62 259 62 c 0xa9
 337 62 402 132 402 210 c 2
 402 488 l 1
 482 488 l 1
 482 0 l 1x69
EndSplineSet
EndChar
StartChar: uni021A
Encoding: 538 538 398
Width: 566
GlyphClass: 2
Flags: MW
HStem: -289 189<203 363 203 363> 0 21G<241 325 241 241> 619 71<10 241 10 556 325 556 325 325>
VStem: 203 160 241 84<0 619 0 619>
LayerCount: 2
Back
Fore
SplineSet
363 -100 m 1x90
 253 -289 l 1
 203 -289 l 1
 263 -100 l 1
 363 -100 l 1x90
556 619 m 1x68
 325 619 l 1
 325 0 l 1
 241 0 l 1
 241 619 l 1
 10 619 l 1
 10 690 l 1
 556 690 l 1
 556 619 l 1x68
EndSplineSet
EndChar
StartChar: uni021B
Encoding: 539 539 399
Width: 336
GlyphClass: 2
Flags: MW
HStem: -299 189<151 311 151 311> -10 71<222 252.5> 420 68<30 106 30 106 186 311>
VStem: 106 80<129 420 488 600 600 600> 151 160
LayerCount: 2
Back
Fore
SplineSet
311 -110 m 1x88
 201 -299 l 1
 151 -299 l 1
 211 -110 l 1
 311 -110 l 1x88
231 -10 m 0x70
 144 -10 106 46 106 129 c 2
 106 420 l 1
 30 420 l 1
 30 488 l 1
 106 488 l 1
 106 600 l 1
 186 670 l 1
 186 488 l 1
 311 488 l 1
 311 420 l 1
 186 420 l 1
 186 127 l 2
 186 78 206 61 238 61 c 0
 279 61 301 71 301 71 c 1
 301 0 l 1
 301 0 274 -10 231 -10 c 0x70
EndSplineSet
EndChar
StartChar: uni021E
Encoding: 542 542 400
Width: 700
GlyphClass: 2
Flags: MW
HStem: 0 21G<95 179 95 95 521 605 521 521> 308 74<179 521 179 521> 670 20G<95 179 179 179 521 605 605 605> 800 184<189 350>
VStem: 95 84<0 308 0 382 382 690> 189 323 521 84<0 308 308 308 382 690>
LayerCount: 2
Back
Fore
SplineSet
429 984 m 1
 511 984 l 1
 350 800 l 1
 189 984 l 1
 271 984 l 1
 350 890 l 1
 429 984 l 1
605 0 m 1
 521 0 l 1
 521 308 l 1
 179 308 l 1
 179 0 l 1
 95 0 l 1
 95 690 l 1
 179 690 l 1
 179 382 l 1
 521 382 l 1
 521 690 l 1
 605 690 l 1
 605 0 l 1
EndSplineSet
EndChar
StartChar: uni021F
Encoding: 543 543 401
Width: 572
GlyphClass: 2
Flags: MW
HStem: 0 21G<94 174 94 94 411 491 411 411> 422 77<293 352.5> 670 20G<94 174 174 174> 790 184<131 292>
VStem: 94 80<0 306 421 690> 131 323 411 80<0 289>
LayerCount: 2
Back
Fore
SplineSet
371 974 m 1x14
 453 974 l 1
 292 790 l 1
 131 974 l 1
 213 974 l 1
 292 880 l 1
 371 974 l 1x14
491 0 m 1xea
 411 0 l 1
 411 289 l 2
 411 356 392 422 313 422 c 0
 244 422 187 371 174 306 c 1
 174 0 l 1
 94 0 l 1
 94 690 l 1
 174 690 l 1
 174 421 l 1
 207 468 264 499 322 499 c 0
 446 499 491 399 491 289 c 2
 491 0 l 1xea
EndSplineSet
EndChar
StartChar: uni0228
Encoding: 552 552 404
Width: 609
GlyphClass: 2
Flags: MW
HStem: -236 51<292 313.5 292 327.5> 0 77<179 286 343 343 343 544> 308 74<179 501 179 501> 616 74<179 544 179 179>
VStem: 95 84<77 308 382 616> 346 53<-154.5 -131>
LayerCount: 2
Back
Fore
SplineSet
215 -175 m 1
 261 -151 l 1
 265 -168 281 -185 303 -185 c 0
 324 -185 346 -167 346 -142 c 0
 346 -120 327 -106 303 -99 c 2
 244 -80 l 1
 286 0 l 1
 95 0 l 1
 95 690 l 1
 544 690 l 1
 544 616 l 1
 179 616 l 1
 179 382 l 1
 501 382 l 1
 501 308 l 1
 179 308 l 1
 179 77 l 1
 544 77 l 1
 544 0 l 1
 343 0 l 1
 306 -55 l 1
 364 -66 399 -98 399 -138 c 0
 399 -194 352 -236 303 -236 c 0
 260 -236 228 -208 215 -175 c 1
EndSplineSet
EndChar
StartChar: uni0229
Encoding: 553 553 405
Width: 520
GlyphClass: 2
Flags: MW
HStem: -242 51<246.5 268.5 246.5 281.5> 217 64<134 399 134 473 134 399> 424 70<222 309.5>
VStem: 50 84<217 217 217 281 217 307> 301 53 399 76<281 281>
LayerCount: 2
Back
Fore
SplineSet
170 -181 m 1
 216 -157 l 1
 219 -175 235 -191 258 -191 c 0
 279 -191 301 -173 301 -148 c 0
 301 -126 282 -113 257 -105 c 2
 199 -86 l 1
 242 -4 l 1
 114 11 50 118 50 241 c 0
 50 373 120 494 265 494 c 0
 427 494 475 371 475 237 c 0
 475 230 473 217 473 217 c 1
 134 217 l 1
 135 135 182 65 273 65 c 0
 329 65 370 76 409 116 c 1
 463 72 l 1
 415 21 363 -1 298 -6 c 1
 261 -61 l 1
 319 -72 353 -104 353 -144 c 0
 353 -200 306 -242 257 -242 c 0
 215 -242 182 -214 170 -181 c 1
265 424 m 0
 179 424 138 359 134 281 c 1
 399 281 l 1
 397 365 354 424 265 424 c 0
EndSplineSet
EndChar
StartChar: uni022C
Encoding: 556 556 408
Width: 746
GlyphClass: 2
Flags: MW
HStem: -10 77<291.5 454.5 291.5 480> 623 77<291.5 454.5> 800 54<426 471.5 426 484.5> 880 53<270 314.5> 1033 60<210 533 210 533>
VStem: 60 84<272 418 272 441> 190 53<813 818 813 848> 210 323<1033 1093 1033 1093> 500 57<907 930> 602 84<272 418>
LayerCount: 2
Back
Fore
SplineSet
533 1093 m 1x09
 533 1033 l 1
 210 1033 l 1
 210 1093 l 1
 533 1093 l 1x09
450 800 m 0xf6c0
 369 800 342 880 287 880 c 0
 253 880 243 852 243 818 c 0
 243 816 243 815 243 813 c 2
 190 813 l 1
 190 883 222 933 286 933 c 0
 382 933 399 854 453 854 c 0
 490 854 500 884 500 930 c 1
 557 930 l 1
 557 847 519 800 450 800 c 0xf6c0
373 623 m 0
 210 623 144 491 144 345 c 0
 144 199 210 67 373 67 c 0
 536 67 602 199 602 345 c 0
 602 491 536 623 373 623 c 0
373 -10 m 0
 159 -10 60 153 60 345 c 0
 60 537 159 700 373 700 c 0
 587 700 686 537 686 345 c 0
 686 153 587 -10 373 -10 c 0
EndSplineSet
EndChar
StartChar: uni022E
Encoding: 558 558 410
Width: 746
GlyphClass: 2
Flags: MW
HStem: -10 77<291.5 454.5 291.5 480> 623 77<291.5 454.5> 800 125<355 390>
VStem: 60 84<272 418 272 441> 310 125 602 84<272 418>
CounterMasks: 1 1c
LayerCount: 2
Back
Fore
SplineSet
310 863 m 0
 310 898 338 925 372 925 c 0
 408 925 436 898 436 863 c 0
 436 828 408 800 372 800 c 0
 338 800 310 828 310 863 c 0
373 623 m 0
 210 623 144 491 144 345 c 0
 144 199 210 67 373 67 c 0
 536 67 602 199 602 345 c 0
 602 491 536 623 373 623 c 0
373 -10 m 0
 159 -10 60 153 60 345 c 0
 60 537 159 700 373 700 c 0
 587 700 686 537 686 345 c 0
 686 153 587 -10 373 -10 c 0
EndSplineSet
EndChar
StartChar: uni022F
Encoding: 559 559 411
Width: 570
GlyphClass: 2
Flags: MW
HStem: -10 72<232.5 337.5 232.5 354.5> 422 72<232.5 337.5> 594 125<267 302>
VStem: 50 89<194.5 289.5 194.5 311.5> 222 125 431 89<194.5 289.5>
CounterMasks: 1 1c
LayerCount: 2
Back
Fore
SplineSet
222 657 m 0
 222 692 250 719 284 719 c 0
 320 719 348 692 348 657 c 0
 348 622 320 594 284 594 c 0
 250 594 222 622 222 657 c 0
139 242 m 0
 139 147 180 62 285 62 c 0
 390 62 431 147 431 242 c 0
 431 337 390 422 285 422 c 0
 180 422 139 337 139 242 c 0
50 242 m 0
 50 381 146 494 285 494 c 0
 424 494 520 381 520 242 c 0
 520 103 424 -10 285 -10 c 0
 146 -10 50 103 50 242 c 0
EndSplineSet
EndChar
StartChar: uni0230
Encoding: 560 560 412
Width: 746
GlyphClass: 2
Flags: MW
HStem: -10 77<291.5 454.5 291.5 480> 623 77<291.5 454.5> 800 125<355 390> 1025 60<211 534 211 534>
VStem: 60 84<272 418 272 441> 211 323<1025 1085 1025 1085> 310 125 602 84<272 418>
LayerCount: 2
Back
Fore
SplineSet
534 1085 m 1x14
 534 1025 l 1
 211 1025 l 1
 211 1085 l 1
 534 1085 l 1x14
310 863 m 0xeb
 310 898 338 925 372 925 c 0
 408 925 436 898 436 863 c 0
 436 828 408 800 372 800 c 0
 338 800 310 828 310 863 c 0xeb
373 623 m 0
 210 623 144 491 144 345 c 0
 144 199 210 67 373 67 c 0
 536 67 602 199 602 345 c 0
 602 491 536 623 373 623 c 0
373 -10 m 0
 159 -10 60 153 60 345 c 0
 60 537 159 700 373 700 c 0
 587 700 686 537 686 345 c 0
 686 153 587 -10 373 -10 c 0
EndSplineSet
EndChar
StartChar: uni0232
Encoding: 562 562 414
Width: 632
GlyphClass: 2
Flags: MW
HStem: 0 21G<275 357 275 275> 670 20G<10 108 108 108 524 622 622 622> 800 60<155 477 155 477>
VStem: 155 323 275 82<0 270 0 270>
LayerCount: 2
Back
Fore
SplineSet
477 860 m 1x30
 477 800 l 1
 155 800 l 1
 155 860 l 1
 477 860 l 1x30
622 690 m 1xc8
 357 270 l 1
 357 0 l 1
 275 0 l 1
 275 270 l 1
 10 690 l 1
 108 690 l 1
 316 354 l 1
 524 690 l 1
 622 690 l 1xc8
EndSplineSet
EndChar
StartChar: uni0233
Encoding: 563 563 415
Width: 487
GlyphClass: 2
Flags: MW
HStem: 468 20G<20 108 108 108 384 472 472 472> 594 60<85 407 85 407>
VStem: 85 323
LayerCount: 2
Back
Fore
SplineSet
407 654 m 1
 407 594 l 1
 85 594 l 1
 85 654 l 1
 407 654 l 1
472 488 m 1
 208 -210 l 1
 125 -210 l 1
 207 5 l 1
 20 488 l 1
 108 488 l 1
 247 98 l 1
 384 488 l 1
 472 488 l 1
EndSplineSet
EndChar
StartChar: uni0237
Encoding: 567 567 416
Width: 261
GlyphClass: 2
Flags: MW
HStem: -214 77<29 61.5 29 89.5> 468 20G<90 174 174 174>
VStem: 90 84<-75 -71 -71 488>
LayerCount: 2
Back
Fore
SplineSet
45 -214 m 0
 9 -214 -31 -199 -31 -199 c 1
 -13 -129 l 1
 -13 -129 16 -137 42 -137 c 0
 81 -137 90 -108 90 -75 c 2
 90 488 l 1
 174 488 l 1
 174 -71 l 2
 174 -154 134 -214 45 -214 c 0
EndSplineSet
EndChar
StartChar: uni02BB
Encoding: 699 699 417
Width: 225
GlyphClass: 2
Flags: MW
HStem: 488 202<30 190 30 190>
VStem: 30 160
LayerCount: 2
Back
Fore
SplineSet
30 488 m 1
 140 690 l 1
 190 690 l 1
 130 488 l 1
 30 488 l 1
EndSplineSet
EndChar
StartChar: uni02BC
Encoding: 700 700 418
Width: 170
GlyphClass: 2
Flags: MW
HStem: 488 202<30 190 30 190>
VStem: 30 160
LayerCount: 2
Back
Fore
SplineSet
190 690 m 1
 80 488 l 1
 30 488 l 1
 90 690 l 1
 190 690 l 1
EndSplineSet
EndChar
StartChar: circumflex
Encoding: 710 710 419
Width: 322
GlyphClass: 2
Flags: MW
HStem: 506 184<0 161 0 161 161 323 161 241>
VStem: 0 323<506 506>
LayerCount: 2
Back
Fore
SplineSet
241 506 m 1
 161 600 l 1
 82 506 l 1
 0 506 l 1
 161 690 l 1
 323 506 l 1
 241 506 l 1
EndSplineSet
EndChar
StartChar: caron
Encoding: 711 711 420
Width: 322
GlyphClass: 2
Flags: MW
HStem: 518 184<0 161>
VStem: 0 323<702 702>
LayerCount: 2
Back
Fore
SplineSet
241 702 m 1
 323 702 l 1
 161 518 l 1
 0 702 l 1
 82 702 l 1
 161 608 l 1
 241 702 l 1
EndSplineSet
EndChar
StartChar: breve
Encoding: 728 728 421
Width: 298
GlyphClass: 2
Flags: MW
HStem: 558 54<125.5 172.5 125.5 191.5> 670 20G<0 64 64 64 234 298 298 298>
VStem: 0 64<666.5 690 666.5 690> 234 64<666.5 690>
LayerCount: 2
Back
Fore
SplineSet
234 690 m 1
 298 690 l 1
 298 605 234 558 149 558 c 0
 64 558 0 605 0 690 c 1
 64 690 l 1
 64 643 102 612 149 612 c 0
 196 612 234 643 234 690 c 1
EndSplineSet
EndChar
